<?xml version="1.0" encoding="UTF-8" standalone="no"?><svg xmlns="http://www.w3.org/2000/svg" xmlns:xlink="http://www.w3.org/1999/xlink" contentScriptType="text/ecmascript" fill="#000000" width="1070.5" zoomAndPan="magnify" contentStyleType="text/css" viewBox="0.0 0.0 1070.5 739.2" height="739.2" preserveAspectRatio="xMidYMid meet" version="1"><g id="change1_1"><path fill="#e15269" d="M1069.55371,16.62207l-0.40918,0.04395c-30.24707,3.26904-56.29883,20.42969-64.82715,42.70166 c-5.24414,13.69482-4.27832,28.65869-3.34473,43.13086c0.39746,6.13672,0.80762,12.48193,0.74512,18.7124 c-0.21191,21.16748-6.72168,41.87402-18.33008,58.30518c-13.61914,19.27686-33.47559,31.58057-57.42285,35.58105 c-24.64746,4.11719-50.23828,5.11719-74.98926,6.08398c-30.16016,1.17822-61.34766,2.39648-90.88281,9.35986 c-28.76758,6.78223-49.62305,18.07861-61.98535,33.57422c-8.82227,11.06006-13.25293,24.27686-17.53906,37.05811 c-2.42676,7.23682-4.93652,14.71924-8.21875,21.77881c-7.03918,15.1394-18.25732,29.05072-32.58618,40.50281l-0.47729-1.3114 l-0.40918,0.04395c-5.16614,0.55829-10.2052,1.53082-15.06024,2.8559c0.65112-0.46094,1.30591-0.91675,1.94891-1.3891 c16.68359-12.25586,29.69238-27.67969,37.62012-44.60352c3.35645-7.16406,5.90625-14.6875,8.37402-21.97021 c4.23926-12.51221,8.62305-25.45068,17.15527-36.09961c11.95898-14.92822,32.22266-25.84863,60.22754-32.45703 c29.13281-6.875,60.03125-8.09326,89.92285-9.27246c24.76562-0.97656,50.37402-1.98633,75.16016-6.13428 c24.6875-4.13184,45.17578-16.79053,59.24902-36.6084c11.90234-16.76367,18.62109-37.86572,18.91895-59.41846 c0.08594-6.25391-0.30078-12.61475-0.67676-18.80762c-0.8623-14.16553-1.75293-28.81299,3.34473-41.99805 c8.24805-21.33643,33.32617-37.78955,62.40332-40.94043l0.66309-0.07227l-0.92578-2.57715l-0.41113,0.04443 c-30.12402,3.26953-56.13574,20.36572-64.72559,42.54199c-5.28223,13.63867-4.38672,28.53223-3.52148,42.93506 c0.36719,6.11523,0.74707,12.43896,0.65723,18.625c-0.30664,21.06689-6.87891,41.6792-18.50586,58.03906 c-13.6416,19.19141-33.45996,31.44678-57.3125,35.44141c-24.55273,4.11182-50.0293,5.12109-74.67285,6.09717 c-30.02539,1.18994-61.07227,2.42041-90.50098,9.36719c-28.66406,6.7666-49.4707,18.01953-61.84082,33.44678 c-8.82812,11.01123-13.29395,24.16504-17.62305,36.91602c-2.44336,7.19287-4.96875,14.63086-8.25977,21.64697 c-7.19507,15.33575-18.68933,29.41315-33.36725,40.93109l-0.18353-0.51117l-0.41113,0.04492 c-5.72693,0.62177-11.30371,1.74579-16.64191,3.30676c1.26874-0.86554,2.52771-1.74554,3.76691-2.65344 c16.66016-12.20703,29.67578-27.56641,37.63867-44.41602c3.37891-7.14941,5.94629-14.63428,8.43066-21.87793 c4.27344-12.45605,8.69336-25.33643,17.23145-35.94043c11.96973-14.86768,32.19043-25.74951,60.09961-32.34326 c29.03418-6.85889,59.80176-8.08789,89.5625-9.27637c24.65625-0.98389,50.15137-2.00195,74.84863-6.14453 c24.59473-4.12549,45.04688-16.73779,59.14453-36.47461c11.92578-16.69531,18.71094-37.7085,19.10547-59.16748 c0.11426-6.26465-0.24316-12.6001-0.58887-18.72656c-0.79297-14.10449-1.61328-28.68896,3.52148-41.82178 c8.31055-21.25195,33.35449-37.64795,62.31738-40.79834l0.66113-0.07227l-0.91309-2.5708l-0.41309,0.04492 c-30.00684,3.26904-55.98145,20.30566-64.63379,42.39258c-5.32031,13.58057-4.49805,28.41113-3.70117,42.78076 c0.33691,6.08496,0.68555,12.37695,0.56738,18.51953c-0.40137,20.97656-7.03711,41.50146-18.6875,57.79443 c-13.66602,19.11279-33.4502,31.32373-57.21191,35.3125c-24.46387,4.10596-49.82812,5.12354-74.36035,6.10742 c-29.89746,1.19971-60.81152,2.44043-90.14062,9.37061c-28.56738,6.75146-49.33008,17.96484-61.71094,33.32861 c-8.83398,10.96436-13.33691,24.06152-17.69141,36.72754c-2.46484,7.17139-5.01367,14.58643-8.32422,21.58154 c-7.41083,15.65613-19.31805,29.99359-34.5144,41.62299c-6.26404,0.69208-12.34802,1.98883-18.13745,3.80115 c1.89233-1.24457,3.76013-2.52734,5.58936-3.86456c0.08551-0.0625,0.16766-0.12781,0.25299-0.19049 c0.16321-0.01868,0.32477-0.04266,0.48822-0.06049l0.65723-0.07227l-0.2019-0.57764 c16.06403-12.01526,28.66296-26.96979,36.47046-43.34326c3.38477-7.09961,5.97461-14.55518,8.48633-21.78516 c4.30859-12.40771,8.76562-25.23828,17.31348-35.80371c11.9834-14.81201,32.16504-25.6582,59.98535-32.23779 c28.94141-6.84424,59.58203-8.08105,89.21777-9.27734c24.55371-0.99121,49.94434-2.01562,74.55078-6.15186 c24.50488-4.11865,44.9248-16.68848,59.05273-36.35059c11.9502-16.6333,18.80273-37.56494,19.29492-58.93945 c0.1416-6.22363-0.18457-12.54248-0.5-18.66602c-0.72363-14.0459-1.47168-28.56982,3.7002-41.64844 c8.37402-21.1748,33.38672-37.51807,62.24121-40.66797l0.65723-0.07178l-0.89648-2.56543l-0.41504,0.04492 c-29.89453,3.26807-55.83789,20.24951-64.55566,42.25586c-5.36133,13.53369-4.61035,28.30615-3.88281,42.62354 c0.30762,6.05859,0.625,12.32373,0.47949,18.44043c-0.49609,20.89404-7.19922,41.33984-18.87305,57.57178 c-13.69531,19.04102-33.44824,31.21094-57.12402,35.19336c-24.37402,4.09961-49.63379,5.12402-74.0625,6.11475 c-29.77344,1.20752-60.56152,2.45605-89.79688,9.37158c-28.47559,6.73633-49.19824,17.9126-61.5918,33.21924 c-8.8457,10.9248-13.38477,23.96875-17.77344,36.58301c-2.48535,7.14111-5.05469,14.52539-8.38184,21.49414 c-7.74786,16.2265-20.33466,31.03809-36.40656,42.8653c-6.29279,0.80133-12.39532,2.2077-18.18585,4.13983 c1.95087-1.23901,3.86938-2.52911,5.75665-3.8653c0.69873-0.09265,1.39795-0.1839,2.10138-0.26093l0.65332-0.07227l-0.45636-1.32507 c16.27344-12.03461,29.05347-27.06989,36.97687-43.54358c3.40625-7.08301,6.01855-14.51611,8.5459-21.70605 c4.34668-12.36279,8.84082-25.14648,17.39941-35.67627c12-14.76172,32.14746-25.57568,59.88184-32.14111 c28.85449-6.82959,59.37598-8.07324,88.8916-9.27588c24.45703-0.99658,49.74707-2.02686,74.26758-6.15625 c24.4209-4.1123,44.8125-16.64307,58.97168-36.2373c11.97754-16.57617,18.89844-37.43457,19.48926-58.7334 c0.16992-6.19922-0.125-12.49707-0.41016-18.59033c-0.65527-14-1.33398-28.47607,3.87988-41.51514 c8.4375-21.10547,33.42578-37.40088,62.17773-40.54883l0.65332-0.07178l-0.88379-2.56055l-0.41699,0.0459 c-29.78613,3.26562-55.70215,20.19678-64.4873,42.13037c-5.40234,13.4873-4.72363,28.20898-4.06641,42.4834 c0.27832,6.03516,0.56543,12.27539,0.3916,18.36816c-0.59082,20.81738-7.36133,41.19189-19.0625,57.37109 c-13.72559,18.97705-33.45215,31.10938-57.04785,35.08545c-24.28906,4.09277-49.44922,5.12305-73.78027,6.11914 c-29.65625,1.21387-60.32227,2.46875-89.46875,9.37012c-28.38867,6.72168-49.0752,17.86426-61.48535,33.11865 c-8.85449,10.88477-13.43359,23.88281-17.86035,36.45264c-2.50586,7.11475-5.09668,14.47168-8.44141,21.41553 c-7.84766,16.29199-20.57422,31.15625-36.80469,42.98633c-0.49017,0.3573-0.9903,0.70032-1.48523,1.0509 c-6.26086,0.90887-12.32672,2.41339-18.06653,4.44275c1.89325-1.16467,3.76306-2.36914,5.59943-3.62439 c1.23425-0.18622,2.47351-0.35718,3.72284-0.49426l0.65039-0.07129l-0.69427-2.0423 c16.43823-12.04431,29.36304-27.13684,37.38568-43.67792c3.41992-7.05078,6.05371-14.45459,8.61133-21.6416 c4.38281-12.3208,8.91504-25.06104,17.4873-35.55762c12.01855-14.7168,32.13477-25.50146,59.79004-32.05322 c28.77344-6.81641,59.17871-8.06445,88.58203-9.27148c24.36523-1.00049,49.55957-2.03516,74-6.15771 c24.34277-4.10645,44.71094-16.60205,58.90332-36.13574c12.00781-16.52686,18.99902-37.3208,19.68652-58.55029 c0.19922-6.17773-0.06543-12.45703-0.32129-18.5293c-0.58691-13.95752-1.19434-28.39014,4.06055-41.39062 c8.50488-21.04492,33.47168-37.29736,62.12598-40.44336l0.65039-0.07129l-0.86914-2.55566l-0.41895,0.04639 c-29.68555,3.26221-55.5791,20.14795-64.43359,42.01709c-5.44238,13.44385-4.83691,28.11768-4.25,42.32129 c0.24902,6.02686,0.50684,12.25879,0.30469,18.34326c-0.6875,20.75244-7.52637,41.06445-19.25586,57.19336 c-13.75977,18.91895-33.46387,31.01758-56.9834,34.98779c-12.81873,2.16376-25.8772,3.46735-38.92804,4.36755 c8.92206-0.8269,17.82257-1.90814,26.62726-3.39539c24.26855-4.1001,44.61719-16.56396,58.84668-36.04443 c12.04004-16.48291,19.10254-37.22021,19.8877-58.3916c0.22754-6.14502-0.00488-12.39404-0.23242-18.4834 c-0.51953-13.91797-1.05664-28.31006,4.23926-41.27588c8.57422-20.9917,33.52539-37.20654,62.08789-40.34912l0.64746-0.0708 l-0.85352-2.55273l-0.42188,0.04688c-29.59082,3.25879-55.46777,20.104-64.39258,41.91748 c-5.4873,13.41406-4.95215,28.0498-4.43457,42.20361c0.21973,6.00732,0.44727,12.21924,0.2168,18.29834 c-0.78223,20.69531-7.69043,40.95166-19.45117,57.03857c-13.79688,18.86816-33.4834,30.93701-56.93164,34.90088 c-6.14148,1.03815-12.3371,1.87756-18.55914,2.57117c2.08661-0.30829,4.17047-0.62952,6.24762-0.98083 c24.2002-4.09326,44.53418-16.52979,58.80371-35.96533c12.07324-16.44482,19.20801-37.13379,20.08984-58.25586 c0.25781-6.15479,0.05371-12.39844-0.14258-18.43799c-0.45215-13.8877-0.91895-28.24805,4.41895-41.18701 c8.64355-20.94727,33.58398-37.12891,62.06152-40.2666l0.64453-0.0708l-0.84082-2.5498l-0.42285,0.04688 c-3.90497,0.43085-7.74341,1.10571-11.4903,1.99158L968.68652,0l-0.42578,0.04736c-3.93665,0.43481-7.80627,1.1192-11.58374,2.01801 l-0.5354-1.67963l-0.42773,0.04736c-3.95709,0.43744-7.84735,1.12836-11.6452,2.03625l-0.35187-1.12268l-0.42969,0.04785 c-3.9679,0.43878-7.86969,1.13361-11.6792,2.04706l-0.16846-0.54755l-0.43164,0.04785 c-29.21582,3.22998-55.09082,19.95605-64.38477,41.61963c-5.71582,13.31885-5.52832,27.85498-5.3457,41.95117 c0.0752,5.95752,0.1543,12.11816-0.21191,18.13232c-1.25098,20.5498-8.52344,40.6626-20.47852,56.63232 c-14.01855,18.72998-33.67969,30.70898-56.85742,34.6416c-4.06549,0.68982-8.15424,1.28601-12.25604,1.81519 c-4.91138,0.46973-9.83124,0.8609-14.74805,1.19244c-6.67419,0.34302-13.32111,0.6236-19.90509,0.89911 c-10.73883,0.44928-21.61255,0.90643-32.50305,1.64343c-13.26904,0.68359-26.6308,1.6319-39.87646,3.34668 c-13.69708,1.31934-27.34326,3.27936-40.70544,6.4552c-27.95312,6.64453-48.51465,17.64502-61.11621,32.69629 c-8.99023,10.74072-13.86621,23.55908-18.58105,35.95557c-2.66895,7.01807-5.42871,14.2749-8.91016,21.12158 c-8.17041,16.06689-21.06543,30.72998-37.29053,42.40283c-3.72913,2.68304-7.59271,5.16449-11.55585,7.45447 c-14.82019,2.01819-28.68646,7.50641-39.83521,15.32019c-1.00964,0.21088-2.0199,0.41638-3.03229,0.60229l-0.52832,0.09668 l0.34528,1.67578c-8.51703,6.64056-15.16669,14.70764-19.02008,23.61328c-5.76172,13.31836-5.64111,27.85547-5.52441,41.93457 c0.04883,5.96289,0.09912,12.12891-0.29443,18.14844c-1.34229,20.55078-8.68945,40.66113-20.68848,56.62891 c-13.24609,17.62592-31.45264,29.26416-52.84271,33.84619c-1.21259,0.16998-2.42731,0.32965-3.64264,0.48645 c-4.92456,0.47107-9.85785,0.86316-14.78857,1.19531c-6.66681,0.34247-13.30658,0.62268-19.88428,0.89783 c-10.72308,0.44885-21.58063,0.9057-32.45508,1.64087c-13.28705,0.68402-26.6673,1.63263-39.93091,3.35034 c-10.10406,0.97357-20.18005,2.29462-30.13501,4.19904c-7.6933,1.12354-15.3407,2.5249-22.89795,4.32147 c-27.91748,6.63672-48.48145,17.63184-61.12109,32.67871c-9.01709,10.73633-13.93896,23.55273-18.69824,35.94824 c-2.69385,7.01465-5.479,14.26855-8.98535,21.11914c-8.22314,16.06348-21.15381,30.72266-37.39453,42.3916 c-16.35645,11.75098-35.16846,19.8291-54.40137,23.36133L0,714.45508l0.58154,2.88965l0.50781-0.09375 c4.00665-0.73535,7.99286-1.67285,11.94519-2.78534l0.17834,0.86542l0.50537-0.09277c3.97699-0.7298,7.93323-1.65765,11.85529-2.758 l0.33319,1.57831l0.50293-0.09277c3.9375-0.72241,7.85394-1.63739,11.73615-2.72205l0.48895,2.26599l0.50098-0.0918 c19.81445-3.63281,39.11719-11.92871,55.82129-23.98926c16.59668-11.98242,29.73975-27.0459,38.0083-43.56152 c3.5-6.99023,6.23096-14.33008,8.87744-21.44336c4.54443-12.21582,9.24365-24.84766,17.88965-35.25781 c12.12012-14.59473,32.1582-25.29395,59.55811-31.80273c2.03998-0.48438,4.0896-0.93317,6.1441-1.36304 c-25.25702,6.77014-43.95374,17.3172-55.61285,31.40015c-8.92139,10.77734-13.66357,23.63867-18.25146,36.08203 c-2.5957,7.03906-5.27979,14.31836-8.69629,21.18555c-8.021,16.12109-20.82568,30.83398-37.03076,42.54883 C89.521,699.01562,70.6499,707.12988,51.26904,710.68262l-0.53564,0.09766l0.63818,2.89355l0.49854-0.0918 c19.86035-3.63867,39.18555-11.94824,55.88721-24.02734c16.59473-12.00293,29.71045-27.09082,37.93018-43.63281 c3.48096-7.00488,6.18848-14.36133,8.80859-21.48145c4.50244-12.23242,9.15869-24.88184,17.78223-35.30664 c12.09131-14.61719,32.14209-25.33301,59.59619-31.85059c6.09125-1.44574,12.25543-2.62781,18.46271-3.62402 c-2.25018,0.466-4.49554,0.95209-6.7298,1.48242c-28.1626,6.68262-48.76758,17.74316-61.24316,32.875 c-8.90137,10.79688-13.60107,23.68457-18.14648,36.14746c-2.57227,7.05371-5.23242,14.34863-8.63135,21.2334 c-7.97461,16.15332-20.75586,30.89551-36.96143,42.63281c-16.32324,11.82227-35.22119,19.95215-54.65088,23.51074l-0.53809,0.09863 l0.65186,2.89551l0.49658-0.09082c19.91064-3.64453,39.26318-11.96973,55.96582-24.07227 c16.59619-12.02539,29.68799-27.14453,37.86084-43.7207c3.45801-7.01465,6.13965-14.38086,8.73877-21.51953 c4.4624-12.25977,9.07666-24.93555,17.68213-35.38184c12.06445-14.64551,32.13281-25.38086,59.64746-31.9082 c10.96722-2.60199,22.16492-4.38641,33.44843-5.67145c-7.30792,1.09784-14.56464,2.45227-21.73212,4.15192 c-28.23096,6.69434-48.85889,17.78027-61.31104,32.94727c-8.88428,10.82227-13.54199,23.74023-18.0498,36.24121 c-2.54932,7.07031-5.18604,14.38086-8.56299,21.27734c-7.93018,16.19238-20.68994,30.96973-36.90088,42.73535 c-16.32812,11.84863-35.25732,19.99609-54.74072,23.56055l-0.54053,0.09863l0.66699,2.90039l0.49414-0.09082 c19.96387-3.64941,39.34863-11.99219,56.05811-24.125c16.60205-12.05469,29.67285-27.20898,37.79932-43.82617 c3.44238-7.03906,6.10107-14.42676,8.67432-21.5791c4.42236-12.28613,8.99561-24.99121,17.58252-35.45898 c12.03955-14.67676,32.12988-25.43555,59.71191-31.97559c17.60712-4.17419,35.81519-6.25439,54.02759-7.52124 c-14.27753,1.33081-28.4881,3.32794-42.35864,6.61499c-28.30615,6.70801-48.96143,17.81934-61.3916,33.02734 c-8.86914,10.85254-13.48633,23.80762-17.95215,36.33691c-2.52783,7.09277-5.14209,14.42773-8.50244,21.3457 c-7.88721,16.23828-20.62891,31.05664-36.84814,42.85254c-16.33691,11.88086-35.30127,20.04785-54.84277,23.61816l-0.54346,0.09863 l0.68115,2.90527l0.4917-0.08984c20.02539-3.65723,39.44629-12.01953,56.16357-24.18359 c16.6123-12.08789,29.66455-27.28516,37.74658-43.94922c3.42529-7.0625,6.06006-14.46973,8.60889-21.63477 c4.38379-12.32324,8.91699-25.06543,17.48975-35.56348c12.01953-14.71777,32.13574-25.50195,59.79053-32.05371 c28.76562-6.81445,59.16602-8.06348,88.58936-9.27246c24.36279-1,49.55469-2.03418,73.99268-6.15723 c24.34277-4.10645,44.71143-16.60156,58.90332-36.13574c12.00732-16.52539,18.99902-37.31934,19.68604-58.55078 c0.19971-6.18262-0.06445-12.45898-0.32031-18.5293c-0.58789-13.95703-1.19531-28.38867,4.05908-41.38965 c2.99591-7.41248,8.04089-14.22595,14.56293-20.086c6.02759-1.53931,11.96881-3.49945,17.76648-5.86047 c-2.84424,1.96783-5.51093,4.08441-7.96539,6.33691c-2.31104,0.55432-4.63318,1.0495-6.9646,1.47479l-0.5459,0.09961l0.6958,2.91113 l0.48975-0.08984c0.80133-0.14612,1.59973-0.31244,2.39893-0.47351c-4.66302,5.05457-8.33234,10.65021-10.72412,16.62097 c-5.40137,13.48633-4.72314,28.20898-4.06689,42.44629c0.27881,6.04688,0.56641,12.2998,0.39307,18.40625 c-0.59229,20.81836-7.36182,41.19336-19.06299,57.37109c-13.72559,18.97559-33.45215,31.10742-57.04785,35.08496 c-24.28516,4.09277-49.44385,5.12207-73.78125,6.11914c-29.65674,1.21289-60.32275,2.46875-89.46826,9.37012 c-28.38818,6.72168-49.07471,17.86426-61.48486,33.11816c-8.85449,10.88379-13.43262,23.88086-17.86084,36.45215 c-2.50586,7.11621-5.09766,14.47363-8.44092,21.41699c-7.84668,16.29102-20.57324,31.15527-36.80469,42.98535 c-16.34863,11.91699-35.35254,20.10645-54.95703,23.68262l-0.5459,0.09961l0.6958,2.91113l0.48975-0.08984 c20.08887-3.66309,39.55029-12.04785,56.28076-24.24902c16.62402-12.12305,29.66113-27.36816,37.70264-44.08887 c3.40234-7.07422,6.01416-14.50293,8.54736-21.70703c4.3457-12.3623,8.83984-25.14551,17.39893-35.6748 c11.99951-14.7627,32.14648-25.57617,59.88086-32.14062c28.85938-6.83105,59.37793-8.07422,88.8916-9.27539 c24.45508-0.99707,49.74268-2.02734,74.26807-6.15723c24.42139-4.11328,44.81348-16.64355,58.97119-36.2373 c11.97803-16.57715,18.89941-37.43555,19.48828-58.7334c0.17188-6.19922-0.12354-12.49707-0.40918-18.58789 c-0.65625-14.00098-1.33447-28.47754,3.87939-41.5166c2.7489-6.87555,7.2627-13.23529,13.08191-18.80164 c5.9895-1.46399,11.89606-3.34814,17.66522-5.62231c-2.85571,2.08093-5.51636,4.31604-7.94666,6.6908 c-1.90686,0.43726-3.81927,0.8443-5.73993,1.19409l-0.54883,0.09961l0.70996,2.91699l0.4873-0.08887 c0.48907-0.08899,0.97583-0.19391,1.46411-0.28845c-4.10626,4.7254-7.3493,9.89697-9.52173,15.38123 c-5.36084,13.53125-4.61035,28.30469-3.88379,42.60254c0.30762,6.06543,0.62549,12.33789,0.47998,18.46094 c-0.49609,20.89258-7.19873,41.33887-18.87256,57.57129c-13.69482,19.04102-33.44824,31.21094-57.12451,35.19434 c-24.37793,4.09961-49.63623,5.12402-74.0625,6.11328c-29.77393,1.20801-60.56201,2.45801-89.79736,9.37207 c-28.4751,6.7373-49.19727,17.91406-61.59082,33.21875c-8.84424,10.92383-13.38379,23.96875-17.78076,36.60352 c-2.48389,7.13574-5.05225,14.51465-8.37549,21.47461c-7.80664,16.35059-20.52148,31.2666-36.76904,43.1377 c-16.36523,11.95703-35.41309,20.16992-55.08301,23.75195l-0.54785,0.09961l0.70947,2.91699l0.48779-0.08887 c20.15479-3.66699,39.66113-12.07715,56.41016-24.32031c16.64014-12.16309,29.66504-27.46191,37.6665-44.24414 c3.38672-7.10352,5.97803-14.5625,8.48682-21.78418c4.30908-12.4082,8.76514-25.23926,17.31348-35.80566 c11.98389-14.81152,32.16553-25.65723,59.98486-32.23633c28.94385-6.84473,59.58545-8.08203,89.24219-9.27832 c24.54785-0.99219,49.93213-2.0166,74.52734-6.15039c24.50488-4.12012,44.9248-16.68945,59.05225-36.35156 c11.9502-16.63379,18.80225-37.56543,19.29443-58.93945c0.14258-6.20996-0.18311-12.52637-0.49902-18.65527 c-0.72461-14.04883-1.47363-28.57715,3.7002-41.65918c2.50433-6.33252,6.50598-12.22766,11.64417-17.47229 c5.91309-1.38708,11.74695-3.18292,17.45178-5.35925c-2.8537,2.19623-5.49188,4.5531-7.88336,7.05078 c-1.53369,0.33673-3.07043,0.65564-4.61298,0.93604l-0.55078,0.09961l0.72363,2.92578l0.48535-0.08887 c0.21283-0.03864,0.42438-0.08557,0.63702-0.12531c-3.55597,4.36371-6.3916,9.0799-8.34113,14.05597 c-5.32031,13.58203-4.49805,28.41309-3.70215,42.75586c0.33789,6.08984,0.6875,12.38672,0.56934,18.54492 c-0.40039,20.97461-7.03809,41.49902-18.6875,57.79297c-13.6665,19.11328-33.4502,31.32422-57.2124,35.3125 c-24.45312,4.10547-49.81396,5.12305-74.35791,6.10742c-29.89697,1.19922-60.81152,2.43945-90.14307,9.37109 c-28.56738,6.75098-49.32959,17.96387-61.71045,33.32812c-8.83496,10.96582-13.33691,24.0625-17.69482,36.73926 c-2.46436,7.16797-5.0127,14.58008-8.3208,21.57031c-7.77051,16.41602-20.47607,31.38965-36.74268,43.30371 c-16.38477,12.00098-35.47949,20.24023-55.21973,23.82812l-0.55029,0.09961l0.72314,2.92578l0.48535-0.08887 c20.22705-3.67383,39.78223-12.11133,56.55176-24.39844c16.65967-12.20703,29.67529-27.56641,37.63965-44.41602 c3.37012-7.13086,5.93945-14.62012,8.42822-21.87207c4.27393-12.45898,8.69336-25.34082,17.23242-35.94727 c11.96973-14.86621,32.18994-25.74805,60.1001-32.3418c29.03418-6.85938,59.80176-8.08789,89.58057-9.27734 c24.65283-0.98438,50.14453-2.00293,74.83105-6.14355c24.59473-4.12598,45.04639-16.73828,59.14404-36.47461 c11.92627-16.69629,18.71045-37.70898,19.10498-59.16797c0.11426-6.2373-0.24219-12.58008-0.58789-18.72852 c-0.79297-14.10449-1.61328-28.68945,3.52148-41.81934c2.25714-5.77234,5.75696-11.18188,10.22601-16.06952 c5.79022-1.30688,11.51001-2.99243,17.10602-5.0553c-2.81293,2.29755-5.39148,4.75989-7.71173,7.36023 c-1.19824,0.25256-2.39911,0.48962-3.60272,0.70795l-0.55273,0.09961l0.73828,2.93457l0.38892-0.07068 c-3.01495,3.9668-5.44739,8.20325-7.16919,12.6488c-5.28125,13.63672-4.3877,28.53125-3.52148,42.95312 c0.36719,6.11328,0.74707,12.43457,0.65625,18.60645c-0.30664,21.06836-6.87891,41.68066-18.50586,58.03906 c-13.6416,19.19238-33.45996,31.44824-57.31201,35.44141c-24.54785,4.11133-50.021,5.12109-74.66797,6.09766 c-30.02441,1.18945-61.07178,2.41992-90.50488,9.36621c-28.66553,6.76758-49.47217,18.02051-61.84131,33.44727 c-8.82861,11.01172-13.29443,24.16602-17.6167,36.89746c-2.44482,7.19922-4.97314,14.64355-8.2666,21.66602 c-7.73535,16.4873-20.43408,31.52441-36.72363,43.48535c-16.4082,12.04785-35.55469,20.31543-55.36865,23.90918l-0.55273,0.09961 l0.73779,2.93457l0.4834-0.08789c20.30322-3.67969,39.91113-12.14648,56.7041-24.48242 c16.68408-12.25684,29.69336-27.67969,37.62061-44.60352c3.35645-7.16504,5.90625-14.69043,8.37305-21.9707 c4.24023-12.51172,8.62451-25.4502,17.15576-36.09961c11.95898-14.92773,32.22217-25.84766,60.22705-32.45605 c29.13086-6.875,60.02686-8.09375,89.92334-9.27246c24.76025-0.97656,50.36279-1.98535,75.16064-6.13379 c24.68848-4.13281,45.17578-16.79199,59.24805-36.61035c11.90332-16.7627,18.62207-37.86426,18.91895-59.41797 c0.08594-6.2793-0.30176-12.64844-0.67773-18.81836c-0.86035-14.16211-1.75098-28.80566,3.3457-41.9873 c2.00818-5.1944,5.02045-10.09589,8.83832-14.58984c5.66376-1.23328,11.2583-2.84003,16.7406-4.79559 c-2.76648,2.4007-5.2793,4.97009-7.52142,7.67487c-0.91302,0.18561-1.82593,0.37195-2.74207,0.53772l-0.55469,0.09961 l0.69806,2.73334c-2.57611,3.61151-4.67511,7.43378-6.20294,11.42389c-5.24316,13.69238-4.27832,28.65332-3.34277,43.14062 c0.39648,6.14453,0.80664,12.49902,0.74414,18.70312c-0.21289,21.16699-6.72266,41.87305-18.33008,58.30469 c-13.61914,19.27637-33.47559,31.58008-57.42236,35.58008c-24.64795,4.11816-50.23877,5.11719-74.99072,6.08398 c-30.15771,1.17773-61.34277,2.39551-90.8833,9.36035c-28.76758,6.7832-49.62207,18.0791-61.98389,33.57422 c-8.82129,11.05859-13.25342,24.27539-17.54053,37.05957c-2.42676,7.2373-4.93604,14.7207-8.21777,21.77734 c-7.70166,16.56641-20.39697,31.67285-36.71289,43.68457c-16.43506,12.09863-35.63623,20.39648-55.52832,23.99609l-0.55469,0.09961 l0.75195,2.94434l0.48145-0.08789c20.38232-3.68652,40.04688-12.18262,56.86719-24.57227 c16.71143-12.30859,29.71729-27.80176,37.61084-44.80664c3.34473-7.20508,5.87354-14.76367,8.32129-22.0791 c4.20703-12.57031,8.55713-25.56836,17.08154-36.26367c11.95068-14.99316,32.26123-25.9541,60.3667-32.5791 c29.2417-6.89258,60.28174-8.09863,90.2998-9.26562c24.87354-0.9668,50.59424-1.96582,75.48486-6.12012 c24.78613-4.13867,45.31396-16.84766,59.36377-36.75391c11.88379-16.83887,18.53809-38.03711,18.73828-59.69141 c0.05762-6.31055-0.36035-12.70801-0.76465-18.89551c-0.93066-14.23047-1.89258-28.94531,3.16797-42.19043 c1.75934-4.60272,4.30426-8.97656,7.49829-13.04211c19.03217-4.01227,37.31793-12.20947,53.09937-23.83386 c16.71191-12.30859,29.7168-27.80176,37.61035-44.80566c3.33887-7.19336,5.86816-14.74756,8.32031-22.07422 c4.20605-12.5708,8.55566-25.57031,17.08398-36.26855c11.9502-14.99414,32.26074-25.95605,60.36523-32.58057 c29.2373-6.89111,60.27344-8.09766,90.30176-9.26514c24.87695-0.96729,50.60059-1.96729,75.4834-6.12109 c24.78613-4.1377,45.31348-16.84668,59.36328-36.75342c11.88281-16.83643,18.53809-38.03516,18.73926-59.69043 c0.05762-6.29834-0.36133-12.70264-0.7666-18.90283c-0.92871-14.22949-1.89062-28.94336,3.1709-42.18311 c8.18848-21.42822,33.30566-37.94287,62.50195-41.09375l0.66602-0.07227L1069.55371,16.62207z M637.07812,309.75977 c3.35352-7.02148,5.93262-14.43359,8.42676-21.60156c4.35938-12.5293,8.86719-25.48535,17.59766-36.26758 c12.24414-15.12158,32.77344-26.17627,61.01758-32.85791c29.13672-6.89209,59.87305-8.13867,89.59766-9.34424 c24.46094-0.99219,49.75391-2.01807,74.19336-6.12842c23.95508-4.0293,43.94336-16.34521,57.80371-35.61621 c11.7959-16.40186,18.56836-37.05664,19.07031-58.15967c0.14648-6.15625-0.17188-12.44141-0.48242-18.55029 c-0.7207-14.17383-1.46582-28.83057,3.81152-42.15234c8.53809-21.55225,33.93555-38.21387,63.27832-41.55176l0.18555,0.53076 c-28.9541,3.3667-53.99902,19.88623-62.44824,41.25195c-5.25684,13.2915-4.50293,27.93115-3.77246,42.10156 c0.31445,6.0918,0.63965,12.39111,0.49805,18.5752c-0.48633,21.16504-7.26953,41.8877-19.09766,58.35059 c-13.96191,19.43213-34.14746,31.85596-58.37305,35.92773c-24.54199,4.125-49.89844,5.14844-74.42188,6.13818 c-29.68262,1.19824-60.375,2.4375-89.41504,9.30469c-28.05176,6.63428-48.42676,17.60254-60.55957,32.59912 c-8.66406,10.7085-13.15137,23.62695-17.49707,36.13965c-2.49512,7.18311-5.07422,14.61084-8.43555,21.6582 c-7.69006,16.13049-20.08484,30.875-35.88489,42.75531l-0.33093-0.94672l-0.03491,0.00378 C617.31683,340.17657,629.49365,325.6449,637.07812,309.75977z M1.40771,716.12305l-0.16699-0.8291 c3.82629-0.71924,7.63373-1.62445,11.40955-2.69348l0.1723,0.8363C9.04504,714.50232,5.23584,715.40448,1.40771,716.12305z M638.58105,363.27734l0.20117,0.55176c-6.87427,0.79083-13.51495,2.32373-19.76801,4.47357 c0.69354-0.44818,1.37811-0.90997,2.06354-1.37061C626.66742,365.20483,632.53503,363.95685,638.58105,363.27734z M556.11615,373.45306c10.21442-8.6098,23.72296-14.95593,38.62512-17.79535 C582.8623,363.59528,569.74988,369.63196,556.11615,373.45306z M609.35431,358.18536 c-12.95111,9.07129-27.48254,15.83691-42.62781,19.87671C577.57617,368.17786,592.64844,360.98273,609.35431,358.18536z M601.72894,365.49658c-4.66968,2.7569-9.49591,5.23853-14.44641,7.42261 C591.72339,370.05969,596.57123,367.56427,601.72894,365.49658z M623.71082,361.31824 c-4.04138,2.96429-8.24927,5.69812-12.59137,8.19067c-3.6485,1.59198-7.13354,3.39417-10.41199,5.39331 c-7.52997,3.4964-15.36768,6.28369-23.36725,8.32367C588.67108,372.06213,605.25885,364.01984,623.71082,361.31824z M601.17511,375.84052c3.56512-1.65625,7.06372-3.46411,10.47797-5.42432c1.79578-0.78003,3.62854-1.51208,5.50177-2.18378 c-1.09961,0.69336-2.20856,1.37079-3.32715,2.03241c-4.70679,1.94995-9.14282,4.26294-13.23352,6.88837 c-1.35638,0.61511-2.72192,1.20782-4.09656,1.7782C598.00385,377.8562,599.56409,376.82495,601.17511,375.84052z M601.04431,378.10327c4.54663-2.06244,8.98505-4.37274,13.28998-6.91748c7.26233-2.99554,15.17169-5.11395,23.43433-6.1662 c-0.70648,0.54254-1.41119,1.08655-2.1319,1.61713c-14.2818,10.51385-30.65375,18.15271-47.75232,22.33704 C591.651,384.94897,596.08759,381.29596,601.04431,378.10327z M661.43652,318.24121 c3.31543-7.06787,5.85156-14.53418,8.31348-21.78467c4.29004-12.63477,8.72559-25.69971,17.43848-36.56641 c12.21875-15.23975,32.83105-26.37012,61.2627-33.08154c29.3291-6.92334,60.3252-8.15186,90.30566-9.33984 c24.6709-0.97754,50.18164-1.98779,74.7998-6.11084c24.13379-4.0415,44.1875-16.44482,57.99414-35.86914 c11.75-16.53174,18.3916-37.35449,18.70117-58.63184c0.08984-6.22559-0.29102-12.56885-0.65918-18.70361 c-0.85938-14.29053-1.74707-29.06787,3.45312-42.49219c8.41309-21.72021,33.87695-38.49463,63.44727-41.83154l0.19629,0.54395 c-29.17578,3.36963-54.28418,20.00146-62.6084,41.53223c-5.17969,13.39893-4.28223,28.1626-3.41016,42.48242 c0.37207,6.13184,0.75781,12.47266,0.67188,18.6875c-0.29492,21.34229-6.94434,42.23291-18.72559,58.82471 c-13.90723,19.58496-34.15918,32.09619-58.56543,36.18066c-24.71973,4.13721-50.29492,5.14551-75.03711,6.12109 c-29.93164,1.18018-60.88184,2.40137-90.11426,9.29932c-28.23828,6.66357-48.69629,17.70654-60.80566,32.82227 c-8.64746,10.79346-13.06152,23.82129-17.33301,36.42676c-2.45605,7.24854-4.99609,14.74365-8.32715,21.85498 c-7.41949,15.83813-19.34357,30.35211-34.58649,42.15436l-0.35443-0.98706 C642.4325,348.11334,654.12604,333.8219,661.43652,318.24121z M627.19727,360.86621l0.59613-0.06494 c-0.87415,0.67609-1.75409,1.34741-2.64984,2.00537c-1.48499,1.09094-2.99951,2.14026-4.5274,3.16956 c-1.22876,0.3822-2.44666,0.78271-3.64728,1.21094c2.52393-1.60657,5.00201-3.28662,7.41492-5.05823 c0.48895-0.35907,0.96405-0.72986,1.44659-1.09442C626.28601,360.97833,626.73962,360.91577,627.19727,360.86621z M626.22559,359.35059l0.0191,0.05298c-0.27155,0.20941-0.54852,0.41437-0.8222,0.62201 c-7.45026,0.9408-14.62158,2.74487-21.30505,5.27338c0.87335-0.53412,1.73853-1.08167,2.59998-1.63513 C612.90283,361.5921,619.45435,360.11542,626.22559,359.35059z M613.02734,358.06641 c-2.21124,1.62024-4.47479,3.16742-6.77869,4.65057c-1.51758,0.51129-3.01404,1.05591-4.48529,1.63757 c3.39166-2.02905,6.69818-4.20361,9.90271-6.52307c0.66882-0.09491,1.34149-0.17773,2.01489-0.25842 C613.46136,357.73602,613.24823,357.90454,613.02734,358.06641z M649.34961,313.69336 c3.33594-7.04736,5.89453-14.49072,8.36914-21.68896c4.32422-12.58057,8.79688-25.58936,17.51562-36.41016 c12.23145-15.17773,32.7998-26.26904,61.13477-32.96533c29.22949-6.90723,60.09277-8.14551,89.94336-9.34326 c24.56152-0.98535,49.95996-2.00391,74.48926-6.12109c24.04199-4.03564,44.06152-16.39355,57.89355-35.7373 c11.77148-16.46436,18.47754-37.19922,18.88281-58.38525c0.11816-6.18213-0.23145-12.49414-0.57031-18.62549 c-0.78906-14.22998-1.60547-28.94434,3.63184-42.31201c8.47461-21.63184,33.90234-38.34766,63.35645-41.68555l0.19043,0.53711 c-29.0625,3.36816-54.13672,19.94189-62.52246,41.38623c-5.21777,13.34619-4.3916,28.04688-3.5918,42.26367 c0.34473,6.10742,0.7002,12.42285,0.58691,18.64795c-0.39062,21.24902-7.10547,42.05176-18.91016,58.57666 c-13.93164,19.50488-34.14844,31.97021-58.46289,36.04883c-24.63184,4.13184-50.09375,5.14795-74.72266,6.13086 c-29.80469,1.19043-60.62305,2.42139-89.75684,9.30371c-28.1416,6.64844-48.55566,17.65283-60.67578,32.70654 c-8.6543,10.74805-13.10352,23.7168-17.40918,36.26416c-2.47266,7.21143-5.03027,14.66797-8.38379,21.76416 c-7.5625,16.00018-19.73926,30.6402-35.28375,42.48773l-0.34521-0.97412 C629.9505,343.85681,641.89844,329.43707,649.34961,313.69336z M613.82971,356.22583l0.08923,0.25171 c-0.1712,0.01984-0.34045,0.04602-0.51141,0.06677C613.54877,356.43854,613.68903,356.33209,613.82971,356.22583z M612.20483,356.13544c-0.18384,0.13611-0.36188,0.2771-0.54663,0.41241c-0.12793,0.09369-0.2594,0.18231-0.38763,0.27551 c-8.03815,1.16254-15.73401,3.33539-22.815,6.33374c1.20868-0.69196,2.4054-1.40515,3.59326-2.13348 C598.40533,358.71106,605.1828,357.04553,612.20483,356.13544z M591.56714,360.08752 c-2.18475,0.79901-4.32446,1.66693-6.40381,2.61188c4.16034-2.28387,8.20868-4.78027,12.11432-7.48956 c0.70941-0.11493,1.41962-0.22784,2.13458-0.32672C596.85559,356.70605,594.24115,358.44592,591.56714,360.08752z M599.98145,353.29199c0.05066-0.03699,0.0993-0.07574,0.1499-0.11279c0.3313-0.0412,0.66034-0.08966,0.99268-0.12744 l0.16595,0.47418c-0.03174,0.02344-0.06262,0.04755-0.0943,0.07098c-0.6748,0.07935-1.34601,0.17059-2.01642,0.26404 C599.44537,353.66949,599.71674,353.48541,599.98145,353.29199z M624.65625,306.44824 c3.36914-6.99609,5.96973-14.38086,8.48438-21.52295c4.39844-12.48486,8.94531-25.39502,17.68457-36.13818 c12.26074-15.07031,32.75488-26.09229,60.91309-32.75928c29.04883-6.87793,59.66309-8.13086,89.26953-9.34277 c24.36426-0.99756,49.55762-2.02881,73.91113-6.13281c23.87402-4.02295,43.83496-16.30078,57.72559-35.50537 c11.82422-16.34863,18.66406-36.93164,19.26172-57.95703c0.1748-6.13184-0.11328-12.39258-0.39453-18.48438 c-0.65039-14.125-1.32422-28.73096,3.99316-42.00684c8.60547-21.48242,33.97363-38.09473,63.21094-41.43018l0.18066,0.5249 c-28.85059,3.36377-53.87109,19.83447-62.38574,41.12988c-5.29688,13.25-4.61328,27.84229-3.95215,41.95654 c0.28418,6.07129,0.57812,12.34912,0.4082,18.50928c-0.58398,21.08984-7.43555,41.74072-19.29004,58.14746 c-13.99414,19.36572-34.15137,31.75098-58.29395,35.81641c-24.45605,4.11816-49.71191,5.14746-74.13672,6.14258 c-29.56543,1.20459-60.1377,2.4502-89.09082,9.30322c-27.96484,6.62012-48.30566,17.55469-60.4541,32.50049 c-8.6748,10.67188-13.2002,23.54297-17.57715,35.99219c-2.5166,7.16162-5.11914,14.56738-8.50098,21.59814 c-7.80597,16.22955-20.38,31.05487-36.38928,42.95422l-0.0658-0.19104l-0.41797,0.0459 c-0.36951,0.04053-0.73553,0.09259-1.10382,0.13733C603.95697,337.81903,616.75348,322.85382,624.65625,306.44824z M585.82837,351.02765c0.67029-0.09534,1.34436-0.17853,2.01904-0.25989c-0.31537,0.22821-0.63574,0.44922-0.95294,0.67474 c-0.698,0.0946-1.39319,0.1972-2.08618,0.30701C585.15082,351.51251,585.48798,351.26776,585.82837,351.02765z M572.56445,349.8421 c-0.75085,0.11523-1.5,0.23547-2.24469,0.36835c0.37433-0.24927,0.75128-0.49432,1.12317-0.74738 c0.70062-0.11273,1.40259-0.22083,2.10834-0.31818C573.22119,349.37573,572.89655,349.6142,572.56445,349.8421z M519.47705,369.78027l-0.54346,0.09863l0.68115,2.90527l0.4917-0.08984c1.13287-0.20691,2.26312-0.43353,3.39172-0.67041 c-5.20929,5.3468-9.29242,11.33807-11.89465,17.76514c-5.44434,13.44824-4.8374,28.12402-4.24951,42.34277 c0.24854,6.01953,0.50537,12.24414,0.30371,18.32227c-0.68701,20.75195-7.52539,41.06348-19.25586,57.19336 c-13.76025,18.91895-33.46484,31.01758-56.9834,34.9873c-12.83435,2.16608-25.90375,3.47021-38.96399,4.37036 c8.93457-0.82739,17.84711-1.90961,26.66272-3.39868c24.26758-4.09863,44.6167-16.56348,58.84766-36.04492 c12.03906-16.48145,19.10205-37.21777,19.88672-58.39062c0.22852-6.16406-0.00537-12.4248-0.23193-18.48633 c-0.51904-13.91699-1.05566-28.30859,4.23975-41.27344c3.23553-7.922,8.80579-15.16205,16.02002-21.2774 c6.02332-1.60724,11.95624-3.64044,17.74323-6.07007c-2.77161,1.83032-5.38397,3.80029-7.81116,5.89618 C525.0484,368.65521,522.26965,369.27008,519.47705,369.78027z M526.13953,369.44659 c-0.42938,0.3952-0.8479,0.79712-1.26434,1.20038c-1.48511,0.33093-2.97302,0.64471-4.466,0.92334l-0.20068-0.85742 C522.19305,370.34155,524.16931,369.91101,526.13953,369.44659z M506.89844,367.5625l-0.54053,0.09863l0.6665,2.90039 l0.49414-0.09082c1.48572-0.27161,2.96686-0.57751,4.44531-0.90076c-5.74658,5.60846-10.2309,11.97461-13.03711,18.83337 c-5.48682,13.41016-4.95215,28.04688-4.43457,42.2041c0.21973,6.01074,0.44727,12.22559,0.21729,18.29785 c-0.78271,20.69434-7.69092,40.95117-19.45312,57.03809c-13.7959,18.86914-33.48242,30.9375-56.93018,34.90234 c-6.15125,1.03967-12.35681,1.87982-18.58881,2.57397c2.09607-0.30957,4.18939-0.6322,6.27582-0.98511 c24.19971-4.09277,44.53369-16.52832,58.8042-35.96484c12.07422-16.44434,19.20947-37.13379,20.09131-58.25586 c0.25684-6.15527,0.05322-12.39844-0.14404-18.4375c-0.45166-13.8877-0.91895-28.24805,4.42041-41.1875 c3.47327-8.41785,9.58264-16.06348,17.49207-22.40509c5.91132-1.65082,11.73566-3.70337,17.41248-6.14783 c-2.60443,1.65723-5.07465,3.4361-7.39276,5.32532C513.45233,366.21887,510.18433,366.96136,506.89844,367.5625z M514.83319,366.9325c-0.461,0.40216-0.92041,0.8053-1.3678,1.21643c-1.87488,0.43628-3.7547,0.84418-5.64215,1.19678 l-0.19531-0.84961C510.03973,368.04419,512.44269,367.52191,514.83319,366.9325z M481.646,429.70508 c0.18994,5.99219,0.38623,12.18945,0.12891,18.23926c-0.87695,20.64648-7.85645,40.85645-19.65234,56.90723 c-13.83545,18.82617-33.50781,30.86816-56.89062,34.82617c-2.08368,0.35266-4.17535,0.67493-6.2702,0.98401 c21.49469-5.02057,39.64795-16.9035,52.75214-34.6637c12.11035-16.41309,19.31885-37.0625,20.29785-58.14453 c0.28418-6.14062,0.11133-12.37402-0.05615-18.40234c-0.38525-13.8623-0.7832-28.19629,4.59912-41.11328 c3.4483-8.27472,9.44427-15.79962,17.1825-22.07275l0.61877,2.74854l0.49658-0.09082 c1.86493-0.34137,3.72278-0.7373,5.57623-1.16003c-6.27106,5.84192-11.16235,12.55109-14.16559,19.81726 C480.73193,400.96191,481.19629,415.56543,481.646,429.70508z M421.77393,434.23242 c-0.12451-13.82324-0.25293-28.11816,5.31055-40.99805c3.98773-9.2312,11.10651-17.5271,20.24017-24.18024 c2.26892-0.47784,4.52881-1.02228,6.77899-1.62115c-7.92456,6.45331-14.11127,14.17035-17.74963,22.65002 c-5.71387,13.31836-5.52686,27.85547-5.34619,41.91309c0.07666,5.96973,0.15625,12.14258-0.21094,18.16992 c-1.25098,20.55078-8.52344,40.66309-20.47705,56.63379c-11.02368,14.72662-25.54626,25.25739-42.51172,31.00763 c12.67108-6.30298,23.68835-15.48016,32.53418-27.26251c12.28027-16.35547,19.79053-36.93945,21.14795-57.95801 C421.88525,446.45605,421.82861,440.24414,421.77393,434.23242z M461.38867,362.16534 c-2.12714,0.71454-4.26959,1.36707-6.42157,1.97076c4.48602-2.54053,9.31171-4.71814,14.37927-6.47583 C466.58276,359.039,463.92303,360.54297,461.38867,362.16534z M477.112,355.35254c0.55145-0.13776,1.10217-0.27722,1.65778-0.40503 c-3.97473,1.98029-8.03674,3.75452-12.15936,5.33105C469.94653,358.43689,473.45642,356.78418,477.112,355.35254z M551.24609,348.32227l0.64453-0.07129l-0.84082-2.5498l-0.42285,0.04688c-0.44092,0.04865-0.87823,0.11011-1.3175,0.16479 c0.50311-0.35443,1.01147-0.70111,1.50989-1.06226c16.59473-12.02539,29.68652-27.14355,37.86035-43.72119 c3.45898-7.01758,6.1416-14.38672,8.74121-21.53027c4.46191-12.25537,9.0752-24.92822,17.67871-35.37109 c12.06543-14.64453,32.13379-25.37988,59.64746-31.90723c10.96082-2.60034,22.15277-4.38428,33.43048-5.66919 c-7.30194,1.09735-14.55249,2.45087-21.71368,4.14917c-28.23145,6.69531-48.85938,17.77979-61.31152,32.94629 c-8.88477,10.82471-13.54297,23.74268-18.05078,36.24609c-2.54883,7.06934-5.18457,14.37891-8.56152,21.27441 c-7.93066,16.19238-20.69043,30.96973-36.90137,42.73438c-1.65533,1.20117-3.34399,2.35388-5.0506,3.47809 c-6.03882,1.10419-11.87286,2.76532-17.37976,4.9165c1.66217-0.96863,3.30927-1.96442,4.93164-3.00183 C546.47949,348.95062,548.84882,348.58643,551.24609,348.32227z M546.354,347.93896c0.36224-0.24139,0.72845-0.4765,1.08844-0.72137 c0.9549-0.13953,1.91351-0.26703,2.87689-0.37775l0.16797,0.51074C549.09955,347.51331,547.72333,347.71582,546.354,347.93896z M556.99548,348.47076c0.74347-0.13409,1.4906-0.25708,2.24011-0.37378c-0.36389,0.24628-0.73151,0.48663-1.09766,0.72931 c-0.78912,0.13629-1.57367,0.28497-2.35553,0.44073C556.18951,349.00592,556.59113,348.73627,556.99548,348.47076z M521.42841,364.02655c-0.70966,0.21613-1.4234,0.41443-2.13593,0.61841c9.64941-7.34296,21.72278-12.83606,34.90393-15.62494 c-0.47772,0.3006-0.95483,0.60211-1.4361,0.89661C541.0423,352.65771,530.27887,357.5752,521.42841,364.02655z M549.54053,351.8266 c-7.87842,4.5296-16.18402,8.26709-24.73541,11.12128C532.06708,358.13153,540.47314,354.32098,549.54053,351.8266z M510.85144,361.81433c-0.80511,0.25995-1.60999,0.52087-2.41895,0.76514c8.83148-6.31573,19.49872-11.13824,31.08606-13.85681 c-0.57953,0.35077-1.1673,0.68671-1.75171,1.02869C527.85492,352.34277,518.68262,356.49799,510.85144,361.81433z M533.81683,351.97864c-6.08575,3.29578-12.40344,6.12286-18.87384,8.44464 C520.68097,356.9574,527.04535,354.09937,533.81683,351.97864z M511.28772,362.77716 c9.31964-3.01807,18.36627-7.07043,26.90637-12.05731c0.98669-0.2558,1.98279-0.49139,2.98358-0.71552 c-10.11652,6.1828-20.99243,11.04742-32.22571,14.42548C509.71472,363.86603,510.49603,363.31726,511.28772,362.77716z M543.74286,348.40247c-0.86395,0.16608-1.72321,0.34387-2.57794,0.53339c0.46735-0.28888,0.93433-0.57843,1.39832-0.87292 c0.789-0.1579,1.58051-0.30939,2.37683-0.44763C544.54071,347.87738,544.14478,348.14459,543.74286,348.40247z M542.16681,347.07159 c-1.01672,0.20569-2.0257,0.43054-3.02948,0.66791l-0.72034-2.21802l-0.4248,0.04688 c-0.8772,0.09692-1.75073,0.20758-2.62128,0.32837c0.8902-0.61273,1.77747-1.22992,2.6535-1.86353 c16.59668-12.00293,29.71191-27.09082,37.93066-43.63232c3.47949-7.00244,6.18555-14.35547,8.81055-21.4873 c4.50293-12.23096,9.1582-24.87891,17.78125-35.30127c12.09082-14.6167,32.1416-25.33252,59.59473-31.84961 c6.08466-1.44434,12.24207-2.62549,18.44208-3.62115c-2.24274,0.4646-4.48071,0.94916-6.7077,1.4776 c-28.16211,6.68311-48.76758,17.74414-61.24414,32.87598c-8.90234,10.79736-13.60156,23.68457-18.15332,36.16895 c-2.57129,7.04834-5.22949,14.33691-8.62402,21.2124c-7.97363,16.15186-20.75488,30.89404-36.96191,42.63232 C546.69672,344.09918,544.45087,345.61694,542.16681,347.07159z M537.68262,346.66113l0.16406,0.50684 c-1.89685,0.22266-3.77655,0.5069-5.63843,0.84216c0.37164-0.24115,0.7392-0.48883,1.10858-0.73358 C534.76276,347.04114,536.21667,346.82983,537.68262,346.66113z M536.50232,348.40228 c-3.74414,0.99902-7.3819,2.21753-10.88617,3.63171c1.39117-0.79749,2.76648-1.6236,4.1308-2.46906 C531.97009,349.09735,534.22314,348.70697,536.50232,348.40228z M494.48926,362.07562 c-3.58307,1.04523-7.19934,1.93555-10.83728,2.66608c0.22534-0.16718,0.45715-0.32916,0.68506-0.49432 c5.30823-1.62329,10.53479-3.5871,15.64496-5.85474C498.08154,359.55756,496.24896,360.78711,494.48926,362.07562z M497.14423,362.37811c-0.71222,0.50116-1.41077,1.01337-2.09906,1.53375c-0.66998,0.19495-1.33917,0.39307-2.01141,0.57739 c0.62537-0.49188,1.26099-0.97589,1.90723-1.45178C495.67639,362.82196,496.41174,362.60645,497.14423,362.37811z M468.84375,429.38086c0.16113,5.97949,0.32764,12.16211,0.04199,18.19922c-0.97168,20.60742-8.02295,40.78027-19.85449,56.80078 c-13.87744,18.79004-33.54004,30.80957-56.86279,34.76172c-0.11493,0.01947-0.23053,0.03638-0.34546,0.05573 c18.88867-5.69641,34.93518-16.9527,46.86108-33.03912c12.14941-16.38867,19.43213-37.00781,20.50732-58.05957 c0.31201-6.13086,0.16895-12.35547,0.03027-18.37793c-0.31836-13.84277-0.64746-28.15723,4.77881-41.05469 c3.48553-8.28479,9.51953-15.81683,17.29156-22.09064l0.3476,1.57599l0.49854-0.0918c2.24414-0.41125,4.4801-0.8905,6.70758-1.41968 c-6.75409,6.03851-12.01666,13.05475-15.20172,20.6853C468.06836,400.68262,468.4624,415.25977,468.84375,429.38086z M434.10156,432.10547c-0.18848-13.8252-0.38281-28.12109,5.13428-41.00195c3.6947-8.62531,10.13507-16.43359,18.40674-22.85065 c2.69177-0.51489,5.37268-1.11859,8.03979-1.80359c-7.5954,6.34497-13.51544,13.87213-17.02222,22.11713 c-5.66748,13.32715-5.4126,27.87012-5.16553,41.94727c0.10449,5.96875,0.2124,12.14062-0.12744,18.16602 c-1.15869,20.55957-8.35645,40.68262-20.26807,56.66406c-12.00208,16.10205-28.21155,27.20166-47.26282,32.51202 c14.64423-6.28082,27.25726-16.23071,37.13245-29.43585c12.23389-16.35938,19.66797-36.94531,20.93213-57.96484 C434.26904,444.3291,434.18359,438.11523,434.10156,432.10547z M456.8537,366.66638c0.63062-0.18225,1.2627-0.35718,1.8913-0.54877 c-0.51971,0.37976-1.03119,0.76587-1.53778,1.15607c-0.07214,0.01367-0.14386,0.03015-0.216,0.0437L456.8537,366.66638z M423.94189,505.97168c12.03271-16.14453,19.3042-36.4707,20.47412-57.2334c0.34229-6.06348,0.23389-12.25488,0.12891-18.25586 c-0.24512-13.9541-0.49805-28.38379,5.08203-41.50391c3.71399-8.7326,10.18707-16.64911,18.51556-23.17786 c0.0907-0.02515,0.18073-0.05304,0.27136-0.07837l0.15314,0.70972c-8.07593,6.42908-14.35297,14.19305-17.98303,22.7428 c-5.55957,13.09277-5.2959,27.50879-5.04102,41.44922c0.10986,5.99609,0.22363,12.19629-0.11426,18.28125 c-1.15869,20.82715-8.44385,41.22266-20.51221,57.42969c-12.46033,16.73224-29.39368,28.19299-49.34619,33.49652 c-2.71716,0.42584-5.44342,0.81323-8.17621,1.16986c0.31494-0.1001,0.62122-0.21704,0.93457-0.32025 C390.98773,536.37482,410.19232,524.41748,423.94189,505.97168z M375.78339,540.86072 c1.18726-0.18628,2.37415-0.3739,3.55792-0.57458c23.54004-3.99121,43.42871-16.13574,57.51562-35.11816 c11.99219-16.16211,19.18945-36.50879,20.26562-57.29199c0.31494-6.07812,0.17725-12.27832,0.04395-18.27441 c-0.31104-13.9668-0.63281-28.40918,4.90137-41.54199c3.54767-8.41803,9.66919-16.07672,17.55029-22.46918 c0.63055-0.16809,1.25977-0.34192,1.88843-0.51929c-0.05371,0.04205-0.1087,0.08307-0.16223,0.12518l-0.3429,0.0625l0.03809,0.17267 c-8.10663,6.44788-14.39539,14.24133-18.00781,22.82733c-5.51318,13.10547-5.18164,27.5332-4.86084,41.48926 c0.13867,6.00098,0.28125,12.20605-0.0293,18.29883c-1.06445,20.84668-8.27441,41.2627-20.30127,57.4873 c-14.19434,19.14551-34.28076,31.39746-58.08887,35.43164c-0.12958,0.02197-0.25989,0.04108-0.38953,0.06287 c-2.8017,0.35699-5.61023,0.67932-8.42322,0.97418C372.5708,541.65839,374.18866,541.28345,375.78339,540.86072z M479.14948,364.62494c-3.07257,0.81396-6.16449,1.52606-9.27173,2.11261c0.51508-0.40051,1.03333-0.79871,1.5625-1.18829 c3.1709-0.64539,6.32648-1.40552,9.45758-2.28906C480.30652,363.70874,479.72296,364.16296,479.14948,364.62494z M481.77625,363.90155c0.6778-0.50977,1.36603-1.01111,2.06659-1.50256c0.8266-0.25391,1.64874-0.52612,2.47131-0.79633 c-0.82391,0.54767-1.63147,1.10938-2.42609,1.68207C483.18597,363.4986,482.48096,363.69946,481.77625,363.90155z M482.44727,366.93457l-0.18555-0.83984c3.33221-0.62537,6.64703-1.39392,9.93793-2.28223 c-0.54584,0.43207-1.07971,0.87286-1.60925,1.31665C487.88959,365.81494,485.17456,366.42377,482.44727,366.93457z M487.32367,362.18646c1.11462-0.73016,2.25769-1.43408,3.42279-2.11627c5.83179-2.14178,11.54144-4.69177,17.06879-7.62433 c1.33099-0.43182,2.6803-0.82941,4.04175-1.20245C504.02325,355.69122,495.7851,359.36108,487.32367,362.18646z M524.71057,349.08698c-0.67639,0.39313-1.35419,0.7832-2.03674,1.16449c-8.05627,2.34851-15.57977,5.7373-22.23608,9.93903 c-0.90216,0.30963-1.80743,0.60663-2.71478,0.89655C505.59607,355.8028,514.78967,351.66992,524.71057,349.08698z M517.20081,353.15283c-3.64502,1.82568-7.36401,3.48505-11.14087,4.97174 C509.58862,356.23767,513.31714,354.57269,517.20081,353.15283z M500.85498,361.16003 c7.65613-2.63281,15.11493-5.96857,22.24652-9.94574c1.11292-0.32227,2.23938-0.61707,3.37177-0.89874 c-8.99005,5.29126-18.54114,9.55536-28.3833,12.67297C498.99158,362.36151,499.91675,361.75488,500.85498,361.16003z M529.35437,348.57245c-0.92896,0.19739-1.85168,0.40961-2.76929,0.63409c0.51678-0.30817,1.03082-0.62054,1.5437-0.93555 c0.84717-0.18713,1.69867-0.36304,2.55475-0.5274C530.2431,348.02429,529.79785,348.29681,529.35437,348.57245z M527.72955,347.28119c-0.44165,0.09851-0.88141,0.20105-1.32056,0.30554l-0.53546-1.6795l-0.42725,0.04688 c-1.31598,0.14551-2.62195,0.32758-3.92267,0.52661c1.24579-0.83966,2.48254-1.69342,3.70148-2.57349 c16.59619-11.98145,29.73877-27.04492,38.0083-43.56152c3.50098-6.99365,6.2334-14.33691,8.87988-21.44873 c4.54297-12.21387,9.24219-24.84375,17.88672-35.25293c12.12109-14.59521,32.16016-25.29492,59.55762-31.80127 c2.03473-0.48315,4.07898-0.93109,6.12817-1.35999c-25.24762,6.77069-43.93817,17.31653-55.59595,31.39661 c-8.9209,10.77637-13.66309,23.6377-18.25,36.07568c-2.59375,7.03711-5.27637,14.31396-8.69824,21.19189 c-8.02051,16.11963-20.8252,30.83252-37.03027,42.54834C533.38721,343.66455,530.5863,345.5213,527.72955,347.28119z M525.13428,347.04688l0.16113,0.50586c-2.41046,0.2829-4.79327,0.66644-7.14624,1.13074 c0.41217-0.26086,0.82361-0.52258,1.23309-0.78784C521.2818,347.5567,523.19934,347.26984,525.13428,347.04688z M519.55524,349.48676c-2.362,0.75348-4.67255,1.59875-6.92957,2.52191c0.97473-0.55609,1.9455-1.11981,2.90741-1.69952 C516.86157,350.0036,518.20453,349.73456,519.55524,349.48676z M515.12549,349.32855c-1.034,0.24005-2.06097,0.49628-3.08008,0.7699 c0.30383-0.17499,0.60529-0.35431,0.90784-0.53168c0.21979-0.02588,0.43787-0.05811,0.65808-0.0824l0.63477-0.07031 l-0.13232-0.42218c0.80261-0.1911,1.61011-0.37036,2.42114-0.54102C516.0647,348.74274,515.599,349.04248,515.12549,349.32855z M513.76392,347.87604l-0.31567-1.0069l-0.42969,0.04688c-1.72913,0.19122-3.44513,0.43323-5.14771,0.71686 c1.54285-1.02173,3.07318-2.06335,4.57593-3.14655c16.60303-11.96777,29.77686-27.01367,38.09619-43.51025 c3.52148-6.98438,6.2793-14.31885,8.94824-21.41797c4.58691-12.20361,9.33008-24.82227,17.99902-35.22119 c11.57593-13.8869,30.31384-24.2334,55.70129-30.80078c-20.22559,6.72345-35.54333,16.23206-45.63684,28.37549 c-8.94336,10.76123-13.72852,23.60205-18.35547,36.01953c-2.62012,7.03076-5.33008,14.30078-8.76855,21.15869 c-8.06836,16.0957-20.90039,30.78516-37.1084,42.48145C520.22284,343.80804,517.03149,345.91052,513.76392,347.87604z M512.70459,348.00879l0.07275,0.23206c-0.71698,0.17981-1.4295,0.36896-2.13916,0.5647 c-2.14807,0.3053-4.27313,0.68671-6.37238,1.13647c0.44476-0.27545,0.89136-0.54761,1.33325-0.82812 C507.93976,348.66028,510.30884,348.28491,512.70459,348.00879z M509.92804,350.09229 c-0.83643,0.46716-1.67401,0.93225-2.51929,1.38147c-6.08344,1.98138-11.83057,4.56396-17.09589,7.63818 c-1.06927,0.39203-2.14374,0.76648-3.22083,1.13068C493.91956,355.93439,501.6507,352.4715,509.92804,350.09229z M497.56665,351.63605c0.08533-0.04749,0.17139-0.09326,0.25659-0.14093c0.18182-0.02722,0.36249-0.05811,0.54462-0.08429 C498.10114,351.48657,497.83228,351.55804,497.56665,351.63605z M500.29022,352.31848 c0.35608-0.20465,0.70978-0.41357,1.06415-0.6214c0.47186-0.11847,0.94434-0.23541,1.41931-0.34662 C501.93866,351.66223,501.11084,351.9848,500.29022,352.31848z M501.73798,350.2561l-0.08966-0.29108 c0.31555-0.07532,0.63171-0.14899,0.94855-0.22119C502.31171,349.91675,502.02429,350.08527,501.73798,350.2561z M501.02441,348.43127l-0.28516,0.03162c-2.11749,0.23413-4.21466,0.54736-6.29199,0.92004 c1.78064-1.16278,3.54254-2.35657,5.271-3.60071c16.61426-11.95801,29.8208-26.99219,38.19287-43.47705 c3.54883-6.99023,6.33008-14.31787,9.02246-21.40967c4.63086-12.19385,9.41797-24.80273,18.11035-35.19385 c10.24945-12.25195,26.06342-21.73999,47.06812-28.31134c-16.00635,6.4245-28.42047,14.86188-37.0564,25.2132 c-8.96875,10.75146-13.79688,23.57666-18.46582,35.97949c-2.64551,7.02246-5.37988,14.28369-8.83887,21.13525 c-8.11816,16.07666-20.98047,30.74951-37.1958,42.43311C507.46356,344.37872,504.28156,346.47314,501.02441,348.43127z M497.6947,349.91272c-1.35272,0.38184-2.69086,0.79248-4.01428,1.23071c-1.01746,0.19836-2.02985,0.4104-3.03485,0.64154 c0.46985-0.28589,0.93579-0.5788,1.40247-0.8703C493.9115,350.52637,495.79382,350.18878,497.6947,349.91272z M493.93994,352.15948 c0.24371-0.0473,0.48901-0.08997,0.73346-0.13531c-1.05353,0.55975-2.11456,1.10364-3.18097,1.63525 c-3.68195,1.36823-7.23035,2.95142-10.6004,4.73853c-1.39111,0.55188-2.79193,1.07275-4.19745,1.57715 C481.99933,356.83685,487.79877,354.19672,493.93994,352.15948z M497.19391,352.84778 c-6.58771,3.604-13.44086,6.6651-20.46008,9.14087c1.49432-0.92151,3.02881-1.80396,4.60498-2.64062 c3.59406-1.4278,7.138-3.00854,10.61572-4.742C493.67224,353.97046,495.41949,353.38348,497.19391,352.84778z M487.11304,358.99658 c-1.26758,0.78552-2.50867,1.59583-3.71411,2.43719c-2.74359,0.8396-5.50909,1.58124-8.28851,2.23676 C479.17004,362.30756,483.17462,360.73987,487.11304,358.99658z M472.78424,363.315 c-0.75421,0.2403-1.50916,0.47583-2.26654,0.70264c0.76904-0.55591,1.55194-1.09998,2.34833-1.63269 c0.9035-0.29126,1.80511-0.58917,2.70355-0.89996C474.62439,362.07971,473.69379,362.68805,472.78424,363.315z M472.42908,361.42188 c-0.93195,0.29956-1.86536,0.59198-2.80219,0.87042c1.37073-0.54688,2.73187-1.12189,4.08722-1.71313 C473.28113,360.8559,472.85474,361.13837,472.42908,361.42188z M477.2597,366.20007 c-7.19763,6.20557-12.80627,13.4939-16.15961,21.45129c-5.62207,13.33984-5.29785,27.89648-4.98438,41.97363 c0.13281,5.97656,0.27051,12.15723-0.04199,18.19629c-1.06641,20.5791-8.19043,40.72266-20.06055,56.71973 c-12.98816,17.50275-30.97076,29.11615-52.21613,33.80072c16.7403-6.07764,31.04938-16.7251,41.96222-31.37982 c12.19043-16.37012,19.54834-36.96777,20.71826-57.99805c0.34033-6.12402,0.22607-12.34375,0.11621-18.35938 c-0.25293-13.83008-0.51465-28.13184,4.95703-41.01953c3.5022-8.24786,9.52466-15.74823,17.26447-22.0025l0.08759,0.40582 l0.50098-0.0918C472.03345,367.41437,474.65302,366.84436,477.2597,366.20007z M467.67633,364.84222 c-2.67914,0.73828-5.37592,1.38306-8.08325,1.94849c0.5882-0.42633,1.18304-0.84711,1.7876-1.25958 c2.75391-0.62134,5.49347-1.33618,8.21509-2.13751C468.94562,363.86835,468.30615,364.35156,467.67633,364.84222z M461.68323,364.0722c-0.81427,0.27075-1.63019,0.53479-2.4483,0.78967c0.84662-0.5918,1.70923-1.16974,2.5871-1.73395 c1.0354-0.34869,2.06635-0.7149,3.09485-1.08923C463.81696,362.69537,462.7384,363.37292,461.68323,364.0722z M458.27045,364.26917 c-0.54504,0.38568-1.08624,0.77429-1.6178,1.17102c-0.18585,0.03497-0.37097,0.07648-0.55695,0.1106l-0.53076,0.09766 l0.05988,0.28351c-2.00299,0.56305-4.01611,1.07123-6.03571,1.53784c0.69232-0.46735,1.39502-0.92493,2.1076-1.37372 C453.8985,365.54413,456.091,364.93646,458.27045,364.26917z M411.16064,507.42871 c12.07568-16.13281,19.42188-36.44629,20.68506-57.19824c0.36914-6.06738,0.28955-12.25977,0.21289-18.24805 c-0.17969-13.94824-0.36523-28.37109,5.26123-41.48535c3.74817-8.73535,10.24963-16.65302,18.59729-23.1806l0.1745,0.82654 c-7.97736,6.38922-14.19531,14.08093-17.82159,22.54645c-5.60498,13.08594-5.40869,27.49512-5.21924,41.42969 c0.08203,5.99121,0.16699,12.18555-0.19873,18.27344c-1.25195,20.81641-8.6123,41.20117-20.7251,57.39844 c-11.38007,15.21753-26.44379,26.05292-44.07654,31.87463c-0.59998,0.11353-1.19214,0.24445-1.797,0.34705 c-1.53864,0.26099-3.08069,0.50854-4.62537,0.7453C381.60779,535.58905,398.61798,524.18536,411.16064,507.42871z M379.50183,542.06964c4.29871-0.54797,8.58301-1.17023,12.84241-1.89191c23.5957-3.99707,43.49023-16.16016,57.53223-35.17188 c11.95361-16.18652,19.07764-36.56348,20.05908-57.37695c0.28711-6.0752,0.12012-12.27734-0.04248-18.2998 c-0.37744-13.98633-0.76807-28.44922,4.7207-41.59863c3.36249-8.05542,9.0827-15.41882,16.45599-21.64301 c0.60199-0.15393,1.20477-0.30402,1.80511-0.46649c-7.77649,6.34998-13.80688,13.95435-17.28992,22.31262 c-5.46924,13.125-5.06787,27.57422-4.67969,41.54688c0.16699,6.00879,0.33936,12.22266,0.05664,18.32422 c-0.96924,20.87695-8.10547,41.32227-20.09375,57.57031c-14.14795,19.1748-34.24023,31.44531-58.104,35.48633 c-6.41345,1.08575-12.87952,1.95154-19.36841,2.66345c-2.73352,0.2229-5.46826,0.42157-8.20227,0.60559 C369.9812,543.5448,374.75452,542.86688,379.50183,542.06964z M495.15918,367.79785l-0.18994-0.84473 c2.87158-0.53845,5.72882-1.18793,8.56995-1.92157c-0.50903,0.42194-1.01013,0.84918-1.50385,1.28162 C499.75287,366.86823,497.46039,367.36731,495.15918,367.79785z M494.24219,366.01953l-0.26453,0.04846 c0.50476-0.40558,1.01898-0.80396,1.53821-1.19873c5.70215-1.66803,11.31702-3.71539,16.7948-6.12378 c-2.35553,1.45709-4.60449,3.01398-6.7373,4.65985C501.82648,364.4455,498.04517,365.323,494.24219,366.01953z M506.02618,364.37305 c0.69037-0.19263,1.37756-0.39972,2.06543-0.6037c-0.64557,0.48114-1.28058,0.97028-1.90472,1.46771 c-0.61371,0.17029-1.23071,0.3244-1.84625,0.48578C504.8938,365.26654,505.45526,364.81647,506.02618,364.37305z M517.17419,366.32068c0.63806-0.16974,1.27588-0.33948,1.91187-0.51886c-0.56622,0.448-1.12195,0.9035-1.67004,1.36444 c-0.60138,0.15948-1.20227,0.32129-1.8053,0.47223C516.12292,367.19305,516.64526,366.7547,517.17419,366.32068z M519.91022,366.4801c0.64526-0.50726,1.3028-1.00525,1.97101-1.49506c10.90356-3.33405,21.45648-8.08356,31.28656-14.08319 c0.88342-0.20471,1.77185-0.39783,2.66571-0.57739C544.65778,357.41577,532.49786,362.88019,519.91022,366.4801z M558.53619,349.82208c1.78699-0.30408,3.59143-0.55853,5.41107-0.75861l0.64746-0.07129l-0.85547-2.55273l-0.34912,0.03809 c0.06183-0.04474,0.12531-0.08704,0.18701-0.13184c16.60254-12.05469,29.67285-27.20996,37.79883-43.82568 c3.43945-7.0332,6.09766-14.41846,8.67285-21.57227c4.42188-12.2876,8.99414-24.99365,17.58398-35.46582 c12.04004-14.67822,32.13086-25.43604,59.71289-31.97559c17.5993-4.17242,35.79919-6.2525,54.00122-7.51953 c-14.26904,1.33075-28.47101,3.32733-42.33325,6.6123c-28.30664,6.70801-48.96094,17.82031-61.3916,33.02783 c-8.87109,10.85547-13.4873,23.80908-17.9541,36.34424c-2.52734,7.09033-5.14062,14.42188-8.5,21.33838 c-7.88672,16.23828-20.62891,31.05664-36.84766,42.85254c-1.07544,0.7821-2.16364,1.54584-3.26123,2.29547 c-6.21552,1.01514-12.22253,2.6264-17.89972,4.74725C554.97693,352.11981,556.76831,350.98993,558.53619,349.82208z M560.62097,348.4295c0.31708-0.21783,0.62811-0.44458,0.94348-0.66504c0.4826-0.06293,0.9635-0.13171,1.44824-0.18732 l0.17285,0.51465C562.32715,348.19226,561.47247,348.30591,560.62097,348.4295z M574.83472,349.52417 c0.3017-0.21368,0.6059-0.42371,0.90588-0.63983l0.16956,0.49847C575.55017,349.42487,575.19354,349.47803,574.83472,349.52417z M861.8623,198.14941c23.79492-4.01709,43.73242-16.26025,57.65723-35.40576c11.85254-16.29736,18.76172-36.81641,19.45703-57.77637 c0.20215-6.12402-0.05566-12.37598-0.30664-18.43457c-0.58105-14.0791-1.18262-28.6377,4.17578-41.87061 c8.67188-21.41895,34.01855-37.9873,63.15527-41.32031l0.17676,0.51855c-28.75586,3.35938-53.75391,19.78662-62.33594,41.02051 c-5.33887,13.21143-4.72754,27.75928-4.13477,41.82812c0.25488,6.05322,0.51855,12.3125,0.31934,18.45117 c-0.67969,21.02197-7.59961,41.60791-19.48535,57.96729c-14.02832,19.30615-34.16309,31.65674-58.22754,35.7168 c-24.37598,4.11182-49.53711,5.14502-73.86914,6.14404c-29.45312,1.20898-59.91016,2.45898-88.78125,9.29883 c-27.88574,6.60645-48.19434,17.51123-60.3623,32.41113c-8.68652,10.63721-13.25,23.46484-17.67285,35.89746 c-2.53809,7.13281-5.16211,14.50879-8.55664,21.50781c-8.00684,16.50879-20.94629,31.57129-37.41992,43.55762 c-0.0899,0.06543-0.18231,0.1272-0.27234,0.19238c-0.66278,0.07751-1.32513,0.15637-1.98383,0.24738 c0.5141-0.3631,1.0332-0.71893,1.5423-1.08917c16.3584-11.89648,29.21289-26.85059,37.17578-43.24316 c3.38477-6.96826,6.00781-14.32764,8.54785-21.45264c4.43359-12.44287,9.01855-25.30908,17.77539-36.02393 c12.28027-15.0249,32.74316-26.0166,60.81934-32.67041c28.96387-6.86377,59.46289-8.12158,88.96973-9.33887 C812.49512,203.28174,837.58984,202.24609,861.8623,198.14941z M967.95117,1.13965l0.16406,0.50732 c-28.50098,3.34473-53.47168,19.67041-62.2627,40.76514c-5.46875,13.125-5.06738,27.57422-4.67969,41.54736 c0.16699,6.0083,0.33984,12.22119,0.05762,18.32422c-0.96973,20.87646-8.10547,41.32129-20.09473,57.56934 c-14.14844,19.1748-34.24023,31.4458-58.10352,35.48633c-6.41449,1.08588-12.8811,1.95172-19.36963,2.6637 c-2.7301,0.2226-5.46124,0.4212-8.19153,0.60498c4.78949-0.58569,9.56439-1.26379,14.31299-2.06122 c4.29413-0.54742,8.57367-1.16888,12.82825-1.88959c23.5957-3.99805,43.49023-16.16064,57.53223-35.17334 c11.9541-16.18604,19.07715-36.56299,20.05859-57.37598c0.28809-6.10205,0.12012-12.30322-0.04199-18.30029 c-0.37793-13.98682-0.76758-28.44922,4.7207-41.59912C913.76465,20.92871,939.0752,4.46191,967.95117,1.13965z M911.91309,84.1665 c0.19043,5.99463,0.3877,12.19336,0.13086,18.25586c-0.87891,20.64893-7.8584,40.85889-19.65332,56.9082 c-13.83496,18.82568-33.50781,30.86816-56.89062,34.82568c-2.08154,0.35223-4.17102,0.67413-6.26373,0.98291 c21.49127-5.02161,39.64185-16.90424,52.74518-34.66211c12.11133-16.41357,19.31934-37.06299,20.29785-58.14453 c0.28516-6.14209,0.11133-12.37451-0.05566-18.40234c-0.38574-13.8623-0.7832-28.19678,4.59961-41.11377 c8.4975-20.39423,32.42749-36.25769,59.9494-39.93597c-23.38605,6.23883-42.71655,20.97162-50.24139,39.17719 C910.99902,55.44287,911.46387,70.04492,911.91309,84.1665z M889.48926,84.19971 c-0.31836-13.84277-0.64746-28.15674,4.7793-41.05469c8.1084-19.27197,29.97327-34.48907,55.56152-39.18188 c-21.37549,6.81635-38.80737,20.80725-45.91699,37.84058c-5.57617,13.35742-5.18262,27.93506-4.80273,42.03223 c0.16211,5.97803,0.33008,12.15918,0.04395,18.22217c-0.97168,20.6084-8.02344,40.78076-19.85547,56.80176 c-13.87695,18.78955-33.54004,30.80957-56.8623,34.76123c-0.11377,0.01929-0.22815,0.03607-0.34192,0.05518 c18.8877-5.69745,34.93268-16.95306,46.85754-33.03857c12.14941-16.38867,19.43164-37.00781,20.50684-58.05908 C889.77246,96.44727,889.62793,90.22266,889.48926,84.19971z M943.87988,3.9624l0.63477-0.06982l-0.13226-0.42212 c3.59631-0.85626,7.27765-1.51379,11.01996-1.94507l0.16113,0.50488c-28.43066,3.33838-53.40039,19.64062-62.26367,40.70752 c-5.51367,13.10498-5.18164,27.5332-4.86133,41.48926c0.13867,6.00049,0.28223,12.20557-0.02832,18.29785 c-1.06445,20.84668-8.27441,41.2627-20.30176,57.48682c-14.19434,19.146-34.28027,31.39844-58.08887,35.43262 c-0.12939,0.02191-0.25946,0.04102-0.38892,0.06274c-2.79987,0.35675-5.60657,0.67883-8.41779,0.97351 c1.6308-0.34436,3.24738-0.71924,4.84082-1.14172c1.18646-0.18622,2.37268-0.37366,3.55573-0.57422 c23.54102-3.9917,43.42871-16.13525,57.51562-35.11914c11.99219-16.1626,19.18945-36.50879,20.26562-57.29102 c0.31445-6.07812,0.17676-12.27832,0.04395-18.27881c-0.31055-13.96582-0.63184-28.40723,4.90137-41.53711 c7.43848-17.65155,26.16638-31.97833,48.80072-38.22968C942.04742,4.18036,942.96167,4.06378,943.87988,3.9624z M942.97266,2.4873 l0.07306,0.2323c-0.71667,0.17975-1.42883,0.36877-2.13812,0.56439c-2.98944,0.42493-5.93573,0.99432-8.82623,1.69617 l-0.1651-0.5365C935.52496,3.58179,939.21851,2.92004,942.97266,2.4873z M933.04688,5.82727 c-19.37787,7.23267-34.99634,20.44446-41.67969,36.3031c-5.62012,13.33691-5.2959,27.89258-4.9834,41.97314 c0.13281,5.97705,0.27051,12.15723-0.04199,18.19629c-1.06543,20.57812-8.18945,40.72168-20.06055,56.71973 c-12.98627,17.50085-30.966,29.11346-52.20898,33.79828c16.73712-6.07837,31.04346-16.72461,41.95508-31.37689 c12.19043-16.37158,19.54785-36.96924,20.71777-57.99902c0.34082-6.13672,0.22656-12.3501,0.11621-18.35889 c-0.25293-13.83057-0.51367-28.13232,4.95703-41.01953C889.52502,25.91357,909.40216,11.3623,933.04688,5.82727z M880.85156,43.65283c-5.55859,13.09326-5.29492,27.50879-5.04102,41.44971c0.11035,5.98926,0.22461,12.18311-0.11426,18.28076 c-1.1582,20.82666-8.44336,41.22217-20.51172,57.42969c-12.45929,16.73132-29.39093,28.19153-49.34137,33.4953 c-2.7182,0.42615-5.44556,0.81384-8.1795,1.17065c0.31238-0.0993,0.61615-0.21533,0.92694-0.31769 c22.66119-4.30579,41.86804-16.26312,55.61932-34.71155c12.0332-16.14404,19.30371-36.46973,20.47363-57.23193 c0.34277-6.0708,0.23438-12.26611,0.12988-18.2583c-0.24512-13.9541-0.49805-28.38281,5.08203-41.50244 c6.99341-16.44598,23.76178-30.0033,44.31915-36.82117c1.46521-0.28436,2.94226-0.53528,4.43042-0.7489 C906.53088,12.16534,888.22681,26.28308,880.85156,43.65283z M864.36914,86.58008 c-0.1875-13.82373-0.38184-28.11816,5.13574-40.99756c7.27338-16.98114,25.1673-30.81061,46.78961-37.04456 c-17.32623,7.4978-31.14246,19.8739-37.36578,34.50793c-5.66797,13.3252-5.41309,27.86768-5.16602,41.93311 c0.10449,5.97217,0.21289,12.14746-0.12793,18.1792c-1.1582,20.55957-8.35547,40.68262-20.2666,56.66357 c-12.00385,16.10315-28.21436,27.20367-47.26648,32.51312c14.64539-6.28101,27.25952-16.23132,37.13562-29.43695 c12.2334-16.36035,19.66699-36.9458,20.93164-57.96484C864.53613,98.81445,864.45117,92.59668,864.36914,86.58008z M841.42871,161.90723c12.07617-16.13281,19.42188-36.44629,20.68555-57.19873c0.36816-6.05225,0.29004-12.23242,0.21289-18.24805 c-0.17969-13.94775-0.36621-28.37061,5.26074-41.48486c8.81506-20.54565,32.83612-36.58527,60.37976-40.58551 c-1.35266,0.38171-2.69073,0.7923-4.0141,1.23041c-25.40704,4.95154-47.14417,20.23901-55.41547,39.54797 c-5.60449,13.08496-5.40918,27.49268-5.21973,41.42969c0.08203,5.99365,0.16699,12.19189-0.19824,18.27197 c-1.25195,20.81641-8.6123,41.20117-20.72461,57.39893c-11.38092,15.21808-26.44525,26.05371-44.07892,31.87506 c-0.59937,0.11334-1.19086,0.24414-1.7951,0.34662c-1.53766,0.2608-3.07867,0.50818-4.62231,0.74481 C811.87823,190.06592,828.88757,178.6626,841.42871,161.90723z M803.75555,199.05005 c10.70056-0.87262,21.38513-2.07477,31.92023-3.85767c23.65723-4.00439,43.56152-16.18994,57.56055-35.23975 c11.91797-16.21533,18.96973-36.63086,19.85645-57.48535c0.25977-6.10205,0.06152-12.32031-0.12891-18.33398 c-0.44629-14.01074-0.90723-28.49805,4.53809-41.67432c8.81152-21.31787,34.12793-37.81348,63.08496-41.14014l0.16797,0.51074 c-28.5791,3.3501-53.55371,19.7041-62.27344,40.8374c-5.4248,13.14795-4.9541,27.62305-4.49902,41.62305 c0.19629,6.01904,0.39941,12.24268,0.14453,18.3584c-0.87402,20.91602-7.93652,41.3999-19.88867,57.67773 c-14.10449,19.21094-34.20605,31.50439-58.13184,35.55127c-18.01794,3.04718-36.4472,4.401-54.64557,5.3075 c-2.04785,0.08679-4.09265,0.17242-6.12982,0.25696c-6.05072,0.2511-12.1449,0.5069-18.25885,0.80981 c-0.85333,0.03613-1.70923,0.07391-2.5639,0.11084c0.26953-0.02301,0.53894-0.0462,0.80841-0.06964 C771.3009,201.61658,787.59131,200.82288,803.75555,199.05005z M754.99908,200.55322 c3.01898-0.1283,6.04865-0.26117,9.08643-0.40338c-0.49487,0.03931-0.98987,0.07684-1.4848,0.11475 c-0.04327,0.00183-0.08673,0.0036-0.13,0.00543c-2.73926,0.1142-5.48944,0.23041-8.24408,0.34985 C754.48413,200.59784,754.74158,200.57568,754.99908,200.55322z M757.11871,203.30151 c1.88654-0.07977,3.76984-0.15808,5.64886-0.23608c6.20544-0.25751,12.46552-0.51819,18.75348-0.83136 c22.25751-0.9436,45.08807-2.12854,67.24847-5.87469c23.72266-4.01074,43.64258-16.22314,57.60352-35.31689 c11.88379-16.25391,18.86328-36.7168,19.6543-57.61865c0.23145-6.11816,0.00293-12.3501-0.2168-18.37646 c-0.51367-14.04297-1.04492-28.56348,4.35645-41.76807c8.74023-21.36377,34.07129-37.89258,63.11426-41.22363l0.17188,0.51465 c-28.66406,3.35547-53.64844,19.74365-62.29883,40.92236c-5.38086,13.17627-4.83984,27.68311-4.31445,41.75781 c0.22461,6.02441,0.45605,12.25439,0.22949,18.35986c-0.77637,20.96436-7.76758,41.49512-19.68457,57.81055 c-14.06543,19.25537-34.18164,31.5752-58.1748,35.62842c-24.30566,4.10547-49.37305,5.14111-73.61621,6.14258 c-29.34766,1.21191-59.69336,2.46484-88.49023,9.29199c-27.81152,6.59375-48.09375,17.47168-60.2832,32.33203 c-8.70508,10.61182-13.30762,23.40479-17.76367,35.78809c-2.56152,7.11523-5.20996,14.47266-8.62402,21.4541 c-8.05078,16.4624-21.00879,31.48291-37.47266,43.43799c-0.58844,0.42725-1.1875,0.83899-1.78253,1.25671 c-0.68365,0.091-1.36401,0.19196-2.04309,0.2973c1.05035-0.71826,2.09125-1.45081,3.12152-2.19855 c16.34863-11.86426,29.22168-26.77637,37.22754-43.12207c3.40234-6.94678,6.04785-14.28418,8.61035-21.39111 c4.47363-12.40869,9.10059-25.23975,17.87109-35.92432c12.30176-14.98486,32.73828-25.9502,60.74121-32.59082 C709.64746,206.38239,733.53571,204.47034,757.11871,203.30151z M707.61725,204.94482 c1.36853-0.05743,2.73706-0.11469,4.1015-0.17139c2.75677-0.1145,5.52545-0.22998,8.30164-0.34998 c-15.34735,1.31342-30.63635,3.34509-45.5155,6.87488c-27.74219,6.58203-48.00195,17.43604-60.21582,32.26172 c-8.71777,10.58203-13.36328,23.34131-17.86133,35.69678c-2.58398,7.1001-5.25684,14.44141-8.69141,21.40771 c-8.09766,16.42432-21.07715,31.40967-37.53418,43.33447c-1.04303,0.75586-2.09686,1.49615-3.16016,2.22205 c-0.72888,0.10852-1.45648,0.22058-2.17999,0.34546c1.56818-1.03992,3.12256-2.10156,4.64777-3.20618 c16.34375-11.83887,29.2373-26.71387,37.28613-43.01904c3.4209-6.92676,6.08887-14.24219,8.67676-21.33887 c4.51465-12.37988,9.18262-25.18066,17.96973-35.83936c12.32812-14.95068,32.74219-25.89258,60.67578-32.52148 C685.11591,208.03186,696.32837,206.23798,707.61725,204.94482z M661.89941,210.74023 c-27.68164,6.57129-47.92285,17.40576-60.16211,32.20215c-8.7373,10.56104-13.4248,23.29443-17.96582,35.62939 c-2.60742,7.08447-5.30273,14.41016-8.75781,21.36133c-8.14258,16.39014-21.14648,31.34521-37.60449,43.24854 c-1.46936,1.06281-2.966,2.08533-4.47485,3.08868c-0.75519,0.12476-1.50616,0.2616-2.25525,0.40393 c2.05023-1.32178,4.06818-2.69653,6.04749-4.12738c16.34277-11.81445,29.25977-26.66016,37.35645-42.93213 c3.44629-6.92871,6.13867-14.23291,8.74316-21.29639c4.55566-12.35498,9.2666-25.13086,18.07227-35.76904 c12.35547-14.92236,32.75195-25.84424,60.62402-32.4624c5.37701-1.27667,10.8045-2.35828,16.26642-3.28186 c1.76288-0.22662,3.52789-0.4411,5.29523-0.64172c2.06274-0.12793,4.12457-0.24896,6.18469-0.36053 C680.04968,207.01544,670.90076,208.60364,661.89941,210.74023z M682.776,204.43695c2.05231-0.12775,4.10345-0.2486,6.15277-0.36017 c-0.42151,0.05536-0.84198,0.11652-1.26318,0.17352c-3.83881,0.28705-7.67657,0.61432-11.50922,0.99323 C678.35925,204.95184,680.56665,204.68768,682.776,204.43695z M649.31543,210.82031 c-27.625,6.56055-47.85352,17.37842-60.12402,32.15283c-8.75879,10.54639-13.48926,23.26123-18.06738,35.56787 c-2.63184,7.0752-5.35449,14.3916-8.83008,21.33398c-8.19336,16.36621-21.22461,31.29785-37.68408,43.18066 c-1.84534,1.33234-3.72699,2.61127-5.6333,3.84979c-0.80463,0.14563-1.60608,0.29974-2.40338,0.46533 c2.50275-1.5719,4.96356-3.21539,7.36432-4.94794c16.34375-11.79395,29.28809-26.61621,37.43262-42.8623 c3.46387-6.90869,6.18359-14.20557,8.81348-21.26221c4.59668-12.33545,9.34961-25.09131,18.17969-35.71484 c12.38379-14.90039,32.76758-25.80566,60.58496-32.41406c0.70331-0.16705,1.41125-0.31573,2.11627-0.4762 c4.5849-0.81085,9.19489-1.51263,13.82416-2.11237c0.37054-0.03564,0.74109-0.07135,1.11176-0.10602 C660.39655,208.41174,654.82843,209.51111,649.31543,210.82031z M664.55115,205.86108 c0.35028-0.03369,0.7005-0.06769,1.0509-0.10059c-2.88354,0.48169-5.75586,1.01715-8.61951,1.5918 c-3.44153,0.39899-6.87512,0.85071-10.29883,1.3548C652.60046,207.56915,658.56274,206.63678,664.55115,205.86108z M636.78223,211.55029c-27.57715,6.55127-47.79785,17.35596-60.09863,32.11377 c-8.7832,10.53564-13.55859,23.23926-18.17871,35.53027c-2.65625,7.06689-5.40332,14.37451-8.89941,21.30908 c-8.24414,16.34619-21.30615,31.26123-37.77295,43.13135c-2.16248,1.55865-4.37079,3.04968-6.61548,4.47943 c-0.85406,0.16736-1.70343,0.34711-2.54889,0.53705c2.89673-1.7785,5.73718-3.65668,8.50128-5.64832 c16.35107-11.78027,29.32568-26.58398,37.51904-42.81104c3.48535-6.90186,6.22949-14.19043,8.88379-21.23877 c4.63867-12.32129,9.43555-25.06152,18.29004-35.67676c10.90637-13.07208,27.95563-23.06335,50.75543-29.77301 c4.36591-0.99493,8.76239-1.87091,13.18494-2.63269C638.79547,211.0957,637.78601,211.31183,636.78223,211.55029z M498.45068,344.30078c16.36133-11.77051,29.36768-26.56348,37.61377-42.77979c3.50684-6.89697,6.27734-14.18066,8.95605-21.22461 c4.68359-12.31543,9.52734-25.04932,18.40527-35.6543c12.45215-14.87402,32.8252-25.75781,60.55176-32.34863 c5.05151-1.20062,10.14679-2.22034,15.26978-3.10516c-1.02228,0.22839-2.04663,0.448-3.06567,0.69012 c-3.38062,0.80334-6.64728,1.6734-9.81018,2.60333c-0.68097,0.15521-1.36487,0.29871-2.04431,0.46014 c-27.53613,6.54297-47.75293,17.33789-60.08984,32.08594c-8.80469,10.52637-13.625,23.21973-18.28809,35.50049 c-2.67969,7.06055-5.45117,14.36084-8.97559,21.30127c-8.2959,16.33545-21.39062,31.23975-37.86914,43.09912 c-2.43396,1.75208-4.92828,3.41345-7.46454,5.00214c-0.88074,0.18561-1.75659,0.38318-2.62775,0.59277 C492.23602,348.58118,495.38666,346.50513,498.45068,344.30078z M485.63452,352.49243 c0.89587-0.25372,1.79791-0.49408,2.70563-0.72205l0.04236,0.13977c-0.22253,0.1311-0.44562,0.26117-0.66882,0.39099 c-0.77216,0.09711-1.5423,0.20123-2.30908,0.31744C485.48083,352.57568,485.55841,352.53546,485.63452,352.49243z M466.25531,362.46332c5.07275-2.95001,10.59521-5.43536,16.42944-7.36371 C477.35492,357.91455,471.86072,360.37604,466.25531,362.46332z M480.88885,352.86798 c-1.37347,0.46411-2.73218,0.9538-4.07031,1.47662c-9.25946,2.31848-17.92871,6.01294-25.50842,10.76141 c-0.69806,0.17419-1.39758,0.33826-2.09747,0.50061C458.38892,359.61316,469.25641,355.16962,480.88885,352.86798z M446.86273,367.20581c0.61798-0.13013,1.23505-0.26556,1.85187-0.40485c-0.60474,0.41217-1.20068,0.83179-1.78943,1.25763 c-0.5755,0.12036-1.15137,0.23755-1.72778,0.34998C445.74432,368.00098,446.30139,367.60162,446.86273,367.20581z M444.40076,367.70514c-0.08154,0.0611-0.16144,0.12347-0.24261,0.18488l-0.02679-0.13025 C444.22131,367.74286,444.31079,367.72223,444.40076,367.70514z M398.54346,509.55273 c12.12061-16.12793,19.54199-36.43945,20.89746-57.19141c0.39551-6.05762,0.34521-12.24316,0.2959-18.24707 c-0.11572-13.94922-0.23535-28.37207,5.43896-41.48633c3.724-8.60785,10.10742-16.42346,18.28961-22.89386l0.01556,0.0755 l0.50537-0.09277c0.32782-0.06018,0.6543-0.13214,0.98187-0.19489c-8.4491,6.53271-15.04614,14.4942-18.84857,23.29645 c-5.65137,13.08301-5.52197,27.49023-5.39648,41.42773c0.05469,5.98828,0.11133,12.18066-0.28174,18.27246 c-1.34424,20.81836-8.78076,41.20117-20.93896,57.39551c-10.3551,13.79181-23.71832,23.97406-39.24854,30.09534 c-1.86737,0.45898-3.75793,0.86755-5.6756,1.21631C372.12231,535.48633,387.14978,524.71484,398.54346,509.55273z M334.52991,547.3938c12.91632-0.60608,25.97382-1.39886,38.94934-2.82166c10.70319-0.87286,21.39038-2.07544,31.92798-3.85925 c23.65723-4.00293,43.56152-16.18848,57.56201-35.23828c11.91797-16.21777,18.96973-36.63281,19.85547-57.48535 c0.25879-6.08887,0.06201-12.30566-0.12939-18.33398c-0.44531-14.01172-0.90576-28.50098,4.53857-41.6748 c3.1629-7.65228,8.46124-14.67737,15.28253-20.70074c0.58032-0.14221,1.1579-0.29852,1.73676-0.44861 c-7.19336,6.15411-12.76398,13.41821-16.03979,21.35736c-5.4248,13.14746-4.9541,27.62305-4.49854,41.62402 c0.19629,6.01758,0.39893,12.24121,0.14404,18.3584c-0.87354,20.91504-7.93652,41.39844-19.88818,57.67773 c-14.10596,19.21094-34.20752,31.50391-58.13232,35.55078c-18.03088,3.04944-36.47839,4.40302-54.69867,5.30975 c-2.03027,0.086-4.0575,0.1709-6.07721,0.2547c-3.55261,0.14734-7.12036,0.29572-10.69788,0.45404 C334.41974,547.40991,334.47479,547.40186,334.52991,547.3938z M235.34711,551.28027 c-0.05469,0.00916-0.1095,0.01703-0.16418,0.02618c-0.15509,0.0108-0.31024,0.02319-0.46533,0.03406 C234.92743,551.3205,235.13721,551.29999,235.34711,551.28027z M235.73456,552.99591 c-0.06873,0.01147-0.13776,0.0213-0.20648,0.03284c-0.19568,0.01355-0.3913,0.02911-0.58698,0.04285 C235.20563,553.04639,235.47003,553.02063,235.73456,552.99591z M219.17133,553.72174 c1.05316-0.10822,2.10712-0.20532,3.16095-0.3056c-1.97998,0.25446-3.95715,0.52417-5.9306,0.81482 C217.32324,554.05365,218.24762,553.88928,219.17133,553.72174z M193.70996,557.81445 c3.47559-0.82611,6.9718-1.56714,10.48315-2.23926c0.84064-0.12268,1.68225-0.23981,2.52405-0.35583 c-0.26752,0.06256-0.5368,0.11749-0.80408,0.18103c-2.07104,0.49207-4.08826,1.01569-6.07776,1.55536 c-3.19757,0.51727-6.38361,1.09027-9.55652,1.7218C191.41589,558.38599,192.54694,558.09088,193.70996,557.81445z M55.54053,691.85059c16.37549-11.7666,29.41748-26.55469,37.7168-42.7666c3.53174-6.89941,6.32715-14.18066,9.03027-21.2207 c4.729-12.31445,9.61865-25.04785,18.52246-35.64941c12.49121-14.87012,32.86621-25.74805,60.55957-32.33301 c0.94598-0.22485,1.89709-0.42792,2.84589-0.64081c-3.50049,1.0174-6.87756,2.1062-10.11182,3.27649 c-23.63837,6.64398-41.28784,16.737-52.48798,30.08209c-8.83252,10.52344-13.69775,23.21387-18.40527,35.49316 c-2.70752,7.06348-5.50732,14.36719-9.05029,21.29883c-8.3501,16.33301-21.48193,31.23242-37.9751,43.08789 C45.94354,699.8407,34.74805,705.7821,23.08459,710.099c-2.90723,0.7757-5.83264,1.44672-8.76978,2.01459 C28.8927,707.78015,42.94122,700.90247,55.54053,691.85059z M162.422,567.36279 c-12.64807,5.9613-22.72241,13.34973-30.07043,22.12646c-8.98975,10.73828-13.86523,23.55664-18.58105,35.95508 c-2.66846,7.01758-5.42822,14.27441-8.91064,21.12207c-8.17041,16.06738-21.06543,30.72949-37.29053,42.40234 c-10.37,7.46118-21.74011,13.43622-33.58685,17.71527c7.9613-3.71075,15.62311-8.18158,22.81586-13.35199 c16.62842-11.95215,29.87109-26.98145,38.29736-43.46289c3.56836-6.98145,6.37842-14.31152,9.09863-21.40723 c4.67383-12.19238,9.50684-24.79883,18.22607-35.1875C131.51215,582.44189,144.92755,573.76709,162.422,567.36279z M25.82764,711.07227l-0.53076,0.09766l0.05988,0.28351c-3.49713,0.98309-7.02289,1.81775-10.56543,2.50458 c2.89044-0.85596,5.76068-1.80597,8.60278-2.85657c15.86499-4.23859,31.18097-11.4892,44.78851-21.27917 c16.36133-11.77051,29.36768-26.56348,37.61377-42.7793c3.50781-6.89844,6.27783-14.18164,8.95654-21.22656 c4.68457-12.31543,9.52832-25.0498,18.4043-35.65332c9.35699-11.17603,23.18701-20.09821,41.24646-26.64026 c2.4577-0.69055,4.95972-1.35577,7.54846-1.97107c0.96216-0.22864,1.92981-0.43542,2.89514-0.65161 c-22.86523,6.65247-39.96161,16.60022-50.87708,29.64868c-8.80811,10.5293-13.62744,23.22461-18.28857,35.50098 c-2.68213,7.06445-5.45557,14.36914-8.97607,21.30078c-8.2959,16.33594-21.39062,31.23926-37.86914,43.09961 c-12.35272,8.89185-26.10651,15.71509-40.40845,20.10565C27.56183,710.73358,26.69586,710.91284,25.82764,711.07227z M181.84363,562.91187c-16.0061,6.42432-28.4201,14.86157-37.05603,25.21216c-8.96484,10.74805-13.79541,23.5752-18.4668,35.97949 c-2.64355,7.02148-5.37744,14.28223-8.83789,21.13672c-8.11914,16.07715-20.98145,30.75-37.1958,42.43262 c-12.48309,8.99341-26.43018,15.83148-40.92828,20.14093c10.58502-4.22327,20.73761-9.77728,30.09137-16.51007 c16.61426-11.95801,29.8208-26.99219,38.19189-43.47656c3.54639-6.9834,6.33008-14.31445,9.02197-21.4043 c4.62988-12.19531,9.41748-24.80664,18.11182-35.2002C145.02484,578.97119,160.83856,569.48364,181.84363,562.91187z M26.72314,712.83887l-0.13751-0.651c0.69818-0.20178,1.39703-0.39984,2.09271-0.6131 c18.51672-3.80487,36.52008-11.73529,52.22302-23.05035c16.35059-11.78027,29.32471-26.58398,37.51953-42.81152 c3.48584-6.9043,6.22998-14.19141,8.8833-21.23828c4.64062-12.32324,9.43896-25.06641,18.29004-35.67676 c10.90625-13.07275,27.9552-23.06372,50.75488-29.77332c2.75708-0.62836,5.52435-1.21741,8.30542-1.74988 c0.85266-0.12415,1.7063-0.24292,2.56024-0.36017c-0.23315,0.05463-0.46814,0.10242-0.70111,0.15778 c-27.57666,6.55176-47.79688,17.35547-60.09863,32.11328c-8.78271,10.53613-13.55762,23.23926-18.17529,35.52441 c-2.65723,7.06836-5.40479,14.37793-8.90332,21.31445c-8.24316,16.34668-21.30469,31.26172-37.77197,43.13184 C65.12109,701.00781,46.16895,709.19141,26.72314,712.83887z M202.92535,559.05676 c-20.22607,6.7229-35.54431,16.23151-45.63824,28.37585c-8.94238,10.75977-13.72803,23.60156-18.35645,36.01953 c-2.61914,7.02832-5.32764,14.29688-8.76758,21.15918c-8.06934,16.0957-20.90137,30.78516-37.10889,42.48145 c-14.54584,10.49689-31.09796,18.06305-48.21167,22.09918c13.20752-4.43433,25.87726-10.92456,37.33618-19.18414 c16.60352-11.96777,29.77686-27.01367,38.09619-43.51074c3.52393-6.9873,6.28125-14.32324,8.94824-21.41797 c4.58691-12.20312,9.33008-24.82129,17.99854-35.22168C158.79828,575.97162,177.53668,565.62463,202.92535,559.05676z M219.04736,556.3418c-27.62598,6.56152-47.85449,17.37891-60.12354,32.15234c-8.75977,10.54785-13.49072,23.26562-18.0708,35.57812 c-2.63184,7.07227-5.35254,14.38477-8.82715,21.32422c-8.19287,16.36523-21.22363,31.29688-37.68408,43.18066 c-16.4375,11.86816-35.40869,20.0625-54.89502,23.71484l-0.18018-0.83496c19.30273-3.62598,38.10254-11.74902,54.40283-23.5127 c16.34375-11.79395,29.28809-26.61523,37.43311-42.8623c3.46533-6.91309,6.18359-14.20801,8.8125-21.2627 c4.59766-12.33594,9.35205-25.09277,18.17969-35.71484c12.38477-14.90039,32.76855-25.80566,60.58545-32.41406 c0.44788-0.10638,0.89911-0.19952,1.34766-0.30322c1.95715-0.19818,3.91608-0.38055,5.87579-0.55243 C223.61072,555.3078,221.32294,555.80139,219.04736,556.3418z M231.63184,556.26172 c-27.68115,6.57129-47.92285,17.40527-60.16309,32.20215c-8.73828,10.5625-13.42578,23.29785-17.96094,35.61914 c-2.6084,7.08789-5.30566,14.41699-8.76123,21.37207c-8.14404,16.38965-21.14795,31.34473-37.60547,43.24805 c-16.43555,11.8877-35.42969,20.09473-54.96191,23.75293l-0.18555-0.83984c19.34521-3.63086,38.16797-11.7666,54.46484-23.54785 c16.34229-11.81445,29.25977-26.66016,37.35596-42.93164c3.44189-6.91895,6.13623-14.22461,8.74414-21.29688 c4.55518-12.35449,9.26514-25.12988,18.07275-35.76953c12.35352-14.92188,32.75-25.84375,60.62305-32.46191 c2.73285-0.64886,5.48224-1.23273,8.23901-1.78577c1.85651-0.11725,3.71179-0.22784,5.56635-0.33118 C240.55511,554.2998,236.07391,555.20721,231.63184,556.26172z M252.53058,549.95648 c2.04913-0.1275,4.09711-0.24805,6.14331-0.35944c-0.4256,0.05591-0.85016,0.11749-1.27551,0.17505 c-2.91357,0.2179-5.82629,0.45947-8.73706,0.72852c-0.36407,0.0188-0.72754,0.03619-1.09174,0.05542 C249.22168,550.34564,250.87506,550.14429,252.53058,549.95648z M247.84729,552.28589 c1.65387-0.21094,3.30914-0.4129,4.96698-0.60107c2.06299-0.12793,4.12518-0.2489,6.18567-0.36053 c-1.51428,0.19916-3.02533,0.41504-4.53546,0.63525C252.26147,552.06232,250.05603,552.16986,247.84729,552.28589z M244.2373,556.82031c-27.74316,6.58105-48.00293,17.43555-60.21582,32.26172c-8.7207,10.58496-13.36621,23.34766-17.86475,35.70605 c-2.5835,7.09668-5.25537,14.43555-8.68799,21.39844c-8.09766,16.42383-21.07666,31.40918-37.53467,43.33398 c-16.43799,11.91211-35.45996,20.13477-55.04297,23.79883l-0.18994-0.84473c19.39355-3.63672,38.24121-11.78809,54.54004-23.59277 c16.34375-11.83789,29.2373-26.71387,37.2876-43.01953c3.42432-6.93555,6.09424-14.25781,8.67627-21.33887 c4.51465-12.37891,9.18311-25.18066,17.96973-35.83887c12.32666-14.9502,32.74072-25.89258,60.6748-32.52148 c5.72858-1.3595,11.51703-2.49091,17.34277-3.45306c2.15582-0.09253,4.30762-0.18335,6.45404-0.27228 C259.76709,553.57251,251.94653,554.99127,244.2373,556.82031z M271.0072,551.24695 c2.11066-0.28003,4.22528-0.53809,6.34235-0.78058c1.37671-0.05774,2.75336-0.11542,4.12604-0.17242 c2.74567-0.11414,5.50311-0.22919,8.26801-0.34875c-3.11676,0.26678-6.23022,0.56641-9.33923,0.89948 C277.26105,550.98499,274.12793,551.11755,271.0072,551.24695z M256.83496,558.00586 c-27.81152,6.59375-48.09326,17.47168-60.28223,32.33105c-8.70166,10.6084-13.30566,23.39941-17.76074,35.77637 c-2.56152,7.11816-5.20996,14.47852-8.62793,21.4668c-8.05078,16.46289-21.00879,31.4834-37.47217,43.4375 c-16.4458,11.94043-35.5,20.18164-55.13623,23.84961l-0.1958-0.84961c19.44678-3.64355,38.32422-11.8125,54.62842-23.64453 c16.34912-11.86523,29.22217-26.77734,37.22705-43.12207c3.40283-6.94824,6.04883-14.28711,8.61084-21.3916 c4.47461-12.40918,9.10156-25.24121,17.87109-35.92383c12.30225-14.98535,32.73877-25.9502,60.74072-32.5918 c12.26013-2.9068,24.7912-4.80084,37.40033-6.11871c8.75787-0.49426,17.55505-1.13049,26.32629-2.04694 c2.22375-0.12561,4.44562-0.24384,6.66504-0.35388c1.89771-0.0802,3.79236-0.15894,5.68256-0.2373 c6.19958-0.25726,12.45374-0.51776,18.7356-0.83075c22.25879-0.94403,45.09094-2.12885,67.25317-5.87531 c23.72363-4.00977,43.64258-16.22266,57.604-35.31738c11.88379-16.25391,18.86426-36.7168,19.6543-57.61914 c0.23145-6.11035,0.00342-12.3457-0.21729-18.37793c-0.51318-14.04297-1.04395-28.56445,4.35742-41.76465 c2.95569-7.22443,7.81372-13.89264,14.06549-19.68793c0.55872-0.13123,1.117-0.26324,1.67438-0.40173 c-6.58466,5.927-11.69366,12.81274-14.75256,20.30255c-5.38135,13.17383-4.84033,27.68066-4.31689,41.7168 c0.22559,6.03516,0.45898,12.27539,0.23193,18.40039c-0.77734,20.96484-7.76855,41.49609-19.68555,57.81055 c-14.06592,19.25488-34.18213,31.5752-58.17383,35.62891c-24.29785,4.10352-49.36475,5.13965-73.6167,6.14258 C315.97803,549.9248,285.63135,551.17871,256.83496,558.00586z M513.57373,390.40137 c-5.33984,13.21191-4.72705,27.75977-4.13477,41.8291c0.25488,6.0498,0.51855,12.30664,0.32031,18.45117 c-0.68066,21.02246-7.60107,41.6084-19.48584,57.9668c-14.02734,19.30664-34.1626,31.65723-58.22852,35.71777 c-24.37256,4.11035-49.53076,5.14355-73.88477,6.14355c-29.44922,1.20996-59.90088,2.46094-88.76465,9.2998 c-27.88477,6.60547-48.19336,17.50977-60.36182,32.41113c-8.68799,10.6377-13.25244,23.46777-17.66699,35.87695 c-2.53857,7.13672-5.16357,14.51562-8.56348,21.52637c-8.00684,16.50977-20.94629,31.57227-37.41943,43.55859 c-16.45361,11.97266-35.54492,20.2334-55.24268,23.90918l-0.20068-0.85742c19.50342-3.64941,38.41748-11.83789,54.72949-23.70117 c16.35791-11.89648,29.21289-26.85059,37.17529-43.24316c3.38574-6.9707,6.00928-14.33301,8.54736-21.45215 c4.43506-12.44531,9.02148-25.31348,17.77539-36.02539c12.28125-15.02441,32.74414-26.01562,60.82031-32.66992 c28.95801-6.86133,59.45117-8.12012,88.95947-9.33887c24.2666-1,49.35938-2.03418,73.64551-6.13379 c23.79541-4.01562,43.7334-16.25879,57.6582-35.40527c11.85254-16.29785,18.76221-36.81641,19.45605-57.77539 c0.20312-6.11719-0.05469-12.36133-0.30469-18.42676c-0.58252-14.08105-1.18457-28.6416,4.17432-41.87891 c2.73932-6.76556,7.14587-13.0451,12.80652-18.57849c0.54077-0.1217,1.08191-0.24084,1.62152-0.36938 C521.04382,376.90302,516.40869,383.38727,513.57373,390.40137z M528.6123,369.75671 c-0.57715,0.14624-1.15491,0.28821-1.73352,0.42664c0.46405-0.42664,0.9411-0.84485,1.4201-1.26172 c0.61102-0.15497,1.22095-0.31555,1.83014-0.47931C529.61493,368.87469,529.10992,369.31323,528.6123,369.75671z M568.86902,349.91351c-0.42194,0.27631-0.84344,0.55304-1.26837,0.82458c-13.43585,2.80933-25.70697,8.46399-35.41266,16.03729 c-0.67371,0.19446-1.34625,0.39319-2.0224,0.57672C540.55096,358.9198,554.05676,352.71613,568.86902,349.91351z M564.89246,352.4317c-9.37909,5.68842-19.42438,10.2193-29.80084,13.47186 C543.54974,359.8111,553.76685,355.13586,564.89246,352.4317z M530.89832,369.159c0.57495-0.48187,1.15924-0.95697,1.75439-1.42438 c12.38757-3.59283,24.34656-9.00122,35.33612-16.00104c0.80994-0.1676,1.62421-0.32379,2.44232-0.4704 c-3.19507,2.10583-6.47485,4.07672-9.82812,5.90747c-2.73065,1.21704-5.36908,2.55237-7.89612,4.00195 C545.65698,364.45605,538.34833,367.13043,530.89832,369.159z M553.13885,362.12732c2.69519-1.25494,5.34857-2.60577,7.96271-4.0329 c6.9306-3.07947,14.47125-5.37085,22.36285-6.69623c-0.3905,0.2663-0.78674,0.5238-1.17993,0.78601 c-15.13074,2.82184-28.88409,9.23389-39.31561,17.96405c-0.61877,0.16943-1.24115,0.32227-1.86188,0.48254 C544.72461,367.49628,548.76312,364.64343,553.13885,362.12732z M579.91962,353.73053 c-10.69476,6.81366-22.31897,12.10938-34.37024,15.67328C554.97284,362.05499,566.87006,356.54358,579.91962,353.73053z M532.8877,374.45801l-0.20654-0.86426c1.58392-0.2959,3.16193-0.63263,4.73676-0.98779 c-0.39771,0.38776-0.78516,0.78131-1.17065,1.17621C535.12946,374.02069,534.00995,374.24896,532.8877,374.45801z M526.24316,392.34473c-5.29834,13.25098-4.61475,27.84375-3.95361,41.95605c0.28516,6.07227,0.57959,12.35059,0.40869,18.50977 c-0.5835,21.08887-7.43408,41.73926-19.28955,58.14746c-13.99268,19.36523-34.15039,31.75-58.29443,35.81738 c-24.45996,4.11816-49.71387,5.14746-74.13623,6.14258c-29.56348,1.20312-60.1333,2.44824-89.09082,9.30273 c-27.96533,6.61914-48.30469,17.55371-60.4541,32.50098c-8.67432,10.66992-13.19922,23.54102-17.58203,36.00781 c-2.51611,7.15723-5.11865,14.55859-8.49609,21.58105c-7.96582,16.56445-20.89014,31.67383-37.37451,43.69434 c-16.46729,12.00977-35.59961,20.29395-55.36084,23.97461l-0.20654-0.86426c19.56543-3.65527,38.51807-11.86719,54.84229-23.76562 c16.37061-11.93262,29.21094-26.93262,37.13184-43.37988c3.36865-6.99512,5.97021-14.37988,8.48633-21.52539 c4.39795-12.48438,8.94531-25.39355,17.68457-36.13574c12.26025-15.07031,32.75391-26.0918,60.91162-32.75977 c29.04736-6.87793,59.66211-8.13086,89.27539-9.34277c24.36328-0.99707,49.55615-2.02832,73.90674-6.13281 c23.87305-4.02344,43.83398-16.30078,57.72461-35.50488c11.82324-16.34668,18.66357-36.92969,19.26123-57.95703 c0.17529-6.14453-0.11377-12.41797-0.39307-18.48438c-0.65137-14.125-1.32422-28.73145,3.99268-42.00684 c2.51544-6.27979,6.47186-12.13849,11.53009-17.37592c0.52704-0.11377,1.05206-0.23883,1.578-0.35907 C533.00891,379.76233,528.84961,385.82574,526.24316,392.34473z M539.79498,372.97229 c-0.54803,0.13281-1.09808,0.25507-1.64746,0.3808c0.41711-0.40674,0.83765-0.81152,1.26825-1.21002 c0.58875-0.14252,1.1756-0.29358,1.7627-0.44421C540.70996,372.11877,540.24829,372.54279,539.79498,372.97229z M541.92578,372.42987c0.49951-0.44696,1.00562-0.88947,1.52228-1.32507c13.83917-3.81293,27.16376-9.90173,39.24084-17.92694 c0.76483-0.14069,1.53253-0.27264,2.30414-0.39465c-2.77734,1.90381-5.62817,3.69629-8.53473,5.38953 c-5.03894,2.01538-9.79059,4.43561-14.16699,7.20233C555.6828,368.26721,548.86359,370.6272,541.92578,372.42987z M562.76239,366.3125c4.85468-2.12689,9.59412-4.5368,14.18744-7.21069c6.56384-2.6142,13.61578-4.534,20.95251-5.62225 c-0.3457,0.24554-0.6897,0.49353-1.0376,0.73578c-16.79968,2.76959-32.00958,9.95282-43.04755,19.85651 c-0.59949,0.15643-1.19824,0.31604-1.7995,0.46387C555.24414,371.54303,558.85211,368.79095,562.76239,366.3125z M545.22754,378.00098l-0.21289-0.87207c1.20966-0.22565,2.41687-0.46942,3.62122-0.72961 c-0.36102,0.37433-0.71741,0.75098-1.0672,1.13153C546.78876,377.69055,546.00964,377.85559,545.22754,378.00098z M538.8623,394.83398c-5.2583,13.29492-4.50293,27.93848-3.77197,42.12012c0.31396,6.08984,0.63867,12.38574,0.49658,18.55762 c-0.48682,21.16406-7.26904,41.88672-19.09717,58.34961c-13.96191,19.43164-34.14697,31.85547-58.37256,35.92773 c-24.53027,4.12402-49.88037,5.14746-74.41943,6.1377c-29.68262,1.19824-60.37598,2.4375-89.41846,9.30469 c-28.05078,6.63477-48.42578,17.60254-60.55908,32.59961c-8.66406,10.70801-13.15088,23.62695-17.49268,36.12988 c-2.49658,7.18652-5.07764,14.61719-8.43945,21.66797c-7.92676,16.625-20.83838,31.78711-37.33838,43.84863 c-16.48633,12.05078-35.66406,20.35938-55.49121,24.04492l-0.21191-0.87207c19.63037-3.66211,38.62598-11.89746,54.9668-23.83691 c16.3877-11.97266,29.21582-27.02539,37.09717-43.53223c3.34814-7.0127,5.92627-14.41992,8.42627-21.60156 c4.36035-12.53027,8.86914-25.4873,17.59814-36.26758c12.24365-15.12109,32.77246-26.17578,61.0166-32.85742 c29.13672-6.89258,59.87305-8.13965,89.59814-9.34473c24.4585-0.99219,49.75049-2.01758,74.19336-6.12891 c23.95605-4.0293,43.94385-16.34473,57.80371-35.61621c11.79639-16.40234,18.56885-37.05762,19.07031-58.15918 c0.146-6.16309-0.17285-12.45508-0.48193-18.5498c-0.72021-14.17578-1.46533-28.83301,3.81152-42.15234 c2.28809-5.77539,5.79614-11.19446,10.25653-16.1051c0.50635-0.10498,1.01147-0.2157,1.51685-0.32666 C544.91388,383.22168,541.23401,388.83679,538.8623,394.83398z M550.95496,376.79016 c-0.53339,0.1239-1.06598,0.25232-1.60065,0.36951c0.38635-0.40137,0.77301-0.80255,1.1723-1.19647 c0.55548-0.1286,1.1123-0.24976,1.66638-0.38562C551.77466,375.97845,551.35974,376.38116,550.95496,376.79016z M552.91925,376.328 c0.45709-0.43805,0.92004-0.87231,1.39319-1.30035c8.09167-2.12683,16.01569-5.0224,23.62683-8.63263 c-1.9173,1.0979-3.7652,2.26447-5.54858,3.48572C566.05536,372.51788,559.54132,374.68384,552.91925,376.328z M572.86115,370.82245 c1.46216-0.60956,2.91602-1.24023,4.35785-1.90009c-4.65594,2.85413-8.88544,6.10706-12.59009,9.67999 c-0.56952,0.14197-1.13953,0.27942-1.71057,0.41357C565.8913,376.05933,569.22998,373.31879,572.86115,370.82245z M557.39453,382.18945l-0.21875-0.88086c0.87891-0.16364,1.75476-0.34735,2.63086-0.52924 c-0.33856,0.37439-0.67847,0.74792-1.00598,1.12817C558.33167,381.99982,557.86426,382.10229,557.39453,382.18945z M551.39648,397.86426c-5.21875,13.34375-4.3916,28.04395-3.59082,42.27637c0.34375,6.11426,0.69922,12.4375,0.58496,18.63477 c-0.39062,21.24902-7.10547,42.05176-18.90869,58.57617c-13.93311,19.50586-34.14941,31.9707-58.46338,36.04883 c-24.62109,4.13086-50.0791,5.14746-74.72314,6.13184c-29.80469,1.19043-60.62354,2.4209-89.75586,9.30273 c-28.14307,6.64941-48.55762,17.65332-60.67725,32.70703c-8.65479,10.74902-13.10449,23.7207-17.41162,36.27539 c-2.47559,7.21387-5.03564,14.6748-8.38086,21.75293c-7.88965,16.69238-20.7915,31.91309-37.31055,44.01758 c-16.50781,12.0957-35.73438,20.43164-55.6333,24.12305l-0.21777-0.88086c19.70068-3.66797,38.74268-11.93066,55.10303-23.91309 c16.40723-12.0166,29.22607-27.12891,37.07129-43.70215c3.3335-7.04297,5.89111-14.48242,8.36816-21.68848 c4.32471-12.58008,8.79639-25.58887,17.51611-36.41016c12.23047-15.17871,32.79883-26.26953,61.13379-32.96484 c29.23291-6.90918,60.09619-8.14746,89.96143-9.34473c24.55859-0.98535,49.95312-2.00488,74.47168-6.12012 c24.04248-4.03613,44.06152-16.39355,57.89307-35.73828c11.77246-16.46484,18.47852-37.19922,18.88379-58.38477 c0.11816-6.19727-0.23242-12.51367-0.57129-18.62305c-0.78906-14.23047-1.60547-28.94434,3.63184-42.31445 c2.05713-5.25092,5.12042-10.20856,8.9906-14.75909c0.49207-0.09833,0.98578-0.18665,1.47693-0.29053 C556.75128,387.26605,553.53088,392.40613,551.39648,397.86426z M562.04468,381.22919 c-0.51312,0.11444-1.02606,0.22845-1.54022,0.33673c0.3515-0.39038,0.7052-0.77936,1.06879-1.16327 c0.54138-0.12018,1.0813-0.2478,1.62146-0.37488C562.80688,380.42578,562.41943,380.82385,562.04468,381.22919z M563.9007,380.80127 c0.40588-0.41748,0.81677-0.83185,1.237-1.24103c7.1778-1.80377,14.22943-4.21051,21.05316-7.18542 c-1.23846,0.81128-2.43939,1.65491-3.61188,2.521C576.49078,377.31641,570.24182,379.29114,563.9007,380.80127z M583.05353,375.84235c1.13641-0.45276,2.26624-0.92322,3.39111-1.40619c-4.09045,2.79175-7.8009,5.90271-11.0495,9.27832 c-0.54224,0.12952-1.08667,0.24731-1.63031,0.36981C576.52704,381.13074,579.64386,378.37366,583.05353,375.84235z M570.87305,385.77264c-0.31506,0.37335-0.62958,0.74689-0.93384,1.12555c-0.19421,0.03687-0.38739,0.08044-0.58179,0.11646 l-0.22461-0.89258C569.71423,386.01404,570.29285,385.88861,570.87305,385.77264z M563.8125,401.42676 c-5.17871,13.39551-4.28125,28.15527-3.41309,42.44141c0.37402,6.13965,0.76074,12.48828,0.6748,18.72949 c-0.29395,21.3418-6.94336,42.23242-18.72559,58.82422c-13.90625,19.58496-34.15723,32.0957-58.56445,36.18066 c-24.73145,4.13867-50.30078,5.14648-75.04541,6.12109c-29.92871,1.18066-60.87695,2.40137-90.10596,9.29883 c-28.23877,6.66406-48.69678,17.70703-60.80615,32.82324c-8.64648,10.79297-13.06152,23.82031-17.33154,36.42188 c-2.45654,7.25-4.99658,14.74707-8.32812,21.85938c-7.85352,16.76465-20.74854,32.04883-37.2915,44.20117 c-16.53125,12.14551-35.81152,20.50977-55.78613,24.20801l-0.22461-0.89258c19.77393-3.67383,38.8667-11.96387,55.25098-23.99316 c16.43066-12.06543,29.24316-27.24121,37.05273-43.8877c3.31836-7.07422,5.85596-14.54688,8.31396-21.78418 c4.28955-12.63477,8.7251-25.7002,17.4375-36.56641c12.21973-15.24023,32.83154-26.37012,61.26318-33.08203 c29.33496-6.92383,60.33057-8.15234,90.31738-9.33984c24.66748-0.97754,50.1748-1.98828,74.78809-6.11035 c24.1333-4.04199,44.1875-16.44531,57.99365-35.86914c11.75-16.53125,18.3916-37.35352,18.70117-58.63281 c0.09082-6.21094-0.29004-12.55273-0.65918-18.70312c-0.8584-14.29199-1.74512-29.07031,3.4541-42.49316 c1.82214-4.70477,4.44739-9.17633,7.73865-13.33075c0.48987-0.09448,0.97974-0.18842,1.46863-0.28845 C568.49146,391.86426,565.71112,396.51599,563.8125,401.42676z M573.05133,386.27527 c-0.49292,0.1059-0.98822,0.19647-1.48212,0.29669c0.31964-0.38104,0.64398-0.75958,0.97491-1.13489 c0.52423-0.11194,1.04626-0.23523,1.5694-0.35364C573.75537,385.47858,573.39679,385.87354,573.05133,386.27527z M574.81372,385.87073c0.36609-0.40564,0.73718-0.80829,1.11652-1.20667c6.716-1.61987,13.32178-3.77423,19.74127-6.4201 c-0.97095,0.69836-1.91858,1.41504-2.84332,2.1488C586.94659,382.63715,580.92279,384.47089,574.81372,385.87073z M593.33295,381.32343c0.95935-0.36719,1.91534-0.74292,2.86682-1.13159c-3.75677,2.7998-7.1474,5.88177-10.10229,9.19751 c-0.53058,0.12201-1.06073,0.24542-1.59253,0.36078C587.10815,386.745,590.07007,383.92596,593.33295,381.32343z M581.81451,391.37128c-0.25842,0.32977-0.50873,0.66333-0.75885,0.99695l-0.20508-0.80377 C581.17267,391.50476,581.49286,391.43341,581.81451,391.37128z M576.07617,405.51758 c-5.14355,13.45898-4.17383,28.29102-3.23633,42.63379c0.40332,6.16797,0.82031,12.5459,0.7627,18.81738 c-0.19824,21.44238-6.78418,42.42969-18.54688,59.0957c-13.88379,19.67188-34.17432,32.23145-58.67725,36.32227 c-24.8252,4.14453-50.51172,5.1416-75.35303,6.10645c-30.06787,1.16895-61.15967,2.37793-90.5,9.29297 c-28.34033,6.68066-48.8457,17.76562-60.94678,32.94824c-8.64062,10.83984-13.02051,23.92773-17.2583,36.58984 c-2.43652,7.28223-4.95654,14.81348-8.27637,21.96582c-7.81934,16.84375-20.71094,32.19824-37.28076,44.40234 c-16.55957,12.19727-35.89648,20.59277-55.9502,24.29688l-0.23047-0.90332c19.85107-3.68066,38.99854-12.00098,55.40918-24.08203 c16.45752-12.11621,29.2666-27.36133,37.04297-44.08691c3.30566-7.11035,5.82471-14.62207,8.26123-21.88867 c4.25732-12.69531,8.66016-25.82324,17.36523-36.7373c12.21191-15.30566,32.87109-26.47852,61.40381-33.20508 c29.44189-6.94238,60.5752-8.1582,90.68652-9.33398c24.78125-0.96777,50.40576-1.96875,75.11914-6.09668 c24.22949-4.04785,44.32275-16.5,58.10693-36.01172c11.73047-16.60352,18.30859-37.52148,18.52344-58.90039 c0.0625-6.24219-0.34863-12.61621-0.74805-18.79883c-0.92578-14.35645-1.88477-29.20117,3.27637-42.67969 c1.58588-4.14142,3.79315-8.10211,6.5271-11.82654c0.48486-0.09064,0.96857-0.1886,1.45251-0.28467 C580.08868,397.03204,577.73651,401.17291,576.07617,405.51758z M583.98187,391.88837 c-0.48932,0.10181-0.97974,0.19745-1.47003,0.29364c0.29578-0.38049,0.59943-0.75696,0.90631-1.13214 c0.50336-0.10376,1.00726-0.2038,1.50958-0.31354C584.60742,391.11786,584.29065,391.5011,583.98187,391.88837z M1006.34473,59.99658c-5.14355,13.4541-4.1748,28.28418-3.2373,42.6333c0.40332,6.17432,0.82129,12.55859,0.76367,18.81787 c-0.19922,21.44385-6.78613,42.43066-18.54785,59.09473c-13.88379,19.67188-34.17383,32.23193-58.67773,36.32275 c-24.81641,4.14258-50.50586,5.1416-75.36523,6.10791c-30.06348,1.16895-61.15137,2.37744-90.48633,9.29199 c-28.33984,6.67969-48.8457,17.76514-60.94727,32.94775c-8.64355,10.84424-13.02246,23.93262-17.26465,36.61133 c-2.43652,7.27832-4.95605,14.80469-8.27051,21.94336c-7.81934,16.84473-20.70996,32.19922-37.28027,44.40332 c-15.30426,11.27264-32.98254,19.289-51.40466,23.36493c0.33557-0.40222,0.67657-0.80133,1.02496-1.19696 c17.76782-4.13196,34.80328-11.95715,49.60822-22.85645c1.20178-0.88477,2.37787-1.79114,3.54022-2.70862l0.42657-0.04626 l-0.08362-0.2298c14.58826-11.59503,26.00684-25.71851,33.15979-41.10223c3.30664-7.1123,5.82617-14.62402,8.26172-21.88818 c4.25684-12.69482,8.6582-25.82178,17.36523-36.73682c12.21191-15.30713,32.87109-26.47998,61.40332-33.20703 c29.4375-6.93994,60.57324-8.15625,90.68555-9.33252c24.78125-0.96826,50.40625-1.96924,75.12012-6.09766 c24.22949-4.04736,44.32227-16.5,58.10645-36.01074c11.73145-16.604,18.30957-37.52197,18.52344-58.90088 c0.0625-6.27002-0.34863-12.63525-0.74707-18.7915c-0.92676-14.35889-1.88477-29.20605,3.27637-42.68652 c8.35254-21.81348,33.86035-38.65039,63.55078-41.98779l0.20117,0.55127 C1039.75488,21.67773,1014.60742,38.37256,1006.34473,59.99658z"/></g></svg>