<?xml version="1.0" encoding="UTF-8" standalone="no"?><svg xmlns="http://www.w3.org/2000/svg" xmlns:xlink="http://www.w3.org/1999/xlink" contentScriptType="text/ecmascript" fill="#000000" width="409.4" zoomAndPan="magnify" contentStyleType="text/css" viewBox="0.0 0.0 409.4 513.8" height="513.8" preserveAspectRatio="xMidYMid meet" version="1"><g id="change1_4"><path fill="#f4f4f4" d="M261.24,397.84h-111.4c-4.17,0-7.57-3.4-7.57-7.57V370.1c0-27.33-10.13-54.15-28.54-75.51 c-18.91-21.95-29.33-50.02-29.33-79.03c0-64.12,50.1-117.24,114.06-120.93c34.63-2,68.58,11.13,93.13,36.03 c24.56,24.9,37.23,59.03,34.76,93.65c-1.89,26.45-12.14,51-29.64,71c-18,20.56-27.91,47-27.91,74.45v20.52 C268.81,394.44,265.41,397.84,261.24,397.84z M157.26,382.84h96.54v-13.09c0-31.08,11.23-61.03,31.62-84.32 c15.33-17.52,24.31-39.02,25.97-62.19l0,0c2.16-30.31-8.95-60.22-30.48-82.04c-21.53-21.82-51.26-33.35-81.59-31.58 c-56.03,3.23-99.92,49.77-99.92,105.96c0,25.42,9.12,50.01,25.69,69.24c20.75,24.08,32.17,54.37,32.17,85.3V382.84z"/></g><g id="change1_7"><path fill="#f4f4f4" d="M263.42,422H147.64c-10.65,0-19.31-8.67-19.31-19.32v-0.53c0-10.65,8.66-19.31,19.31-19.31h115.78 c10.65,0,19.31,8.66,19.31,19.31v0.53C282.74,413.33,274.07,422,263.42,422z M147.64,397.84c-2.34,0-4.31,1.98-4.31,4.31v0.53 c0,2.34,1.98,4.32,4.31,4.32h115.78c2.34,0,4.31-1.98,4.31-4.32v-0.53c0-2.34-1.98-4.31-4.31-4.31H147.64z"/></g><g id="change1_9"><path fill="#f4f4f4" d="M263.42,446.16H147.64c-10.65,0-19.31-8.66-19.31-19.31v-0.53c0-10.65,8.66-19.31,19.31-19.31h115.78 c10.65,0,19.31,8.66,19.31,19.31v0.53C282.74,437.49,274.07,446.16,263.42,446.16z M147.64,422c-2.34,0-4.31,1.98-4.31,4.31v0.53 c0,2.34,1.98,4.31,4.31,4.31h115.78c2.34,0,4.31-1.98,4.31-4.31v-0.53c0-2.34-1.98-4.31-4.31-4.31H147.64z"/></g><g id="change1_1"><path fill="#f4f4f4" d="M263.42,470.31H147.64c-10.65,0-19.31-8.66-19.31-19.31v-0.53c0-10.65,8.66-19.32,19.31-19.32h115.78 c10.65,0,19.31,8.67,19.31,19.32V451C282.74,461.65,274.07,470.31,263.42,470.31z M147.64,446.16c-2.34,0-4.31,1.98-4.31,4.32V451 c0,2.34,1.98,4.31,4.31,4.31h115.78c2.34,0,4.31-1.98,4.31-4.31v-0.53c0-2.34-1.98-4.32-4.31-4.32H147.64z"/></g><g id="change1_5"><path fill="#f4f4f4" d="M206.35,513.85h-1.64c-24.37,0-44.2-19.83-44.2-44.2v-6.84c0-4.14,3.36-7.5,7.5-7.5h75.04 c4.14,0,7.5,3.36,7.5,7.5v6.84C250.55,494.02,230.72,513.85,206.35,513.85z M175.52,470.31c0.35,15.8,13.31,28.54,29.19,28.54h1.64 c15.88,0,28.84-12.74,29.19-28.54H175.52z"/></g><g id="change1_8"><path fill="#f4f4f4" d="M220.04,394.95c-0.5,0-1.01-0.05-1.51-0.16c-4.06-0.83-6.67-4.8-5.84-8.85l27.46-133.89l-12.73,5.65 c-3.63,1.61-7.9,0.11-9.71-3.43l-12.17-23.71l-12.17,23.71c-1.82,3.54-6.08,5.04-9.71,3.43l-12.73-5.65l27.46,133.89 c0.83,4.06-1.78,8.02-5.84,8.85c-4.06,0.83-8.02-1.78-8.85-5.84l-30.39-148.16c-0.56-2.75,0.46-5.59,2.64-7.35 c2.19-1.76,5.18-2.15,7.74-1.01l19.57,8.68l15.61-30.4c1.28-2.5,3.86-4.07,6.67-4.07c2.81,0,5.39,1.57,6.67,4.07l15.61,30.4 l19.57-8.68c2.57-1.14,5.56-0.75,7.74,1.01c2.19,1.76,3.21,4.6,2.64,7.35l-30.39,148.16C226.65,392.5,223.53,394.95,220.04,394.95z"/></g><g id="change1_10"><path fill="#f4f4f4" d="M200.44,74.23c-4.14,0-7.5-3.36-7.5-7.5V7.5c0-4.14,3.36-7.5,7.5-7.5s7.5,3.36,7.5,7.5v59.23 C207.94,70.88,204.58,74.23,200.44,74.23z"/></g><g id="change1_3"><path fill="#f4f4f4" d="M305.76,113.02c-1.92,0-3.84-0.73-5.3-2.2c-2.93-2.93-2.93-7.68,0-10.61l38.84-38.84 c2.93-2.93,7.68-2.93,10.61,0s2.93,7.68,0,10.61l-38.84,38.84C309.6,112.28,307.68,113.02,305.76,113.02z"/></g><g id="change1_6"><path fill="#f4f4f4" d="M401.94,199.72h-53c-4.14,0-7.5-3.36-7.5-7.5s3.36-7.5,7.5-7.5h53c4.14,0,7.5,3.36,7.5,7.5 S406.08,199.72,401.94,199.72z"/></g><g id="change1_2"><path fill="#f4f4f4" d="M103.68,110.06c-1.92,0-3.84-0.73-5.3-2.2L59.54,69.02c-2.93-2.93-2.93-7.68,0-10.61 c2.93-2.93,7.68-2.93,10.61,0l38.84,38.84c2.93,2.93,2.93,7.68,0,10.61C107.52,109.32,105.6,110.06,103.68,110.06z"/></g><g id="change1_11"><path fill="#f4f4f4" d="M60.5,196.76h-53c-4.14,0-7.5-3.36-7.5-7.5s3.36-7.5,7.5-7.5h53c4.14,0,7.5,3.36,7.5,7.5 S64.64,196.76,60.5,196.76z"/></g></svg>