<?xml version="1.0" encoding="UTF-8" standalone="no"?><svg xmlns="http://www.w3.org/2000/svg" xmlns:xlink="http://www.w3.org/1999/xlink" contentScriptType="text/ecmascript" fill="#000000" width="1081.8" zoomAndPan="magnify" contentStyleType="text/css" viewBox="-0.0 -3.5 1081.8 232.7" height="232.7" preserveAspectRatio="xMidYMid meet" version="1"><g id="change1_1"><path fill="#1b1b19" d="M1080.37341,225.40671c-31.07227-27.78223-60.99805-54.53125-89.83203-80.30566 C936.80115,97.0659,886.85291,52.41892,840.34119,10.79392l-0.19727-0.17627l-0.26465,0.00293 c-12.35449,0.14014-24.7793-1.28027-36.80469-2.65869c-19.10547-2.19043-38.85938-4.45508-58.69043-0.46289 c-4.57812,0.92187-9.09766,2.0957-13.46777,3.23096c-6.23145,1.61865-12.67383,3.29199-19.30469,4.23047 c-15.57422,2.20313-27.1709-0.95166-38.65332-4.67041c-2.7207-0.88135-5.49805-1.87305-8.18359-2.83154 c-8.70508-3.10791-17.70605-6.32178-28.20117-7.21289c-10.53516-0.896-20.1748,2.79639-27.38965,6.1123 c-2.80762,1.29053-5.59375,2.69824-8.28906,4.06006c-6.05957,3.06152-12.3252,6.22754-19.40723,8.36084 c-8.96094,2.70068-17.17773,2.62842-26.63965-0.22949c-6.12793-1.85205-11.55273-4.29004-16.79834-6.64795 c-3.47949-1.56396-7.07764-3.18115-10.83008-4.60303c-6.85889-2.59766-15.03027-5.18604-25.24463-2.98633 c-8.89893,1.91602-17.10254,6.14746-25.03613,10.24023c-10.15039,5.23584-20.64648,10.65039-32.5459,11.10352 c-10.00244,0.3916-16.36426-4.40967-21.47266-8.25977l-1.1665-0.87549c-1.125-0.83692-2.2168-1.71924-3.37256-2.65332 c-4.55029-3.67773-9.25537-7.48047-16.55762-9.01904c-10.19043-2.14795-22.27539,3.47168-31.98584,7.98584l-1.20654,0.56006 c-2.80762,1.30176-5.68945,2.71533-8.47607,4.08301c-8.51514,4.17725-17.32031,8.49707-26.77441,11.0957 c-18.67773,5.13379-21.49463-4.81006-24.21729-14.42822c-1.53271-5.41455-2.97998-10.52881-7.10645-12.87646 c-8.4292-4.79443-27.64258,5.19336-39.12158,11.16309c-1.6748,0.87109-3.16309,1.64453-4.39648,2.25586 c-2.58202,1.27832-5.20604,2.63086-7.98387,4.06299c-12.45703,6.42139-26.57617,13.69971-40.5083,15.81592l-0.20459,0.03076 L144.63466,94.3325c-46.10548,42.23534-93.771,85.90038-143.0708,131.06738l-1.56396,1.43359l2.10547-0.25684 c13.47949-1.64062,26.89209-8.56055,37.66992-14.12012c14.72852-7.59766,28.98339-15.91992,42.76953-23.96875 c3.60547-2.10449,7.20508-4.20605,10.80908-6.29297c1.84814-1.07031,3.7041-2.15137,5.56787-3.2373 c13.02588-7.58887,26.49512-15.43555,40.76807-21.45801c8.04443-3.39551,17.90381-6.6748,22.78418-1.85938 c4.33887,4.28125,4.58398,11.01758,4.80078,16.96191c0.02295,0.625,0.04492,1.24316,0.07178,1.85059 c0.17529,3.97949,0.16309,8.10547,0.15137,12.09668c-0.01611,5.41309-0.03271,11.00977,0.40723,16.4873l0.06299,0.79199 c0.54297,6.87793,1.21875,15.43848,8.08594,20.19336c5.17822,3.58496,13.64502,3.14648,25.16602-1.30469 c18.72803-7.23828,35.24756-18.08008,51.22314-28.56445c5.87987-3.8584,11.43358-7.50391,17.10106-10.98535 c1.06396-0.65332,2.20947-1.36816,3.42383-2.12695c13.25342-8.27441,35.43701-22.125,49.17236-15.98828 c6.59619,2.94727,10.2583,8.16895,13.48877,12.77637c3.31055,4.72168,6.1875,9.78809,8.96973,14.6875 c1.2251,2.1582,2.45361,4.32227,3.72754,6.47656c0.55518,0.93945,1.13867,1.98047,1.76123,3.09082 c5.49805,9.80469,13.73828,24.50488,31.89941,24.50293c0.43457,0,0.87793-0.00781,1.32373-0.02539 c17.17969-0.65918,33.95508-12.5625,46.2041-21.25391c1.10693-0.78613,2.17627-1.54492,3.2041-2.26562 c3.08496-2.16309,6.15527-4.44531,9.40576-6.8623c11.64844-8.66211,23.69385-17.61914,38.24707-22.4834 c18.83984-6.29883,32.66357,3.54297,42.75684,10.72949l0.27002,0.19141c5.5874,3.97754,10.94043,8.31543,16.1167,12.51074 c8.90479,7.2168,18.11279,14.67871,29.27393,21.0166c15.61719,8.86621,31.55176,10.33984,50.14453,4.64062 c10.52441-3.22559,20.01172-7.80859,29.1875-12.24121c4.96094-2.39648,10.08984-4.875,15.30371-7.09668 c18.06543-7.69922,33.36621-9.86719,49.61621-7.03223c16.35742,2.85449,31.47461,8.22559,46.09473,13.41895 c5.06934,1.80176,10.31152,3.66406,15.53027,5.39453c22.61523,7.50098,45.14941,13.90527,72.0957,9.94141 c12.13184-1.78418,23.54199-5.15625,34.57715-8.41602c7.58887-2.24316,15.43652-4.56152,23.46289-6.34863 c27.43555-6.10938,54.29785-2.30078,77.3252,1.74707c7.58105,1.33301,15.33984,2.84277,22.84277,4.30371 c23.96289,4.66406,48.74219,9.48633,74.93359,10.1377l1.84863,0.0459L1080.37341,225.40671z M193.85878,126.01414 c-4.27393-7.44434-15.58154-3.64941-24.95557,0.49121c-13.74365,6.06933-26.61865,13.65624-39.06982,20.99413 c-1.85548,1.09277-3.7046,2.18262-5.5503,3.26367c-3.83789,2.24805-7.66895,4.51172-11.50488,6.77832 c-12.94336,7.64844-26.32715,15.55664-40.09229,22.89551l-0.79492,0.4248c-10.87719,5.80206-23.12432,12.33063-35.62133,14.58728 c8.93091-8.18188,17.80579-16.31244,26.62781-24.39429c13.23443-1.91431,26.08075-8.70343,37.42126-14.70081l0.94189-0.49805 c12.08057-6.38379,23.88135-13.20898,35.29444-19.80957c3.50781-2.0293,7.01172-4.05566,10.52197-6.06934l4.32861-2.49023 c11.28711-6.50098,22.9585-13.22461,35.36133-18.6416c9.12012-3.98438,18.14844-6.97168,22.40918-1.89062 c3.42236,4.08203,3.28027,10.17188,3.15479,15.54492c-0.0166,0.70898-0.0332,1.4082-0.0415,2.09277 c-0.03711,3.01562-0.18457,6.12792-0.32715,9.13769c-0.25977,5.48633-0.52832,11.16016-0.16504,16.69238l0.02002,0.30176 c0.35156,5.38086,0.75049,11.47949,5.38086,15.59375c4.38477,3.89551,12.23096,3.68945,23.98438-0.63379 c15.75047-5.79395,29.77928-14.39648,43.34569-22.71484c5.21094-3.19531,10.59912-6.49902,15.88477-9.50781l1.85742-1.06055 c12.45508-7.12402,31.27539-17.89257,43.82227-12.11425c9.47559,4.36133,14.5166,12.13964,19.3916,19.66113 c1.51611,2.33887,2.94775,4.54785,4.50928,6.66309c0.49512,0.66992,1.00928,1.38867,1.54736,2.14062 c5.33057,7.45215,13.22803,18.49707,28.65039,18.49512c0.93115,0,1.89258-0.04004,2.87988-0.12402 c14.67969-1.24609,28.37793-10.06934,39.38477-17.1582l2.43945-1.56738c2.6665-1.70508,5.35791-3.53418,8.20703-5.46973 c10.43555-7.0918,22.26416-15.12988,35.59521-18.44921c15.31299-3.81152,26.96289,3.31543,35.46826,8.5205 c5.10889,3.12598,9.99463,6.58301,14.71973,9.92676c8.33838,5.90137,16.96143,12.00293,27.5249,16.875 c13.6416,6.28809,27.0459,6.64941,40.97852,1.10254c10.28223-4.09375,18.82812-9.67969,27.0918-15.08105 c4.53223-2.96191,9.21973-6.02539,14.09375-8.76855c14.5166-8.16797,26.74121-10.6953,39.63867-8.18457 c15.51758,3.01855,28.90625,9.28809,41.85547,15.35254c4.66992,2.18652,9.49805,4.44824,14.30664,6.49414 c18.11035,7.70605,36.46094,14.33398,61.73438,10.80371c10.43848-1.45703,20.45605-4.12695,30.14355-6.70898 c7.21973-1.9248,14.68555-3.91504,22.28125-5.3916c29.62305-5.76367,57.97363-0.98047,87.99023,4.08008 c19.16882,3.23254,38.98822,6.57202,59.03101,6.84857c10.776,9.63208,21.70178,19.39838,32.77979,29.30133 c-21.23798-0.57928-42.23096-4.39752-62.55005-8.10303c-33.46582-6.10156-65.07617-11.86621-98.1377-4.60547 c-7.08496,1.55469-14.05273,3.50586-20.79102,5.39258c-10.27539,2.87695-20.90137,5.85254-32.04004,7.4375 c-25.17969,3.58691-45.97754-1.93555-66.82617-8.41504c-4.58594-1.42578-9.21582-2.96387-13.69336-4.45117 c-13.79883-4.58398-28.06738-9.32422-43.5625-11.6416c-14.61133-2.18457-29.08008-0.1543-45.54395,6.38965 c-5.1875,2.06152-10.2959,4.40332-15.23535,6.66797c-9.50293,4.35645-19.33008,8.86133-30.23438,11.61523 c-15.15137,3.82422-28.08691,2.68457-40.70801-3.59863c-11.17285-5.56152-20.26074-12.44824-29.0498-19.1084 c-5.45459-4.13281-11.09473-8.40723-17.10107-12.24707c-8.20947-5.24805-20.61621-13.17871-36.77686-9.16113 c-14.85352,3.69434-27.90186,13.03125-39.41455,21.26758c-3.21777,2.30273-6.25732,4.47754-9.21924,6.4502 c-0.78857,0.52539-1.60352,1.07227-2.44385,1.63672c-11.5835,7.77637-27.44824,18.42773-43.03369,18.46387 c-0.0249,0-0.04785,0-0.07227,0c-16.18848,0-24.05615-12.3623-29.26367-20.54492c-0.59619-0.9375-1.16162-1.8252-1.70361-2.6416 c-1.52295-2.29395-2.93408-4.78711-4.42871-7.42578c-4.92627-8.70215-10.51074-18.56543-21.87109-23.18457 c-13.48242-5.4873-32.87158,6.01465-45.70312,13.62207c-0.85938,0.50879-1.68506,0.99902-2.47314,1.46094 c-5.8042,3.41016-11.68652,7.12695-17.375,10.72168c-14.38622,9.0918-29.26268,18.49316-45.97557,25.07617 c-12.07764,4.75781-20.59473,5.11816-24.63037,1.04004c-4.78418-4.83496-4.59766-12.30371-4.43311-18.89258l0.03125-1.31543 c0.11084-5.18066,0.58203-10.47461,1.03809-15.59375c0.28613-3.21387,0.58203-6.53613,0.78223-9.77344 c0.03955-0.6377,0.0835-1.28223,0.12744-1.93164C196.45595,137.89499,196.90321,131.31686,193.85878,126.01414z M1003.99622,158.95309c-19.40356-0.42413-38.63232-3.65765-57.24585-6.79541c-28.81445-4.85938-58.6123-9.88281-88.47559-4.0752 c-7.6416,1.48633-15.12988,3.48242-22.37207,5.41309c-9.64746,2.57129-19.625,5.23047-29.98047,6.67578 c-24.96094,3.4834-42.40039-2.78711-61.01367-10.70801c-4.78613-2.03613-9.60449-4.29297-14.26367-6.47461 c-13.02246-6.09863-26.49023-12.40527-42.17188-15.45605c-13.23633-2.5752-25.74609-0.00293-40.56641,8.33495 c-4.91309,2.76465-9.61914,5.84082-14.16992,8.81543c-8.20801,5.36523-16.69531,10.91211-26.85156,14.95605 c-13.56641,5.40137-26.62012,5.05078-39.9043-1.0752c-10.4502-4.81836-19.02051-10.88281-27.30957-16.74902 c-4.74316-3.35645-9.64746-6.82715-14.79541-9.97656c-8.71045-5.33007-20.63672-12.62695-36.50684-8.68066 c-13.56641,3.37793-25.50146,11.48827-36.03125,18.64355c-2.84131,1.93164-5.52441,3.75488-8.1748,5.44922l-2.44336,1.57031 c-10.88037,7.00781-24.4209,15.72852-38.76367,16.94629c-16.56641,1.40723-24.83594-10.15625-30.30859-17.80664 c-0.54248-0.75879-1.06055-1.48242-1.55908-2.1582c-1.53711-2.08105-2.95801-4.27344-4.4624-6.59375 c-4.98047-7.68457-10.13086-15.63085-19.96436-20.1582c-13.18555-6.06641-32.36963,4.90723-45.06641,12.16991l-1.85498,1.05957 c-5.30518,3.01855-10.70264,6.32812-15.92285,9.5293c-13.51025,8.28418-27.48047,16.85059-43.10448,22.59766 c-11.2373,4.13574-18.6333,4.42773-22.61133,0.89355c-4.2124-3.74219-4.59229-9.54492-4.92725-14.66504l-0.01953-0.30273 c-0.3584-5.45508-0.09131-11.08984,0.1665-16.53809c0.14307-3.02148,0.29102-6.1455,0.32861-9.18456 c0.0083-0.68066,0.02441-1.375,0.04102-2.07812c0.13086-5.61328,0.2793-11.97559-3.47217-16.45117 c-4.83545-5.7666-14.3916-2.67773-23.99609,1.51855c-12.47217,5.44727-24.17676,12.18945-35.49561,18.70898l-4.32666,2.48925 c-3.51172,2.01367-7.01709,4.04102-10.52637,6.07129c-11.40186,6.59375-23.19141,13.41309-35.24903,19.78418l-0.94238,0.49805 c-10.65771,5.63666-22.65643,11.97742-34.95203,14.22467c7.89636-7.23389,15.75085-14.42932,23.56055-21.58362 c13.26996-1.94843,26.13544-8.73126,37.49353-14.72308l0.41064-0.2168c10.3921-5.48241,20.62745-11.26659,30.52589-16.86034 c3.3125-1.87207,6.62207-3.74219,9.93896-5.60352l3.45605-1.94238c10.1875-5.73242,20.72217-11.65918,31.85645-16.52441 c8.37988-3.66211,17.53906-6.8916,21.93848-3.08691c4.30371,3.72266,4.33008,10.04004,4.35303,15.61328 c0.00342,0.78418,0.00684,1.55078,0.02148,2.29297c0.04395,2.17383,0.03906,4.4082,0.03467,6.56934 c-0.00928,4.5332-0.01855,9.2207,0.40771,13.79688l0.0166,0.17871c0.4668,5.01952,1.04736,11.26659,5.60645,15.21581 c4.09033,3.54199,11.31836,3.60156,21.48096,0.17773c14.96043-5.04102,28.44383-13.06445,41.48289-20.82323 c4.74023-2.82129,9.21729-5.48535,13.75732-8.00977c0.75439-0.41992,1.5415-0.86133,2.35791-1.32031 c11.24316-6.31055,28.23291-15.84473,40.2373-12.25488c10.10742,3.02637,15.68604,10.94434,20.60791,17.92969 c1.39795,1.98438,2.71826,3.8584,4.09814,5.57324c0.52832,0.65625,1.07178,1.35352,1.63623,2.07715 c5.54395,7.10741,13.13037,16.83691,28.08594,16.83593c0.02588,0,0.05371,0,0.0791,0 c14.03564-0.0332,28.64502-8.99512,39.3125-15.53905l1.76514-1.08105c2.61963-1.59961,5.20459-3.26562,7.94092-5.03027 c9.80225-6.31934,19.93799-12.85352,31.88916-16.3623c15.50781-4.55176,27.39453,2.2041,35.26123,6.67676 c5.00293,2.84375,9.78076,5.99609,14.40088,9.04492c7.30957,4.82324,14.86816,9.81054,23.78418,13.93163 c13.7627,6.36133,26.61035,6.89551,40.43262,1.68164c9.69336-3.6582,17.81738-8.76366,25.67383-13.70019 c3.83496-2.41016,7.80078-4.90234,11.85547-7.15918c10.44336-5.81543,23.26367-11.36621,39.15527-8.43848 c14.20996,2.61621,26.40918,8.08008,38.20703,13.36426c3.90234,1.74707,7.9375,3.55469,11.95801,5.2168 c18.46387,7.63085,35.75586,13.66015,60.41211,10.16698c9.54199-1.35449,18.7832-3.70801,27.71875-5.98535 c6.54492-1.66698,13.31348-3.39159,20.15625-4.71191c28.05762-5.41699,54.5752-1.3125,82.65137,3.03223 c17.76282,2.74798,36.12738,5.58739,54.82458,5.75323c4.66119,4.1665,9.34076,8.34949,14.06018,12.56805 C994.388,150.36484,999.18274,154.6506,1003.99622,158.95309z M131.67708,108.04716 c10.25409-1.53638,19.77521-5.8905,29.43365-10.60431c9.97803-4.86914,19.69336-10.16797,29.08887-15.29297 c2.94141-1.60352,5.87891-3.20605,8.82373-4.79492l3.77441-2.04492c9.41895-5.11133,19.15918-10.39746,29.42139-14.48829 c7.19189-2.86816,14.44727-5.05078,18.80664-1.62793c3.29785,2.58887,3.88477,6.59961,4.45264,10.47852l0.14648,0.9873 c0.41795,2.74414,0.66795,5.60254,0.91014,8.36719c0.27686,3.16406,0.56348,6.43652,1.10449,9.62988l0.07959,0.47363 c0.75244,4.47461,1.68848,10.04395,6.44678,13.39844c4.31055,3.04004,11.39893,2.76758,21.66895-0.83594 c12.16309-4.26758,23.22461-10.41895,33.92236-16.36816c3.88086-2.1582,7.89355-4.38965,11.82764-6.45215l1.94678-1.02539 c10.40869-5.49316,26.13916-13.79102,37.37549-10.48926c8.8667,2.60938,13.94092,8.57715,18.84766,14.34863 c1.40381,1.65137,2.72949,3.20996,4.12988,4.67383c0.39795,0.41504,0.80664,0.84961,1.22803,1.29785 c5.43408,5.77246,12.86182,13.66699,26.08984,13.45898c12.56738-0.20801,25.56592-7.54004,35.05713-12.89453l1.15576-0.65137 c2.38232-1.34082,4.74463-2.74512,7.24512-4.23047c9.1748-5.45215,18.6626-11.08887,29.61621-13.87109 c12.20117-3.10059,21.42969,0.64453,29.83398,4.74316c4.93701,2.4082,9.61328,5.1543,14.13525,7.80957 c7.07275,4.15332,14.38721,8.44922,23.1333,11.75684c11.49805,4.34668,22.29883,4.45117,33.98828,0.33008 c8.81445-3.10938,16.32129-7.46973,23.58105-11.68652c3.75781-2.18262,7.64258-4.43848,11.62891-6.46973 c12.95215-6.60059,23.71289-8.68262,34.8877-6.75977c12.24219,2.11133,22.89258,6.50684,33.19141,10.75781 c3.40723,1.40625,6.92969,2.86035,10.43262,4.19727c15.70996,5.99609,30.42188,10.74609,51.36426,8.14355 c9.18359-1.1416,18.14941-3.23926,26.82031-5.26758c5.89551-1.37988,11.99316-2.80664,18.11621-3.92383 c24.81836-4.52637,48.03906-1.47266,72.62305,1.76074c15.45709,2.03351,31.43597,4.13464,47.74915,4.13806 c7.21191,6.44763,14.49518,12.95862,21.85565,19.53839c-16.83563-0.20636-33.36139-2.53528-49.3587-4.81122 c-25.125-3.5752-51.10645-7.27051-77.69727-2.33008c-6.57129,1.2207-13.07422,2.80859-19.36426,4.34375 c-9.00293,2.19824-18.3125,4.4707-27.86523,5.66797c-21.76953,2.72559-37.32129-2.51465-53.96484-9.11719 c-3.75-1.48828-7.55664-3.1377-11.23828-4.7334c-11.61523-5.03223-23.62598-10.23633-37.72949-12.29004 c-11.25195-1.64062-22.29297,0.83203-35.79297,8.01465c-4.02539,2.1416-7.95703,4.52441-11.75977,6.8291 c-7.73535,4.68848-15.73438,9.53613-25.20605,12.81445c-11.89355,4.11328-23.41992,3.70996-35.23438-1.23828 c-8.70898-3.64844-16.08008-8.22949-23.20801-12.66113c-4.58105-2.84766-9.31787-5.79199-14.31982-8.4248 c-9.19336-4.84082-19.28125-9.28613-32.59473-5.9834c-11.82275,2.93457-22.4209,9.52637-31.77148,15.3418 c-2.64893,1.64746-5.15137,3.20312-7.6416,4.66211l-1.3335,0.78223c-9.88574,5.80469-22.18896,13.02832-34.83887,13.9209 c-14.43555,1.01465-22.09375-7.90723-27.68555-14.4248c-0.50977-0.59375-1.00049-1.16602-1.4751-1.70508 c-1.37402-1.56152-2.6748-3.20605-4.05273-4.94727c-4.92725-6.22949-10.02246-12.66992-19.02344-16.06543 c-12.23535-4.6123-29.28613,4.56445-40.56885,10.63867l-1.48145,0.79688c-4.49854,2.41309-9.10449,5.06738-13.55859,7.63379 c-11.88867,6.85059-24.18262,13.93457-37.69385,18.52148c-9.15723,3.1084-15.45457,3.5459-19.25096,1.33887 c-4.74902-2.7627-5.58301-7.84668-6.31934-12.33301l-0.04883-0.2998c-0.69189-4.2041-0.87744-8.57715-1.05713-12.80762 c-0.11182-2.62695-0.22705-5.34375-0.4624-7.98145c-0.05029-0.55859-0.09375-1.12891-0.13818-1.70605 c-0.34961-4.55469-0.74609-9.71777-4.50391-13.2168c-5.13281-4.7793-13.78564-1.78613-22.20898,1.69141 c-10.69092,4.41113-20.71533,9.95996-30.41016,15.3252l-3.81836,2.11035c-3.3335,1.83594-6.65967,3.69238-9.99121,5.55176 c-10.54004,5.88281-21.43896,11.9668-32.7085,17.45312c-8.15955,3.97186-17.33363,8.4342-27.30628,10.29688 C119.21198,119.46604,125.45649,113.74558,131.67708,108.04716z M111.09296,126.90354 c10.97119-1.62628,20.9416-6.47656,29.74384-10.76147c11.30371-5.50293,22.21924-11.5957,32.77588-17.4873 c3.32959-1.8584,6.65283-3.71387,9.98438-5.54883l3.8208-2.11133c9.66113-5.34668,19.65137-10.87598,30.27002-15.25781 c8.01465-3.30859,16.21875-6.18457,20.76367-1.95312c3.36865,3.13672,3.72754,7.80762,4.07422,12.3252 c0.04492,0.58301,0.08887,1.1582,0.13916,1.72266c0.23291,2.60645,0.34766,5.30664,0.4585,7.91797 c0.18164,4.27051,0.36865,8.68555,1.07373,12.9707l0.04932,0.29883c0.74609,4.5459,1.67432,10.2041,6.97803,13.28906 c4.21191,2.4502,10.68651,2.06055,20.37206-1.22559c13.6377-4.62988,25.98975-11.74805,37.93555-18.63184 c4.6499-2.67969,9.04199-5.21094,13.52246-7.61328l1.4834-0.79785c11.06543-5.95703,27.78857-14.95898,39.44336-10.56348 c8.64893,3.26172,13.625,9.55176,18.43701,15.63574c1.38916,1.75586,2.70117,3.41406,4.09814,5.00195 c0.47119,0.53516,0.95801,1.10254,1.46387,1.69238c5.45459,6.35645,13.70605,15.94922,28.81396,14.89648 c12.96826-0.91504,25.42383-8.22852,35.43164-14.10547l1.33252-0.78125c2.50586-1.46777,5.01562-3.02832,7.67236-4.68066 c9.26514-5.7627,19.7666-12.29395,31.38135-15.17676c12.84473-3.18848,22.67139,1.14844,31.63281,5.86621 c4.95898,2.61133,9.6748,5.54199,14.23535,8.37695c7.17334,4.45996,14.59229,9.07031,23.40088,12.75977 c12.1377,5.08496,23.98145,5.49902,36.20508,1.26953c9.60742-3.3252,17.66992-8.21094,25.46582-12.93555 c3.78711-2.29492,7.70215-4.66797,11.69336-6.79199c13.22852-7.03711,24.00781-9.46484,34.95898-7.87012 c13.92383,2.02734,25.84961,7.19531,37.38379,12.19336c3.69043,1.59863,7.50781,3.25293,11.27734,4.74805 c16.82227,6.67383,32.54297,11.97656,54.63672,9.20312c9.62988-1.20703,18.97754-3.48926,28.01855-5.69531 c6.27051-1.53125,12.75586-3.11426,19.28906-4.32812c26.37402-4.90039,51.08887-1.38477,77.25684,2.33887 c16.53876,2.35309,33.63739,4.78088,51.10626,4.8548c8.18829,7.3197,16.47614,14.72809,24.85059,22.21386 c-18.06195-0.30334-35.84814-3.04779-53.06622-5.71221c-26.95508-4.1709-54.82617-8.48438-83.11719-3.02344 c-6.88281,1.32812-13.66992,3.05762-20.23438,4.73046c-8.90039,2.26758-18.10449,4.6123-27.57422,5.95508 c-24.31836,3.45215-41.4248-2.52344-59.70117-10.07714c-4.00195-1.6543-8.02832-3.45703-11.9209-5.2002 c-11.87207-5.31738-24.14746-10.81445-38.51758-13.46094c-16.31836-3.00488-29.4082,2.6543-40.06348,8.58691 c-4.08594,2.27539-8.06641,4.77734-11.91699,7.19629c-7.7998,4.90137-15.86523,9.9707-25.43066,13.57909 c-13.45801,5.0791-25.97168,4.55566-39.38184-1.64258c-8.82227-4.0791-16.33789-9.0371-23.60498-13.833 c-4.63916-3.06055-9.43604-6.22656-14.47852-9.0918c-8.06592-4.58594-20.25732-11.5166-36.31592-6.79883 c-12.14014,3.56348-22.35986,10.15234-32.24316,16.52344c-2.72949,1.75977-5.30762,3.42188-7.91309,5.01367l-1.76758,1.08203 c-10.52979,6.45898-24.95117,15.30566-38.604,15.33788c-0.02539,0-0.04932,0-0.07471,0 c-14.29004,0-21.64404-9.42676-27.01465-16.31249c-0.56885-0.72949-1.1167-1.43164-1.64941-2.09375 c-1.35254-1.68066-2.66064-3.53711-4.04541-5.50293c-5.04932-7.16602-10.77197-15.28809-21.33057-18.44922 c-12.55225-3.7627-29.84863,5.94824-41.29248,12.37207c-0.81494,0.45703-1.60107,0.89844-2.35352,1.31641 c-4.55762,2.53516-9.04297,5.2041-13.7915,8.03027c-12.97803,7.72265-26.39844,15.70898-41.22215,20.70312 c-9.67383,3.25879-16.45508,3.28613-20.15576,0.08301c-4.146-3.5918-4.67529-9.28809-5.14258-14.31347l-0.0166-0.17969 c-0.42041-4.51074-0.41064-9.16602-0.40186-13.66699c0.00439-2.16895,0.00928-4.41113-0.03467-6.59961 c-0.01514-0.73438-0.01807-1.49512-0.02148-2.27148c-0.02441-5.86328-0.05225-12.50879-4.82373-16.63672 c-4.95605-4.28613-14.16309-1.15234-23.37305,2.87012c-11.19678,4.8916-21.76172,10.83594-31.979,16.58496l-3.45459,1.94238 c-3.31787,1.86035-6.62842,3.73145-9.94238,5.60449c-9.88965,5.58887-20.1167,11.36914-30.49122,16.84179l-0.41064,0.2168 c-10.67395,5.63098-22.69159,11.96692-35.02002,14.2417C97.14851,139.67764,104.14387,133.26944,111.09296,126.90354z M197.27016,47.95865c14.95532-2.31158,30.20679-10.34711,43.67017-17.44403c3.18506-1.6792,6.19385-3.26514,9.11621-4.73486 c1.31299-0.66016,2.86621-1.47949,4.5957-2.39209c11.13475-5.87451,29.77293-15.70654,37.94237-11.28955 c3.90625,2.1123,5.2124,7.49414,6.59521,13.1919c1.5791,6.50732,3.2124,13.23681,8.85303,16.43799 c4.34766,2.46729,10.4707,2.4248,18.72021-0.13037c9.72656-3.01318,18.67285-7.49365,27.32471-11.82666 c2.8833-1.44385,5.86426-2.93701,8.78564-4.32764l1.27002-0.60645c9.17188-4.38135,21.73291-10.38086,31.56445-8.50049 c7.60449,1.45654,12.375,5.60742,16.98828,9.62207c1.20605,1.04883,2.34473,2.04004,3.52588,2.97559 c0.39795,0.31494,0.80273,0.64014,1.21582,0.97217c5.48535,4.40576,12.30469,9.88916,23.71973,9.33398 c12.67188-0.61768,23.53955-6.41895,34.0498-12.02929c8.21387-4.38428,16.70703-8.91846,25.97852-10.91504 c9.96387-2.146,17.91504,0.45459,24.5874,3.06006c4.14941,1.62061,8.11133,3.49023,11.94238,5.29834 c5.47607,2.58447,11.13818,5.25635,17.58838,7.33643c10.12891,3.26562,19.45898,3.31006,29.36328,0.14209 c7.21289-2.30713,13.54102-5.57471,19.66016-8.73486c3.22754-1.6665,6.56543-3.39014,9.96582-4.93457 c10.93848-4.96826,19.81934-6.64307,28.79785-5.42871c10.07812,1.3623,18.89844,4.5669,27.42871,7.66602 c3.09863,1.12598,6.30371,2.29004,9.49609,3.3374c13.22363,4.33691,24.52441,6.65576,39.97852,4.82129 c7.5293-0.89355,15.00586-2.43701,22.23633-3.92969c4.52539-0.93457,9.20508-1.90039,13.85742-2.69922 c20.55371-3.52832,39.50781-1.74609,59.57422,0.13965c12.28937,1.15527,24.99158,2.34277,38.01416,2.1825 c4.59619,4.11224,9.22101,8.24963,13.8833,12.42016c-13.19873,0.02625-26.0752-1.26208-38.54395-2.52454 c-20.46582-2.07129-41.62891-4.21387-63.71191-0.24658c-4.62109,0.83008-9.25977,1.81445-13.74512,2.7666 c-7.90918,1.67871-16.08789,3.41455-24.3291,4.33154c-17.03809,1.90137-29.65234-1.81689-42.12988-6.13037 c-2.83496-0.97949-5.71387-2.05615-8.49902-3.09717c-8.98438-3.35986-18.27539-6.83349-28.97168-8.27441 c-9.73926-1.30908-19.39844,0.64014-31.31738,6.32812c-3.19629,1.52539-6.3584,3.21045-9.41602,4.83984 c-6.27832,3.34668-12.76953,6.80664-20.1123,9.20117c-10.30859,3.36035-19.96582,3.25049-30.39355-0.35059 c-6.55273-2.26221-12.33887-5.13184-17.93359-7.90674c-3.74902-1.85986-7.62598-3.78223-11.67432-5.49023 c-7.6665-3.23584-16.83545-6.44189-28.65723-3.52295c-9.01514,2.22705-17.125,6.54492-24.96826,10.7207 c-2.0415,1.08691-4.04443,2.15332-6.01318,3.15332l-0.62793,0.31934c-8.79004,4.46777-19.72949,10.02881-30.34375,10.25635 c-10.8877,0.22412-17.45752-5.3999-22.74023-9.92578l-1.07275-0.91602c-1.20166-1.01758-2.37549-2.11768-3.61865-3.28223 c-4.69434-4.39795-10.01465-9.38281-18.47461-11.07129c-10.37988-2.07178-23.29736,4.18506-32.72949,8.7539l-0.97363,0.47168 c-3.43555,1.66064-6.95605,3.47949-10.36035,5.23779c-9.63379,4.97705-19.5957,10.12305-30.40674,13.27344 c-7.55371,2.20166-13.10254,2.12842-16.9585-0.22363c-5.29395-3.229-6.67773-10.35498-8.0166-17.24609 c-1.28662-6.62695-2.50244-12.88623-7.11914-15.41015c-8.62109-4.71289-29.17528,6.25586-40.21727,12.14795 c-1.63037,0.87012-3.05713,1.63184-4.21094,2.21826c-2.68945,1.36719-5.36816,2.74561-8.04834,4.12451 c-7.63916,3.93115-15.53809,7.99609-23.61523,11.74268c-7.31567,3.39398-14.59076,6.54523-22.77271,8.10773L197.27016,47.95865z M182.95924,61.06864c9.22418-1.41669,17.19702-4.86969,25.22229-8.59308c8.10254-3.75879,16.01416-7.83008,23.66553-11.76709 c2.67773-1.37842,5.35449-2.75537,8.04199-4.12158c1.16064-0.58984,2.5957-1.35596,4.23535-2.23096 c10.81543-5.77197,30.94774-16.51709,38.9243-12.15478c4.05566,2.21729,5.21191,8.17188,6.43652,14.47607 c1.39453,7.18115,2.83643,14.60645,8.64307,18.14844c4.20166,2.56348,10.104,2.68164,18.04785,0.36768 c10.9375-3.18701,20.9585-8.36377,30.6499-13.37012c3.55322-1.83545,6.90869-3.56934,10.32812-5.22217l0.9751-0.47168 c9.25879-4.48437,21.94238-10.62353,31.86963-8.64453c8.07959,1.6123,13.02686,6.24756,17.81104,10.72998 c1.25586,1.17676,2.44189,2.2876,3.66943,3.32764l1.06689,0.91064c5.17139,4.43066,12.22168,10.51953,23.65479,10.25342 c10.9248-0.23486,22.01758-5.87354,30.93066-10.4043l0.62793-0.31885c1.97607-1.00391,3.9873-2.07422,6.03613-3.16553 c7.77002-4.13672,15.8042-8.41406,24.65527-10.60107c11.41406-2.82129,20.33545,0.30518,27.80225,3.45557 c4.01025,1.69189,7.86768,3.60547,11.59863,5.45605c5.63379,2.79395,11.45898,5.68311,18.09473,7.97412 c10.72266,3.70312,20.65527,3.81689,31.25879,0.35742c7.45508-2.43115,14.00098-5.91943,20.33105-9.29346 c3.04395-1.62256,6.19238-3.30029,9.36133-4.81299c11.66602-5.56689,21.08984-7.48047,30.5498-6.20752 c10.54492,1.42041,19.7627,4.86719,28.67773,8.20019c2.79199,1.04443,5.67871,2.12402,8.5293,3.10889 c12.63086,4.3667,25.40039,8.12646,42.72559,6.19678c8.30762-0.92432,16.51953-2.66748,24.46094-4.35254 c4.47559-0.9502,9.10352-1.93213,13.70312-2.75879c21.89453-3.9331,42.02344-1.89551,63.33496,0.26123 c12.98145,1.31451,26.40784,2.66406,40.20453,2.53406c5.11011,4.57098,10.25244,9.17041,15.44263,13.81219 c-13.92719-0.01196-27.54095-1.50629-40.72333-2.9649c-21.26562-2.35254-43.25781-4.78467-66.0791-0.73047 c-5.26758,0.93652-10.53516,2.08643-15.62988,3.19873c-8.01465,1.75-16.30176,3.55908-24.67676,4.54736 c-17.83398,2.10645-30.83398-1.7251-42.61816-5.8291c-3.61523-1.25879-7.25684-2.67383-10.77832-4.04199 c-9.7666-3.79443-19.86621-7.71875-31.60254-9.29785c-12.83301-1.72559-24.15137,2.81934-31.54883,6.38818 c-3.5791,1.72754-7.10059,3.66211-10.50586,5.53223c-6.96875,3.82812-14.1748,7.78662-22.50977,10.354 c-10.28711,3.16992-20.04297,2.80762-30.70801-1.13184c-6.71387-2.48242-12.62988-5.57227-18.35156-8.56006 c-4.19824-2.19287-8.53906-4.45996-13.13086-6.44922c-7.7168-3.34375-16.17188-6.41455-27.16846-4.11133 c-10.21387,2.13818-19.70068,7.39844-28.0708,12.03906c-2.28564,1.26709-4.44385,2.46387-6.5835,3.58545l-0.70557,0.37012 c-8.81396,4.625-19.78369,10.37989-30.646,10.90137c-12.24023,0.5918-19.54297-6.26954-24.87598-11.27735 c-0.53369-0.50098-1.05029-0.98584-1.55322-1.44678c-1.07227-0.98291-2.12842-2.03809-3.24658-3.15479 c-4.70166-4.69629-10.03027-10.01904-18.71387-11.83252c-10.81494-2.25537-24.41211,4.55371-34.34082,9.52686l-1.79639,0.89795 c-3.41992,1.70166-6.92578,3.55713-10.31592,5.35156c-9.86279,5.21924-20.06104,10.61573-31.15479,13.9878 c-8.08887,2.45703-13.99854,2.40527-18.06738-0.1582c-5.72754-3.61035-6.95068-11.64746-8.1333-19.41944 c-1.01025-6.63672-1.96387-12.90576-5.8042-15.69238c-8.74219-6.34717-32.38182,6.65088-45.08153,13.63281 c-1.875,1.03076-3.50391,1.92627-4.79834,2.60205l-5.16016,2.69922c-7.71582,4.04102-15.69385,8.21973-23.7832,12.1416 c-8.64044,4.19037-17.1817,8.08533-26.43225,9.83863L182.95924,61.06864z M167.37654,75.34373 c10.23785-1.56012,19.50488-5.76697,28.88068-10.31299c8.10791-3.93164,16.0957-8.11524,23.8208-12.16114l5.1582-2.69824 c1.30127-0.6792,2.93896-1.57959,4.82422-2.61572c11.55029-6.3501,35.58543-19.56347,43.62743-13.72461 c3.37939,2.45312,4.29199,8.44873,5.25781,14.79639c1.17188,7.69824,2.49951,16.42383,8.75342,20.36524 c4.42285,2.78809,10.69922,2.88965,19.18799,0.30859c11.21924-3.40918,21.47607-8.83692,31.39551-14.08692 c3.53857-1.87207,6.88086-3.64111,10.28613-5.33545l1.79932-0.89941c9.75049-4.88379,23.10547-11.57275,33.45312-9.41113 c8.28711,1.72998,13.46387,6.90088,18.03076,11.46289c1.12891,1.12744,2.19482,2.19238,3.28906,3.19531 c0.49854,0.45703,1.01123,0.93848,1.54102,1.43604c5.51172,5.1748,13.07324,12.26661,25.87256,11.64454 c11.1626-0.53613,22.27979-6.36914,31.2124-11.05567l0.70557-0.37012c2.15332-1.12891,4.31885-2.32959,6.61084-3.60059 c8.28613-4.59424,17.67773-9.80127,27.69092-11.89795c10.60547-2.2207,18.83252,0.77148,26.34814,4.02832 c4.54688,1.97021,8.86523,4.22559,13.04199,6.40674c5.75879,3.00781,11.71484,6.11816,18.51074,8.62988 c10.95898,4.05078,20.99414,4.41602,31.5791,1.15723c8.46777-2.60938,15.73535-6.60156,22.76465-10.4624 c3.38965-1.86182,6.89453-3.7876,10.44238-5.49902c11.66309-5.62793,21.1543-7.56104,30.77539-6.26514 c11.57617,1.55713,21.59863,5.45166,31.29199,9.21729c3.53223,1.37256,7.18555,2.79199,10.82324,4.05908 c11.93457,4.15625,25.10156,8.03418,43.22559,5.89551c8.44043-0.99707,16.76074-2.81299,24.80664-4.56982 c5.08203-1.10938,10.33691-2.25684,15.57812-3.18848c22.62695-4.02051,43.5459-1.70703,65.69141,0.74316 c13.70123,1.51562,27.85339,3.07416,42.40277,2.9812c5.70184,5.09924,11.44843,10.2381,17.24786,15.42377 c-14.6842-0.09753-29.1402-1.80023-43.11841-3.49628c-22.23242-2.69532-45.22363-5.48438-68.875-1.28711 c-5.87207,1.04297-11.72266,2.36523-17.37988,3.64453c-8.21484,1.85742-16.70801,3.77832-25.32129,4.84375 c-19.54004,2.41602-33.77637-2.02637-47.83496-7.19922c-3.31836-1.2207-6.68164-2.57129-9.93359-3.87793 c-10.22559-4.10645-20.7998-8.35303-33.14062-10.02393c-9.95703-1.34961-20.08984,0.70996-31.89062,6.47803 c-4.0166,1.96387-7.90723,4.15918-11.66895,6.28125c-6.70508,3.7832-13.6377,7.69434-21.61328,10.49219 c-11.21582,3.93457-21.6416,3.86719-32.80762-0.21289c-7.83984-2.86328-14.53906-6.5752-21.01807-10.16504 c-4.52686-2.50879-9.2085-5.10254-14.20166-7.3584c-8.3125-3.75488-17.58789-6.82666-29.06396-3.91211 c-10.39697,2.64258-19.44775,7.82031-28.20068,12.82715c-2.41797,1.38281-4.70117,2.68945-6.99854,3.93457l-0.91016,0.49316 c-8.84521,4.80078-19.85352,10.77539-30.93994,11.55859c-12.97119,0.91797-20.39697-6.33301-25.81787-11.62793l-1.03711-1.00879 c-1.33984-1.29395-2.64844-2.72559-4.03369-4.24121c-4.98096-5.44922-10.62598-11.62647-20.09473-13.70313 c-11.39746-2.49805-25.91357,5.05859-36.51172,10.57715l-2.24023,1.16309c-3.33398,1.71973-6.74414,3.56934-10.04248,5.35743 c-10.2334,5.55078-20.81592,11.29004-32.39355,15.06348c-8.56592,2.79102-14.60791,2.99121-18.46631,0.61328 c-4.04785-2.49316-5.09473-6.84668-6.02979-10.73828c-0.66455-2.76367-0.89062-5.77734-1.12939-8.9668 c-0.5166-6.88868-1.05078-14.01123-6.2207-18.94727c-4.85107-4.63086-13.48045-1.99609-22.08348,1.54199 c-9.46338,3.8916-18.39746,8.64746-27.03711,13.24707l-2.84131,1.51074c-2.43066,1.29004-4.85693,2.58789-7.28564,3.8877 c-8.44531,4.51758-17.17822,9.18945-26.09277,13.50977c-9.20374,4.46124-17.64404,8.31079-26.82306,10.04242L167.37654,75.34373z M210.45595,35.87937c14.08545-2.18896,28.23291-9.48193,40.72217-15.91992c2.77295-1.42969,5.39256-2.77979,7.96434-4.05371 c1.24072-0.61426,2.73633-1.39209,4.4209-2.26807c10.49561-5.45703,30.03564-15.61816,37.8208-11.18701 c3.64209,2.07178,5.01611,6.92578,6.47021,12.06445c2.76758,9.77783,5.90283,20.8623,25.88672,15.36914 c9.57764-2.63232,18.44141-6.98096,27.01318-11.18604c2.78027-1.36426,5.65479-2.77442,8.44922-4.06983l1.20752-0.56104 c9.52783-4.4292,21.38379-9.94141,31.13232-7.88818c6.98193,1.47119,11.55762,5.16943,15.98291,8.74609 c1.1665,0.94287,2.26855,1.8335,3.41602,2.68701l1.15967,0.87012c5.27979,3.979,11.8335,8.92871,22.34277,8.53271 c12.20215-0.46484,22.83496-5.94971,33.11768-11.25391c7.85449-4.05176,15.97656-8.24121,24.69873-10.11914 c9.85254-2.12207,17.7998,0.39941,24.47656,2.92871c3.71436,1.40674,7.29297,3.01562,10.75439,4.57129 c5.28467,2.37549,10.74951,4.83203,16.96338,6.70899c9.7334,2.94141,18.19141,3.0127,27.4248,0.23047 c7.19629-2.16797,13.5166-5.36133,19.62891-8.44971c2.68359-1.35596,5.45801-2.75781,8.24316-4.0376 c7.06348-3.24561,16.48145-6.85889,26.70605-5.99316c10.31934,0.87598,19.23633,4.05957,27.8584,7.13818 c2.69531,0.9624,5.48242,1.95752,8.22168,2.84473c11.64062,3.771,23.40332,6.96826,39.26465,4.72315 c6.70605-0.94873,13.1875-2.63233,19.45508-4.26074c4.35254-1.13037,8.85352-2.29932,13.39355-3.21338 c19.62207-3.95019,39.26758-1.69727,58.26758,0.48047c11.98242,1.37354,24.36621,2.78906,36.71094,2.67041 c4.14545,3.70984,8.328,7.45239,12.52826,11.21045c-12.41638,0.05719-24.59033-1.07147-36.36908-2.17871 c-19.27441-1.8125-39.20312-3.68555-59.93164-0.12598c-4.6748,0.80273-9.36523,1.771-13.90234,2.70752 c-7.20215,1.4873-14.65039,3.0249-22.12109,3.91162c-15.20605,1.8042-26.34766-0.48389-39.39453-4.76367 c-3.17188-1.04004-6.36621-2.20068-9.45605-3.32324c-8.59668-3.12305-17.4873-6.35303-27.71094-7.73584 c-9.23828-1.24609-18.35449,0.4585-29.54199,5.53906c-3.43164,1.55859-6.78516,3.28955-10.02734,4.96387 c-6.07031,3.13477-12.34668,6.37549-19.4502,8.64795c-9.62305,3.0791-18.6875,3.0332-28.53125-0.14111 c-6.36719-2.05273-11.98926-4.70605-17.42529-7.27148c-3.85254-1.81836-7.83545-3.69824-12.02832-5.33594 c-7.36084-2.87402-15.52832-5.24121-25.36865-3.12256c-9.45801,2.03711-18.03662,6.61621-26.33301,11.04492 c-10.37744,5.53955-21.1084,11.26806-33.47559,11.87109c-10.89648,0.52295-17.49512-4.77393-22.80127-9.03613 c-0.41553-0.33398-0.82324-0.66113-1.22314-0.97803c-1.15674-0.91602-2.28369-1.89697-3.47754-2.93555 c-4.52832-3.94043-9.66064-8.40625-17.62549-9.93164c-10.26904-1.96631-23.06543,4.146-32.40674,8.60889l-1.26855,0.60547 c-2.93359,1.39697-5.9209,2.89307-8.81006,4.33984c-8.60254,4.30859-17.49805,8.76367-27.11768,11.74316 c-7.87061,2.43799-13.64355,2.51855-17.64648,0.24707c-5.12891-2.91064-6.69141-9.34912-8.20264-15.57568 c-1.45605-6-2.83105-11.66748-7.26953-14.06738c-8.81006-4.76465-27.84863,5.28125-39.22459,11.28272 c-1.7207,0.9082-3.26611,1.72314-4.57227,2.37988c-2.93408,1.47559-5.94824,3.06445-9.13916,4.74658 c-12.74396,6.71802-27.1004,14.27655-41.17444,16.94238L210.45595,35.87937z M145.5536,95.33543l4.8006-4.39777 c10.17474-1.54108,19.27997-5.67273,29.26825-10.51434c8.93896-4.33203,17.68408-9.01074,26.14111-13.53516 c2.42773-1.29883,4.85254-2.59668,7.28174-3.88575l2.84277-1.51172c8.61035-4.58301,17.51416-9.32324,26.91553-13.18945 c7.78613-3.20166,16.32664-5.92188,20.62645-1.81543c4.79199,4.57422,5.30615,11.43262,5.80322,18.06446 c0.23291,3.10352,0.47363,6.3125,1.17529,9.2334c0.93652,3.89453,2.10156,8.74121,6.62695,11.52832 c4.22119,2.60059,10.63281,2.44434,19.60205-0.47852c11.69531-3.81152,22.33301-9.58105,32.62061-15.16016 c3.29199-1.78516,6.6958-3.63184,10.01758-5.34473l2.24414-1.16504c10.41455-5.42285,24.67725-12.8457,35.59277-10.45508 c9.04639,1.98389,14.53711,7.99121,19.38135,13.292c1.40039,1.53223,2.72266,2.97852,4.09277,4.30176l1.03174,1.00391 c5.60645,5.47461,13.28955,12.97754,26.86426,12.01172c11.38037-0.80469,22.53223-6.85645,31.49316-11.71973l0.90967-0.49414 c2.31104-1.25195,4.60107-2.5625,7.02539-3.94922c8.67383-4.96192,17.64307-10.09278,27.86035-12.68946 c11.62451-2.95312,20.63477,0.43018,28.16943,3.83398c4.94238,2.23242,9.59863,4.8125,14.10205,7.30762 c6.5249,3.61523,13.271,7.35352,21.21045,10.25293c11.47949,4.19434,22.19434,4.26465,33.72559,0.21875 c8.08789-2.83691,15.07422-6.77832,21.83008-10.59082c3.74512-2.11231,7.61719-4.29688,11.59863-6.24317 c11.5459-5.64453,21.42969-7.66162,31.11133-6.35303c12.17285,1.64844,22.66602,5.86279,32.81543,9.93896 c3.26074,1.30957,6.63379,2.66407,9.9707,3.89258c14.2207,5.23145,28.62793,9.72656,48.47168,7.27148 c8.68066-1.07324,17.20801-3.00195,25.4541-4.86621c5.64258-1.27637,11.47656-2.5957,17.31836-3.63184 c23.44824-4.16309,45.31836-1.50879,68.47363,1.29785c14.50714,1.76013,29.4942,3.59418,44.82269,3.52374 c6.39581,5.71887,12.85254,11.49164,19.36823,17.31689c-15.68738-0.13049-31.10229-2.14032-46.02393-4.10236 c-23.60547-3.10547-48.01855-6.31836-73.04395-1.75c-6.15625,1.12305-12.27051,2.55273-18.18262,3.93652 c-8.63574,2.02051-17.56641,4.11035-26.67773,5.24316c-20.63477,2.56738-35.17578-2.13477-50.71191-8.06543 c-3.48535-1.33008-6.99902-2.78027-10.39746-4.18359c-10.36816-4.2793-21.08887-8.7041-33.48047-10.83984 c-11.48633-1.98145-22.50586,0.14551-35.73535,6.88672c-4.01953,2.04883-7.92188,4.31445-11.69434,6.50684 c-7.20605,4.18457-14.65723,8.5127-23.35156,11.5791c-11.36719,4.01074-21.87109,3.90918-33.05469-0.31934 c-8.6377-3.2666-15.90137-7.53223-22.9248-11.65723c-4.54443-2.66895-9.24365-5.42871-14.22754-7.85938 c-8.25342-4.02441-18.11719-8.05078-30.76562-4.83887c-11.14453,2.83008-20.71777,8.51855-29.97607,14.01953 c-2.49365,1.48242-4.84912,2.88184-7.21729,4.21484l-1.15723,0.65234c-9.36426,5.28223-22.18896,12.5166-34.41113,12.71973 c-0.16943,0.00195-0.33594,0.00391-0.50342,0.00391c-12.30078,0-19.38428-7.52344-24.57324-13.03613 c-0.42432-0.4502-0.83545-0.8877-1.23584-1.30664c-1.37256-1.43359-2.68604-2.97852-4.07666-4.61328 c-4.80127-5.64844-10.24365-12.04883-19.5-14.77246c-11.76562-3.46094-27.79102,4.99512-38.39404,10.59082l-1.94385,1.02344 c-3.94873,2.07031-7.96924,4.30566-11.85693,6.46777c-10.64795,5.92188-21.6582,12.04492-33.71143,16.27441 c-9.68799,3.39746-16.56348,3.7373-20.43457,1.00781c-4.29492-3.02832-5.14209-8.06738-5.88965-12.5127l-0.08008-0.47461 c-0.53125-3.13965-0.81543-6.38477-1.09033-9.52148c-0.24365-2.78613-0.49609-5.66699-0.92041-8.4541l-0.14502-0.97852 c-0.57812-3.9502-1.23387-8.42774-4.95897-11.35254c-4.89941-3.84619-12.58057-1.58398-20.15039,1.43457 c-10.33691,4.12109-20.11279,9.42579-29.56641,14.55664l-3.77197,2.04297c-2.9458,1.58984-5.88525,3.19336-8.82861,4.79785 c-9.38232,5.11719-19.0835,10.4082-29.03418,15.26465c-9.24689,4.51251-17.72919,8.40485-26.99078,10.13574 C137.54012,102.67625,141.56026,98.99357,145.5536,95.33543z M1005.22986,215.1196 c-7.50977-1.46191-15.27441-2.97266-22.86621-4.30762c-23.1582-4.07227-50.18164-7.89844-77.85645-1.73535 c-8.07227,1.79688-15.94238,4.12305-23.55371,6.37207c-10.98926,3.24707-22.35254,6.60449-34.38867,8.375 c-26.65723,3.91895-49.0166-2.43945-71.4707-9.88672c-5.2041-1.72656-10.43945-3.58594-15.50293-5.38477 c-14.67285-5.21289-29.84473-10.60352-46.31543-13.47754c-16.52246-2.88574-32.06055-0.68945-50.38379,7.12012 c-5.24316,2.23535-10.3877,4.7207-15.3623,7.12402c-9.12891,4.41016-18.56934,8.96973-28.99414,12.16504 c-18.21387,5.58301-33.80762,4.14551-49.07422-4.52344c-11.06445-6.28125-20.22754-13.70801-29.08936-20.88965 c-5.19238-4.20801-10.56201-8.55957-16.18408-12.56152l-0.27002-0.19238c-10.33105-7.35645-24.48096-17.42969-43.97754-10.91211 c-14.75928,4.93457-27.43945,14.36328-38.62744,22.68262c-3.24219,2.41113-6.30518,4.68848-9.375,6.84082 c-1.02979,0.72168-2.10059,1.48145-3.21045,2.26855c-12.10938,8.59277-28.69385,20.36133-45.46875,21.00488 c-18.24805,0.72559-26.5166-14.0332-31.98438-23.7832c-0.62793-1.12109-1.2168-2.16992-1.77686-3.11719 c-1.26953-2.14844-2.49414-4.30566-3.71582-6.45605c-2.79785-4.92773-5.69092-10.02344-9.03857-14.79785 c-3.1665-4.5166-7.1084-10.13672-14.04785-13.2373c-2.54297-1.13574-5.33984-1.63184-8.29785-1.63184 c-13.78711,0-31.04785,10.77734-42.14941,17.70898c-1.21143,0.75586-2.354,1.46973-3.41553,2.12207 c-5.68506,3.49121-11.24707,7.1416-17.13524,11.00586c-15.9165,10.44531-32.37451,21.24707-50.96729,28.43262 c-11.07471,4.28027-19.11572,4.77051-23.90137,1.45508c-6.33594-4.38672-6.98389-12.58984-7.50391-19.18066l-0.06299-0.79492 c-0.43604-5.4209-0.41943-10.98926-0.40332-16.37402c0.01172-4.00586,0.02393-8.14941-0.15234-12.16113 c-0.02686-0.60352-0.04932-1.21777-0.07178-1.83984c-0.22559-6.19629-0.48145-13.21973-5.20508-17.88086 c-5.45312-5.37891-15.83398-1.9834-24.26855,1.57422c-14.35303,6.05664-27.86085,13.92578-40.92335,21.53613 c-1.86328,1.08594-3.71777,2.16602-5.56494,3.23535c-3.60547,2.08789-7.20654,4.19043-10.81348,6.2959 c-13.77051,8.04004-28.01025,16.35352-42.70752,23.93457c-10.09863,5.20996-22.5332,11.625-35.04688,13.66992 c10.18768-9.33374,20.28931-18.58838,30.33807-27.79443c13.43079-1.91144,26.52716-8.89368,38.08868-15.06104l0.79443-0.42383 c13.7915-7.35352,27.18848-15.26953,40.14453-22.92578c3.83447-2.26562,7.66406-4.52832,11.50049-6.77539 c1.84668-1.08203,3.69727-2.17188,5.55323-3.26562c12.41797-7.31738,25.2583-14.88477,38.9292-20.92187 c8.85303-3.90723,19.49414-7.55859,23.22607-1.05762c2.83887,4.94433,2.40576,11.31249,1.9873,17.47167 c-0.04443,0.65137-0.08838,1.29883-0.12793,1.93945c-0.19971,3.21875-0.49463,6.53223-0.77979,9.73633 c-0.45801,5.1416-0.93115,10.45898-1.04346,15.68555l-0.03076,1.31055c-0.16309,6.52148-0.36572,14.63672,4.82617,19.88379 c4.51074,4.55859,13.29102,4.3125,26.09619-0.73145c16.83203-6.62988,31.76367-16.06641,46.2036-25.19141 c5.6792-3.58887,11.55176-7.2998,17.3374-10.69824c0.78906-0.46387,1.61621-0.9541,2.47705-1.46484 c12.60107-7.46973,31.64355-18.76074,44.49707-13.53223c10.92285,4.44141,16.14746,13.66992,21.2002,22.59473 c1.50635,2.66113,2.92969,5.1748,4.479,7.50781c0.5376,0.80957,1.09814,1.69043,1.68945,2.61914 c5.36768,8.43555,13.47266,21.17676,30.40967,21.17578c0.0249,0,0.05176,0,0.07666,0 c15.99854-0.03711,32.06104-10.82129,43.78906-18.69434c0.83887-0.56348,1.65283-1.10938,2.43945-1.63379 c2.98096-1.98535,6.0293-4.16699,9.25732-6.47656c11.41309-8.16602,24.34912-17.42188,38.95068-21.05371 c15.59326-3.87598,27.22363,3.55762,35.71631,8.9873c5.96045,3.81055,11.57861,8.06836,17.01221,12.18555 c8.83887,6.69727,17.97852,13.62305,29.26562,19.24219c12.92676,6.43359,26.16016,7.60938,41.64648,3.69824 c11.02539-2.78418,20.90918-7.31543,30.46875-11.69727c4.92383-2.25781,10.01562-4.5918,15.16992-6.64062 c16.45508-6.53809,30.28418-8.48633,44.84082-6.30762c15.37891,2.2998,29.59082,7.02148,43.33496,11.58691 c4.4834,1.48926,9.12012,3.0293,13.71777,4.45898c21.00391,6.52832,41.96582,12.08594,67.42188,8.46387 c11.22754-1.59863,21.89746-4.58594,32.21582-7.47559c6.71973-1.88086,13.66895-3.82715,20.71484-5.37402 c32.80078-7.19922,64.27734-1.45996,97.60254,4.61621c20.88214,3.80817,42.47375,7.74188,64.36511,8.16846 c12.53247,11.20325,25.24744,22.5705,38.17297,34.12744C1052.68396,224.3569,1028.57068,219.66257,1005.22986,215.1196z"/></g></svg>