<?xml version="1.0" encoding="UTF-8" standalone="no"?><svg xmlns="http://www.w3.org/2000/svg" xmlns:xlink="http://www.w3.org/1999/xlink" contentScriptType="text/ecmascript" fill="#000000" width="1078.2" zoomAndPan="magnify" contentStyleType="text/css" viewBox="-0.0 -0.0 1078.2 691.8" height="691.8" preserveAspectRatio="xMidYMid meet" version="1"><g id="change1_1"><path fill="#e15269" d="M710.72089,135.64122H367.49036c1.23016-1.23022,2.46094-2.46039,3.69171-3.69116h335.84656 C708.2594,133.18022,709.49011,134.411,710.72089,135.64122z M685.03296,109.958H393.17889 c-1.14691,1.14636-2.29327,2.29266-3.43964,3.43903H688.4726C687.32623,112.25066,686.17932,111.10436,685.03296,109.958z M751.02112,175.93425H327.18781c-1.40021,1.40021-2.80048,2.7998-4.20068,4.20007h432.23523 C753.82153,178.73405,752.42133,177.33446,751.02112,175.93425z M663.03674,87.96593H415.17572 c-1.0625,1.0625-2.125,2.125-3.1875,3.18689h254.23602C665.16174,90.09093,664.09924,89.02843,663.03674,87.96593z M641.04047,65.97387H437.17316c-0.97864,0.97803-1.95734,1.95612-2.93597,2.93481h209.73871 C642.9978,67.92999,642.01917,66.95251,641.04047,65.97387z M575.05475-0.00001h-71.89343 c-0.72479,0.72479-1.44958,1.44897-2.17377,2.17377h76.24091C576.50427,1.44896,575.77948,0.72478,575.05475-0.00001z M597.05096,21.99205H481.16443c-0.80859,0.80865-1.61719,1.61725-2.42645,2.42584h120.73944 C598.66821,23.6093,597.85956,22.80071,597.05096,21.99205z M619.0448,43.98174H459.16998 c-0.89423,0.89429-1.78906,1.78851-2.68329,2.68274h165.24084C620.83331,45.77025,619.93909,44.87603,619.0448,43.98174z M729.02484,153.94218H349.18463c-1.3158,1.3158-2.6322,2.63214-3.94855,3.94794h387.7373 C731.65759,156.57372,730.34125,155.25853,729.02484,153.94218z"/></g><g id="change2_1"><path fill="#e15269" d="M721.76929,527.80518h335.67285c-2.74878,2.74689-5.49561,5.49622-8.24438,8.24316H730.013 C727.26489,533.30078,724.5174,530.55267,721.76929,527.80518z M863.49951,669.52051h52.21246 c3.2547-3.25586,6.51178-6.5094,9.76648-9.76526h-71.74481C856.98834,663.01056,860.2442,666.26526,863.49951,669.52051z M162.48503,669.52051h52.21246c3.25525-3.25525,6.51056-6.50995,9.76587-9.76526h-71.74481 C155.97386,663.01111,159.23033,666.26465,162.48503,669.52051z M140.23607,647.27399h96.71033 c3.16968-3.16968,6.33997-6.33875,9.50903-9.50842H130.72704C133.89616,640.93579,137.067,644.1037,140.23607,647.27399z M73.49461,580.53906h230.19386c2.91754-2.91699,5.83514-5.83453,8.75269-8.75214H64.74193 C67.65947,574.70392,70.57707,577.62207,73.49461,580.53906z M699.77478,505.81305c2.6637,2.6637,5.32739,5.32739,7.9917,7.99109 h363.67786c0.729-0.72833,1.45679-1.45728,2.18567-2.18567c1.7677-1.76587,3.36536-3.62091,4.56689-5.80542H699.77478z M51.24804,558.29486H325.935c2.83319-2.83313,5.66693-5.66626,8.50061-8.5H42.74743 C45.58117,552.62738,48.4143,555.46173,51.24804,558.29486z M774.50854,580.53906h230.1944 c2.9176-2.91699,5.83514-5.83514,8.75275-8.75214H765.7558C768.67279,574.70392,771.59094,577.62146,774.50854,580.53906z M752.26196,558.29486h274.6875c2.83374-2.83313,5.66626-5.66748,8.50061-8.5H743.76135 C746.59448,552.6286,749.42822,555.46112,752.26196,558.29486z M819.00403,625.02979h141.20343 c3.08582-3.08582,6.17169-6.17047,9.25751-9.25629h-159.7179C812.83234,618.85931,815.91876,621.94397,819.00403,625.02979z M841.25055,647.27399h96.71033c3.16913-3.17029,6.33997-6.33875,9.50964-9.50842H831.74158 C834.91064,640.93524,838.08087,644.10431,841.25055,647.27399z M796.75745,602.78558h185.69659 c3.0014-3.0014,6.00336-6.00281,9.00537-9.00421H787.75262C790.75403,596.78278,793.75604,599.78418,796.75745,602.78558z M95.74358,602.78558h185.69594c3.0014-3.0014,6.00342-6.00281,9.00482-9.00421H86.73814 C89.74016,596.78278,92.74156,599.78418,95.74358,602.78558z M4.56749,511.61847c0.72839,0.72839,1.45673,1.45734,2.18567,2.18567 h363.67737c2.66364-2.6637,5.32794-5.32739,7.99164-7.99109H-0.00001C1.20165,507.99756,2.79985,509.8526,4.56749,511.61847z M881.47467,687.49329c1.47272,1.47278,2.91876,2.97406,4.53479,4.27142h7.1521c1.05005-0.82648,2.03882-1.73438,2.99963-2.69519 c2.44012-2.44135,4.88263-4.88086,7.32275-7.3222h-27.75586C877.64319,683.66302,879.55896,685.57819,881.47467,687.49329z M182.03575,689.06952c0.96088,0.96082,1.9502,1.86871,2.99963,2.69519h7.15271c1.61548-1.29736,3.06207-2.79926,4.53485-4.27203 c1.91571-1.9151,3.83081-3.8302,5.74591-5.74536H174.713C177.15312,684.18866,179.59563,686.62817,182.03575,689.06952z M33.74083,469.3158h381.18219c2.49603-2.49542,4.99207-4.99146,7.48804-7.48688H41.22948 C38.7329,464.32434,36.23687,466.82037,33.74083,469.3158z M11.49193,491.55994h381.18512 c2.57983-2.57983,5.15973-5.15967,7.73956-7.73895H19.23265C16.65221,486.40027,14.07238,488.98071,11.49193,491.55994z M28.99974,536.04834h319.1842c2.7475-2.74756,5.49567-5.49567,8.24377-8.24316H20.75536 C23.50408,530.55206,26.25103,533.30139,28.99974,536.04834z M55.9898,447.07159h381.17981 c2.41217-2.41156,4.82434-4.82318,7.23596-7.23474H63.22631C60.81414,442.24841,58.40258,444.66003,55.9898,447.07159z M78.2393,424.82739h381.17682c2.32837-2.3277,4.65613-4.65546,6.98389-6.98267H85.22374 C82.89543,420.17249,80.56706,422.49969,78.2393,424.82739z M117.98949,625.02979h141.20351 c3.08521-3.08582,6.17108-6.17047,9.2569-9.25629h-159.7173C111.81847,618.85931,114.90428,621.94397,117.98949,625.02979z M1058.96423,483.82098h-381.1839c2.5799,2.57983,5.15973,5.15973,7.73956,7.73895h381.18445 C1064.12451,488.98071,1061.54468,486.40027,1058.96423,483.82098z M992.9762,417.84473H611.797 c2.32776,2.32721,4.65552,4.65552,6.98322,6.98267h381.17981C997.63171,422.50024,995.30396,420.17249,992.9762,417.84473z M1036.96802,461.82892H655.78589c2.49603,2.49542,4.99146,4.99084,7.48749,7.48688h381.18268 C1041.95996,466.82037,1039.46411,464.32434,1036.96802,461.82892z M1014.97241,439.83685H633.79144 c2.41156,2.41156,4.82318,4.82318,7.23535,7.23474h381.18158C1019.7962,444.66003,1017.38403,442.24841,1014.97241,439.83685z"/></g><g id="change3_1"><path fill="#e15269" d="M129.21507,373.86298h381.17145c-2.15826,2.15771-4.31659,4.31598-6.47491,6.47369H122.74016 C124.89848,378.17896,127.05675,376.0213,129.21507,373.86298z M144.99144,358.09015h381.16913 c2.07446-2.07391,4.14832-4.14777,6.22278-6.22162H151.21428C149.14043,353.94238,147.06596,356.01624,144.99144,358.09015z M100.49065,402.58087H481.6651c2.24274-2.24158,4.48425-4.4837,6.72699-6.72583H107.21825 C104.97551,398.09717,102.73338,400.33875,100.49065,402.58087z M795.01355,219.91838H283.19409 c-1.56848,1.56793-3.13696,3.13641-4.70544,4.70428h521.2298C798.15051,223.05479,796.58203,221.48686,795.01355,219.91838z M773.01733,197.92632H305.19098c-1.48407,1.48407-2.96875,2.96814-4.45337,4.45215h476.73248 C775.98602,200.89445,774.50195,199.41039,773.01733,197.92632z M948.98608,373.86298H567.81042 c2.15833,2.15771,4.31604,4.31598,6.4743,6.47369H955.461C953.30267,378.17841,951.14435,376.02069,948.98608,373.86298z M970.9823,395.85504H589.80487c2.24219,2.24158,4.48431,4.48425,6.72644,6.72583h381.17798 C975.46716,400.33875,973.22504,398.09662,970.9823,395.85504z M926.98743,351.86853H545.8136 c2.07385,2.07385,4.14777,4.14771,6.22223,6.22162h381.17444C931.13641,356.01624,929.06195,353.94238,926.98743,351.86853z M817.00922,241.91051H261.19727c-1.65289,1.65228-3.30524,3.30402-4.95752,4.95636H821.9668 C820.31445,245.21452,818.66211,243.56279,817.00922,241.91051z M860.99933,285.89227H217.20537 c-1.82239,1.82178-3.6441,3.64355-5.46649,5.46533h654.72693C864.64349,289.53583,862.82111,287.71405,860.99933,285.89227z M839.00543,263.90259h-599.8056c-1.73615,1.73615-3.4729,3.47229-5.20966,5.20844h610.22491 C842.47839,267.37488,840.74219,265.63873,839.00543,263.90259z M882.99554,307.88434H195.20854 c-1.90619,1.90564-3.81238,3.81183-5.71863,5.71741h699.22363C886.80737,311.69617,884.90179,309.78998,882.99554,307.88434z M904.99182,329.8764h-731.7807c-1.99005,1.99005-3.98004,3.97949-5.9707,5.96954h743.72211 C908.97186,333.85651,906.98187,331.86646,904.99182,329.8764z"/></g></svg>