<?xml version="1.0" encoding="UTF-8" standalone="no"?><svg xmlns="http://www.w3.org/2000/svg" xmlns:xlink="http://www.w3.org/1999/xlink" contentScriptType="text/ecmascript" fill="#000000" width="849.8" zoomAndPan="magnify" contentStyleType="text/css" viewBox="-0.0 -63.2 849.8 1140.7" height="1140.7" preserveAspectRatio="xMidYMid meet" version="1"><g id="change1_1"><path fill="#e15269" d="M618.86823,13.80596c-23.24591,21.34241-38.71527,53.97723-52.70135,81.59253 c-16.11469,31.81818-30.80579,64.326-46.08453,96.54835c-15.10345,31.85278-30.46161,64.37158-50.20654,93.67102 c-11.17944,16.58917-24.93353,35.82288-44.7337,42.46466c-36.026,12.08453-69.45538-23.39459-92.72693-45.82886 c-25.9538-25.01996-60.02393-67.24841-100.40234-63.98462c-48.56879,3.92584-85.18195,69.88831-109.2981,104.94562 c-10.2724,14.93286-20.4693,31.57477-31.28802,48.21368c0.00323-0.41681,0.0069-0.83356,0.01013-1.25037 c-0.56171,0.65839-0.84259,0.98694-1.40424,1.64246c-0.00446,0.58917-0.00946,1.17822-0.01392,1.7674 c-9.98181,15.27063-20.51532,30.47321-32.13928,44.28949c0.00214-0.48431,0.00409-0.96857,0.00623-1.45288 c-0.55707,0.53326-0.83551,0.79791-1.39233,1.32281c-0.00244,0.59167-0.00488,1.18341-0.00732,1.77509 c-16.10016,18.8382-34.30225,34.95343-56.01593,44.90063c-0.18811,0.0575-0.2821,0.08575-0.47015,0.14105 c0,113.56903,0,227.13806,0,340.70703c9.28308,1.17523,18.05054,0.11206,26.34998-2.6347c0,0.26422-0.00037,0.5285-0.00037,0.79272 c0.53986-0.38306,0.80975-0.57886,1.34961-0.97864c0-0.09503,0.00012-0.19006,0.00012-0.2851 c39.08936-13.87891,67.71814-64.92731,90.85333-94.53101c22.36212-28.61444,64.27228-87.59216,106.90485-58.91986 c15.05219,10.12323,27.0351,25.56592,37.33734,41.55896c0,0.0733,0.00012,0.14667,0.00012,0.21997 c0.23492,0.27747,0.41669,0.49286,0.59387,0.70367c5.36401,8.38947,10.27478,16.90472,14.92859,24.86078 c18.44128,31.52686,34.45428,64.43671,51.24213,96.85291c14.02679,27.08484,28.17444,54.27301,45.19299,79.62494 c11.94965,17.80103,27.90088,41.55121,49.70801,48.32391c39.83228,12.37073,74.4317-39.37823,94.90106-65.72919 c15.64856-20.14502,34.1795-51.07117,56.74792-72.87012c0,0.78741,0,1.57477,0,2.36218 c0.53986-0.72345,0.80975-1.08276,1.34961-1.79657c0-0.6167,0-1.2334,0-1.8501 c12.29755-11.59399,25.78265-20.40308,40.64038-23.26886c32.71307-6.30981,59.45654,27.16199,79.25909,61.21686 c0,0.96423,0,1.92853,0,2.89276c0.53986,0.71466,0.80975,1.0744,1.34961,1.79858c0-0.78375,0-1.5675,0-2.35126 c10.76886,18.82568,19.41284,37.55542,25.76056,49.57074c20.07898,38.00653,38.26025,77.25427,60.35742,114.16772 c16.95502,28.32343,34.43219,56.18622,64.09491,72.18451c0.35236,0.12231,0.5285,0.18115,0.88086,0.29407 c0-295.04254,0-590.08521,0-885.12787C765.45557,200.19391,702.75916-63.21564,618.86823,13.80596z M848.45227,668.02332 c-30.52094-7.84265-49.38489-32.37915-66.7652-57.54602c-20.4574-29.62225-38.10913-61.0921-57.15027-91.61908 c-6.68988-10.72528-15.40436-25.87976-25.82867-40.49176c0-19.6474,0-39.29474,0-58.94214 c10.32385,13.88989,19.03766,28.42645,25.82867,38.97925c19.04028,29.58734,36.67395,60.16278,57.15027,88.8028 c17.46112,24.42273,36.42072,47.95184,66.7652,54.2558C848.45227,623.64917,848.45227,645.83624,848.45227,668.02332z M697.35852,476.49097c-20.64148-28.42438-47.75983-53.9649-79.05469-39.58691 c-16.36798,7.52002-29.60583,22.82843-40.84479,37.88916c0-17.7406,0-35.48132,0-53.22192 c11.22345-15.62225,24.38812-31.53284,40.84479-39.88672c31.04974-15.76178,58.2196,8.4079,79.05469,35.9386 C697.35852,437.24579,697.35852,456.86835,697.35852,476.49097z M576.10944,476.61273 c-2.72229,3.69232-5.32745,7.35034-7.83051,10.85449c-17.4007,24.36029-32.58057,50.24756-48.57623,75.52936 c-10.18689,16.10077-24.25891,42.15088-41.69434,62.80615c0-15.99438,0-31.98877,0-47.98315 c17.50055-21.6214,31.53247-48.6214,41.69434-65.18347c15.99896-26.0755,31.19153-52.72803,48.57623-77.92316 c2.50946-3.63684,5.11353-7.42639,7.83051-11.2522C576.10944,441.17804,576.10944,458.89545,576.10944,476.61273z M476.65875,627.38525c-14.94031,17.2821-32.29309,30.39532-51.74127,29.9632c-10.54041-0.23419-20.4295-4.24493-29.65887-10.67853 c0.02155-14.86401,0.03998-29.72803,0.05865-44.59198c9.25488,6.07788,19.13153,9.71075,29.59521,9.53503 c19.54175-0.32825,36.86884-14.18781,51.74628-32.14368C476.65875,595.44128,476.65875,611.41327,476.65875,627.38525z M393.93024,645.72552c-29.52783-21.47034-52.1781-67.49146-67.51624-93.38116c0.13367-13.25861,0.26288-26.51721,0.38342-39.77545 c15.36938,25.00262,38.16821,68.69983,67.1958,88.61798C393.97314,616.03308,393.95331,630.87927,393.93024,645.72552z M325.10187,550.15051c-0.10156-0.16815-0.20502-0.34161-0.30591-0.50775c-15.72375-25.88934-30.85114-52.34753-48.72675-76.83783 c-3.7359-5.11835-7.70129-10.61322-11.96191-16.04492c0.01587-6.23273,0.01514-12.4657,0.03717-18.69836 c0.02075-5.86731,0.09113-11.73169,0.18121-17.59491c4.22736,5.14789,8.16931,10.36768,11.88129,15.24341 c17.83337,23.42468,32.94476,48.87927,48.65094,73.74341c0.20911,0.33099,0.42206,0.67242,0.63416,1.0116 C325.36938,523.69342,325.23792,536.92188,325.10187,550.15051z M1.35181,622.32648 c8.97919-2.39917,17.31555-6.27588,25.09845-11.29419c-0.00812,8.73254-0.01556,17.46515-0.02283,26.19775 c-7.7901,4.6355-16.12109,8.0636-25.07593,9.92792C1.35162,638.8808,1.35168,630.60364,1.35181,622.32648z M27.80823,610.13861 c10.23364-6.82831,19.50818-15.61707,28.03449-25.57458c-0.03131,9.20972-0.0603,18.41956-0.08875,27.62927 c-8.52417,9.57251-17.78339,17.91833-27.97058,24.21271C27.79126,627.65021,27.79938,618.89441,27.80823,610.13861z M57.20728,582.94843c11.7287-13.9967,22.0426-30.15088,31.51239-46.32886c-0.07373,9.7525-0.14642,19.50513-0.2149,29.25769 c-9.42572,15.7088-19.7179,31.36023-31.39008,44.76654C57.14429,601.41205,57.17462,592.18018,57.20728,582.94843z M90.09375,534.26172c10.43597-17.97772,19.86755-35.85059,29.08093-50.67578c1.95483-3.14551,4.16522-6.86658,6.60583-10.97827 c-0.13617,10.29315-0.27051,20.5863-0.40131,30.87958c-2.29285,3.76599-4.38867,7.20428-6.26532,10.16229 c-9.16919,14.45294-18.66821,32.16064-29.24121,49.93781C89.94299,553.81213,90.01794,544.03687,90.09375,534.26172z M127.1626,470.28003c9.56085-16.09222,22.40955-37.37451,37.47925-54.35339c-0.11023,5.94104-0.19128,11.88318-0.2132,17.82758 c-0.0177,4.8017-0.01654,9.60364-0.02985,14.4054c-15.12213,16.41895-28.01221,37.2608-37.64478,53.07031 C126.88727,490.91321,127.02393,480.59662,127.1626,470.28003z M165.77826,432.22754 c0.02203-5.93701,0.10376-11.87164,0.21503-17.80518c13.39484-14.72784,28.48956-25.89032,44.5611-26.98584 c-0.10376,5.42358-0.18134,10.84863-0.19458,16.27747c-0.01447,5.92743-0.01398,11.85498-0.02435,17.78241 c-16.09583,0.48932-31.19006,11.0307-44.5874,25.21362C165.76154,441.88257,165.76031,437.05493,165.77826,432.22754z M211.70941,403.6557c0.01282-5.42883,0.09003-10.85394,0.19348-16.27753c4.63049-0.15179,9.33832,0.52643,14.10907,2.21881 c14.56232,5.16583,26.61566,16.86615,36.96631,29.2431c-0.09119,5.86926-0.16248,11.73962-0.18341,17.61304 c-0.02209,6.20032-0.0213,12.40088-0.03729,18.60126c-10.26886-12.85712-22.25232-25.09552-36.88074-30.81238 c-4.80127-1.87634-9.53619-2.73389-14.19104-2.75604C211.6958,415.54254,211.69537,409.59906,211.70941,403.6557z M324.8335,508.13068c-15.7027-24.83923-30.81268-50.26831-48.64349-73.66626c-3.70166-4.85742-7.63147-10.05554-11.84479-15.18274 c0.1803-11.21796,0.46075-22.42993,0.81506-33.63757c24.651,25.18188,43.64917,61.6261,60.21387,86.1748 c0.14612,0.21655,0.29553,0.44098,0.44305,0.66095c-0.09344,12.2395-0.20001,24.47961-0.31299,36.71985 C325.27966,508.84076,325.05469,508.48053,324.8335,508.13068z M262.99799,417.65625 c-10.36029-12.38062-22.42493-24.08746-37.00079-29.25299c-4.75708-1.68585-9.45221-2.36249-14.07092-2.21283 c0.18695-9.26953,0.4762-18.53314,0.85016-27.79193c4.63538-0.27094,9.3476,0.26514,14.1225,1.78748 c13.62988,4.3454,25.83801,13.06506,36.91412,24.1004C263.45874,395.40472,263.17883,406.52753,262.99799,417.65625z M210.57788,386.24768c-16.06641,1.08923-31.16327,12.24475-44.56348,26.96588c0.17816-9.07037,0.44427-18.13733,0.76825-27.20209 c13.43658-14.7428,28.55554-26.02618,44.6452-27.52051C211.05438,367.73798,210.76508,376.98993,210.57788,386.24768z M164.66284,414.71655c-15.06537,16.95911-27.91632,38.21594-37.48334,54.30176c0.12097-8.99133,0.24243-17.98267,0.36444-26.97418 c9.69128-16.12701,22.67249-37.43475,37.8786-54.52228C165.10217,396.58417,164.83917,405.64868,164.66284,414.71655z M125.79724,471.34393c-2.45679,4.13477-4.68048,7.87518-6.64606,11.03461c-9.2041,14.79474-18.62598,32.62091-29.04718,50.55377 c0.07098-9.13141,0.1405-18.26294,0.21484-27.39447c10.38672-17.76825,19.87885-35.43884,29.27893-50.40973 c1.95129-3.10767,4.14581-6.75647,6.55829-10.7735C126.03589,453.35114,125.91638,462.3476,125.79724,471.34393z M88.72974,535.28809c-9.47284,16.16608-19.78864,32.3103-31.51727,46.3006c0.03198-9.0105,0.0683-18.02112,0.10266-27.03162 c11.72498-14.22119,22.06366-30.43561,31.62402-46.66772C88.8667,517.02228,88.79901,526.15521,88.72974,535.28809z M55.84766,583.20435c-8.52795,9.95514-17.80365,18.7428-28.03772,25.57178c0.00885-8.6936,0.02307-17.38739,0.03278-26.08099 c10.25861-7.24915,19.55103-16.32501,28.1034-26.48877C55.91321,565.20569,55.87836,574.20508,55.84766,583.20435z M26.45178,609.66901c-7.78375,5.01935-16.12054,8.89795-25.09998,11.29968c0.00012-8.27081,0.00024-16.54169,0.00037-24.8125 c8.99689-2.90216,17.34106-7.17834,25.12958-12.51385C26.47284,592.31787,26.4599,600.99347,26.45178,609.66901z M1.3515,648.50116 c8.95447-1.85999,17.28522-5.2854,25.07532-9.91943c-0.00714,8.65668-0.00598,17.31348-0.01221,25.97015 c-7.80499,4.30157-16.13354,7.35168-25.06348,8.77661C1.35119,665.05273,1.35144,656.77698,1.3515,648.50116z M27.78271,637.75867 c10.18585-6.29175,19.44434-14.63641,27.96771-24.20825c-0.02802,9.11353-0.04657,18.22717-0.07129,27.3407 c-8.53265,9.17145-17.77808,17.08435-27.90967,22.90002C27.77624,655.11365,27.7749,646.4361,27.78271,637.75867z M57.11096,612.00079c11.67029-13.40442,21.96106-29.05444,31.38477-44.7605c-0.06824,9.7644-0.13232,19.52893-0.1936,29.29346 c-9.40546,15.1145-19.67682,30.12854-31.26538,42.87592C57.06244,630.27344,57.08179,621.13702,57.11096,612.00079z M89.86346,564.95062c10.56555-17.76526,20.05743-35.45923,29.21722-49.8985c1.8808-2.96484,3.98181-6.41254,6.28082-10.18927 c-0.13342,10.52142-0.26196,21.04303-0.38519,31.56488c-2.11627,3.35278-4.06482,6.43671-5.82922,9.13812 c-9.17212,14.04285-18.77185,31.39905-29.48242,48.76855C89.72766,584.53973,89.79333,574.74512,89.86346,564.95062z M126.73608,502.60553c9.63696-15.81958,22.53235-36.672,37.65991-53.09692c-0.02991,11.0769-0.05798,22.15381-0.06879,33.2309 c-15.22296,15.79388-28.25433,36.12036-37.9837,51.52295C126.46906,523.7099,126.60016,513.15753,126.73608,502.60553z M165.74524,448.05927c13.39838-14.18408,28.49268-24.72583,44.58832-25.21503c-0.0199,11.729-0.04132,23.45789-0.04822,35.18695 c-16.03021-0.17578-31.14984,9.71979-44.60956,23.3269C165.68665,470.25836,165.71515,459.15875,165.74524,448.05927z M211.68396,422.83441c4.64471,0.02216,9.3692,0.87598,14.15967,2.7439c14.64227,5.70941,26.63593,17.95923,36.91125,30.82422 c-0.03143,12.52179-0.06421,25.04358-0.07532,37.56561c-10.21533-13.30762-22.11359-26.03705-36.76953-32.4823 c-4.82123-2.12024-9.58423-3.19678-14.27277-3.41449C211.64392,446.32562,211.66467,434.58002,211.68396,422.83441z M264.10461,458.10815c4.24945,5.41724,8.20477,10.89648,11.9314,16.00055c17.87775,24.48566,33.00476,50.94177,48.72675,76.8291 c0.10736,0.17676,0.21729,0.36115,0.32538,0.54016c-0.13757,13.3512-0.27722,26.70239-0.41827,40.05353 c-15.67688-26.59412-30.77557-53.7157-48.56744-78.97675c-3.78107-5.36841-7.77893-11.11957-12.07257-16.81195 C264.04077,483.19775,264.07349,470.65295,264.10461,458.10815z M326.40051,553.67279 c15.3476,25.91345,37.99817,71.93225,67.52765,93.40192c-0.02301,14.78229-0.0459,29.56458-0.07001,44.34686 c-29.95691-23.06061-52.49048-71.05029-67.86841-97.62946C326.12823,580.41907,326.26538,567.04596,326.40051,553.67279z M395.25659,648.01868c9.22009,6.42657,19.09869,10.43579,29.62769,10.67889c19.46124,0.4494,36.82605-12.67218,51.77448-29.96527 c0,15.98285,0,31.96564,0,47.94843c-15.01776,16.62842-32.39917,28.99493-51.70807,27.70746 c-10.61969-0.70807-20.53534-5.14301-29.7594-11.96368C395.21381,677.62256,395.23511,662.82062,395.25659,648.01868z M478.00836,627.14966c17.42151-20.64069,31.48309-46.66479,41.66113-62.75049 c15.99738-25.28278,31.17755-51.17151,48.57623-75.53522c2.51337-3.51947,5.1297-7.19397,7.86371-10.90247 c0,16.41949,0,32.83893,0,49.25842c-22.64172,27.17303-40.32928,62.86456-56.37354,87.43402 c-10.19238,15.60822-24.33484,40.7829-41.72754,60.51562C478.00836,659.1629,478.00836,643.15631,478.00836,627.14966z M577.45905,476.14191c11.23267-15.05273,24.45923-30.34467,40.81158-37.87122 c31.31158-14.41187,58.44153,11.14264,79.08789,39.57471c0,19.61572,0,39.23138,0,58.84711 c-20.45868-29.31415-47.50342-56.17639-79.02148-43.23608c-15.35278,6.30341-28.81519,17.98932-40.87799,32.15881 C577.45905,509.12415,577.45905,492.633,577.45905,476.14191z M698.70813,479.72101 c10.40857,14.59033,19.11145,29.71942,25.79547,40.43402c19.04352,30.52734,36.69556,61.99829,57.15027,91.62415 c17.38824,25.18451,36.25891,49.73895,66.7984,57.60089c0,22.18195,0,44.36389,0,66.54584 c-30.72614-9.39294-49.28094-34.89618-66.73199-60.77985c-20.56433-30.50116-38.11731-62.97516-57.15027-94.43042 c-6.6095-10.92328-15.33246-26.71942-25.86188-42.07288C698.70813,519.0022,698.70813,499.36157,698.70813,479.72101z M848.45227,600.11902c-30.36359-6.3222-49.32971-29.86938-66.7984-54.30902c-20.47369-28.64368-38.1076-59.22028-57.15027-88.8078 c-6.78522-10.54254-15.4873-25.05457-25.79547-38.92365c0-19.62677,0-39.25348,0-58.88025 c10.20251,13.17615,18.91888,27.08856,25.86188,37.45197c29.9585,44.71759,64.44934,127.48883,123.88226,136.89539 C848.45227,555.73676,848.45227,577.92786,848.45227,600.11902z M697.35852,416.27808 c-20.84052-27.5387-48.02167-51.72137-79.08789-35.92511c-16.4408,8.35968-29.59442,24.25336-40.81158,39.86713 c0-17.73871,0-35.47742,0-53.21613c11.22028-16.19678,24.32574-32.71863,40.87799-41.90735 c30.85718-17.12982,57.99371,5.70813,79.02148,32.37543C697.35852,377.07404,697.35852,396.67609,697.35852,416.27808z M576.10944,422.10962c-2.7287,3.84247-5.34393,7.64905-7.86371,11.30182c-17.38269,25.19849-32.57562,51.85248-48.57623,77.92902 c-10.15137,16.54388-24.17383,43.51892-41.66113,65.12634c0-16.005,0-32.00995,0-48.01495 c17.52423-22.51282,31.46637-50.34973,41.72754-67.58051c16.00055-26.86841,31.20593-54.28656,48.57623-80.3111 c2.50555-3.75391,5.09753-7.65674,7.7973-11.59717C576.10944,386.67859,576.10944,404.3941,576.10944,422.10962z M476.65875,578.11688c-14.88617,17.96838-32.22577,31.83728-51.77966,32.14514 c-10.45038,0.16455-20.31525-3.46637-29.56024-9.53485c0.01837-14.67889,0.03693-29.35773,0.05072-44.03656 c9.29443,5.50952,19.17322,8.58643,29.57678,7.88806c19.69232-1.3219,36.94672-15.87488,51.7124-34.41211 C476.65875,546.15002,476.65875,562.13348,476.65875,578.11688z M393.99487,599.83698 c-29.00964-19.89563-51.80273-63.52002-67.18549-88.53412c0.11127-12.29016,0.21625-24.58008,0.30817-36.86951 c15.53851,23.52301,38.44031,63.75671,66.93176,81.45184C394.03448,570.53571,394.01453,585.18634,393.99487,599.83698z M327.12531,473.25421c0.08649-11.65448,0.15997-23.30841,0.22229-34.96198c0.05359,0.07263,0.10754,0.14691,0.16107,0.21936 c15.39301,20.83075,38.50598,57.48676,66.56958,72.79974c-0.00793,14.41565-0.01288,28.83124-0.02728,43.24695 C365.58588,536.91956,342.69733,496.81409,327.12531,473.25421z M325.82513,471.30225 c-0.17621-0.2627-0.354-0.52911-0.52826-0.78699c-16.52557-24.4566-35.50385-60.77484-60.10284-85.87878 c0.27655-8.65747,0.58765-17.31281,0.91327-25.96722c23.87793,22.19684,42.79987,54.28583,59.94373,77.85217 C325.98767,448.11456,325.9129,459.70813,325.82513,471.30225z M263.84711,383.27972 c-11.10297-11.05115-23.34186-19.77502-37.00562-24.09229c-4.74078-1.49792-9.4198-2.02588-14.02332-1.75903 c0.31458-7.68872,0.67535-15.37469,1.05786-23.05951c5.61389-0.43115,11.3623,0.21631,17.22943,2.20148 c12.28998,4.15839,23.42664,11.58868,33.65839,20.86652C264.43689,366.0498,264.12451,374.6637,263.84711,383.27972z M211.46942,357.51831c-16.08691,1.48535-31.20636,12.74359-44.64886,27.46094c0.28577-7.89545,0.60901-15.78943,0.95221-23.68268 c13.4389-14.24152,28.51508-25.05341,44.75299-26.81067C212.14392,342.16168,211.78363,349.83868,211.46942,357.51831z M165.46021,386.48596c-15.20197,17.04602-28.1897,38.3114-37.90112,54.44379c0.10986-8.09985,0.21899-16.19989,0.32751-24.30011 c10.20728-16.56171,23.28174-37.31732,38.51703-53.8584C166.06348,370.67523,165.74329,378.5799,165.46021,386.48596z M126.17102,443.23663c-2.44812,4.0697-4.6734,7.76477-6.6507,10.90845c-9.36926,14.89624-18.83563,32.47693-29.19128,50.16046 c0.07001-8.58386,0.14154-17.16791,0.21332-25.75195c9.90015-16.52802,19.0705-32.93707,28.19049-47.18628 c2.34131-3.65802,4.93463-7.88275,7.76111-12.47626C126.38696,427.00641,126.27936,435.12164,126.17102,443.23663z M88.94916,506.6521c-9.56323,16.20862-19.90393,32.40479-31.62909,46.6076c0.03333-8.71423,0.06421-17.42853,0.0993-26.14282 c11.70721-14.20673,22.08124-30.24213,31.7381-46.25812C89.08746,489.4566,89.01746,498.05444,88.94916,506.6521z M55.95087,554.90448c-8.55499,10.15375-17.84796,19.22083-28.10651,26.45673c0.00958-8.54779,0.02185-17.09558,0.03217-25.64331 c10.26874-7.49945,19.57739-16.72369,28.16962-26.95203C56.01251,537.47876,55.98285,546.19165,55.95087,554.90448z M26.48327,582.3045c-7.78986,5.32648-16.13464,9.59161-25.1311,12.47949c0.00012-8.258,0.00012-16.51599,0.00031-24.77405 c9.00482-3.24023,17.35718-7.7821,25.16028-13.31915C26.50329,565.2287,26.49212,573.76666,26.48327,582.3045z M1.35113,674.66138 c8.92908-1.41248,17.25763-4.45508,25.06287-8.75281c-0.00616,8.66473-0.00702,17.32947-0.01221,25.9942 c-7.81104,3.9649-16.13593,6.63043-25.05096,7.59656C1.35089,691.22003,1.35107,682.94067,1.35113,674.66138z M27.7688,665.15082 c10.12995-5.80975,19.37464-13.72198,27.90674-22.89429c-0.02448,9.08789-0.05042,18.17578-0.07111,27.26379 c-8.52911,8.80719-17.75543,16.3327-27.84888,21.68945C27.76111,682.52344,27.76214,673.83716,27.7688,665.15082z M57.03302,640.77393c11.58728-12.74823,21.85767-27.76624,31.26013-42.87921c-0.06012,9.64581-0.11157,19.29205-0.16327,28.93817 c-9.38525,14.57568-19.63489,29.07953-31.1709,41.27832C56.98053,658.99872,57.00757,649.88635,57.03302,640.77393z M89.65546,595.69519c10.68048-17.32428,20.25293-34.62799,29.39203-48.62341c1.78778-2.73773,3.76385-5.8678,5.91327-9.27502 c-0.12207,10.46313-0.23621,20.92676-0.34369,31.39075c-2.50671,3.83881-4.83057,7.40515-6.95129,10.55054 c-8.74384,12.96832-17.95056,28.95074-28.1781,44.97772C89.54071,615.04218,89.59363,605.36847,89.65546,595.69519z M126.32764,535.63068c9.73926-15.42578,22.77405-35.75336,37.99677-51.5459c-0.01007,11.02612-0.00775,22.05237-0.00458,33.07867 c-15.07867,14.82837-28.14966,34.35889-38.3421,49.94208C126.0871,556.61346,126.20337,546.12189,126.32764,535.63068z M165.67297,482.70087c13.46228-13.60846,28.58215-23.50085,44.61053-23.32306c-0.00653,11.86029-0.00287,23.72058-0.00012,35.58093 c-16.02832-1.0213-31.104,7.96802-44.61469,20.89514C165.66547,504.8028,165.6629,493.75183,165.67297,482.70087z M211.63544,459.4201c4.65698,0.21686,9.38721,1.28015,14.17499,3.37299c14.70093,6.42609,26.63074,19.19464,36.86639,32.52942 c-0.00964,11.56342-0.00531,23.12695-0.00256,34.69049c-10.08063-11.94489-21.25623-22.159-33.90723-29.32385 c-5.80713-3.28882-11.52563-5.07037-17.13153-5.62427C211.63281,483.18329,211.62915,471.30164,211.63544,459.4201z M264.02716,497.09741c4.25806,5.6452,8.22418,11.34546,11.97565,16.66705c17.83063,25.29333,32.95068,52.46143,48.65302,79.09619 c-0.14069,13.32233-0.27979,26.64465-0.41382,39.96643c-17.24005-30.6546-35.38739-71.10474-60.2171-101.19525 C264.02222,520.1203,264.0177,508.60883,264.02716,497.09741z M325.97595,595.12488 c15.40759,26.66681,37.93298,74.60608,67.88007,97.64978c-0.02417,14.83813-0.04639,29.67633-0.06964,44.51447 c-30.18011-24.95123-52.72345-75.17139-67.55786-100.96521c-0.21942-0.38153-0.43927-0.76874-0.65894-1.15369 C325.70117,621.82208,325.83777,608.47357,325.97595,595.12488z M395.18927,693.77612 c9.19525,6.79675,19.07806,11.22437,29.6618,11.95776c19.34827,1.3407,36.76526-11.05078,51.80768-27.71124 c0,15.95465,0,31.9093,0,47.86389c-15.13586,16.10651-32.6214,28.01031-51.6756,25.95721 c-10.65887-1.1485-20.61133-6.10773-29.85895-13.46686C395.14594,723.50995,395.16669,708.64307,395.18927,693.77612z M478.00836,676.5119c17.3504-19.69,31.46118-44.78613,41.62793-60.35187c16.08875-24.63245,33.79639-60.37482,56.47314-87.57996 c0,17.96814,0,35.93634,0,53.90448c-22.86578,26.37091-40.86151,60.96417-57.64465,85.81775 c-9.73993,14.42352-23.59827,37.74902-40.45642,56.12982C478.00836,708.45874,478.00836,692.48529,478.00836,676.5119z M577.45905,526.97656c12.03577-14.13269,25.46466-25.79608,40.77838-32.12177 c31.56915-13.04034,58.64893,13.86847,79.12109,43.20569c0,19.56219,0,39.12451,0,58.68671 c-21.23981-31.50659-49.57819-60.66705-81.74878-45.91748c-14.21161,6.51575-26.78156,17.27234-38.1507,30.11243 C577.45905,562.95361,577.45905,544.96509,577.45905,526.97656z M698.70813,540.01117 c10.48224,15.28625,19.17078,31.00336,25.76227,41.89331c19.04004,31.45654,36.59412,63.93341,57.15027,94.44556 c17.47516,25.93903,36.05084,51.49548,66.8316,60.94916c0,22.17694,0,44.35388,0,66.53088 c-30.32764-10.6734-48.62054-36.47437-65.81714-62.65472c-20.35968-30.99603-37.73859-63.9021-56.44427-95.8988 c-6.63104-11.34259-15.9751-29.14624-27.48273-46.5094C698.70813,579.18182,698.70813,559.5965,698.70813,540.01117z M848.45227,532.21289c-59.49615-9.4978-93.96198-92.27277-123.98187-137.06519 c-6.92517-10.33301-15.60712-24.1734-25.76227-37.28876c0-19.64984,0-39.29974,0-58.94958 c10.89258,13.38043,20.21588,27.7265,27.48273,38.29633c29.29486,42.60999,64.24396,122.26147,122.26141,128.42773 C848.45227,487.82654,848.45227,510.01971,848.45227,532.21289z M697.35852,356.13239 c-21.04572-26.69135-48.2157-49.56378-79.12109-32.3288c-16.50372,9.20361-29.57709,25.67334-40.77838,41.84338 c0-18.86481,0-37.72955,0-56.59436c11.18512-15.28455,23.67712-28.8847,38.1507-39.04639 c30.90906-21.70087,59.49011,0.4137,81.74878,27.26227C697.35852,316.88983,697.35852,336.51105,697.35852,356.13239z M576.10944,367.60614c-2.73492,3.99225-5.36011,7.94775-7.89691,11.75116c-17.36438,26.03455-32.5708,53.45715-48.57623,80.32867 c-10.23639,17.18585-24.14667,44.93646-41.62793,67.40002c0-16.06598,0-32.13208,0-48.19806 c16.99823-22.78802,30.49048-50.25836,40.45642-67.47241c17.57684-30.36023,34.89856-68.85364,57.64465-100.50635 C576.10944,329.80817,576.10944,348.70715,576.10944,367.60614z M476.65875,528.80157 c-14.78802,18.57043-32.0769,33.15131-51.81189,34.43256c-10.36688,0.67303-20.21167-2.39105-29.47577-7.86987 c0.01343-14.44983,0.01801-28.89972,0.02533-43.34955c9.35657,4.85339,19.25159,7.30096,29.58673,5.97626 c19.77374-2.53455,37.00262-18.0741,51.6756-37.31421C476.65875,496.71838,476.65875,512.76001,476.65875,528.80157z M424.81866,516.65149c-10.27618,1.28253-20.11493-1.15161-29.42157-5.96161c0.00708-14.49109,0.01367-28.98218,0.01294-43.47327 c9.40387,4.02728,19.30743,5.70404,29.60535,3.73077c20.01526-3.83527,37.12695-19.99292,51.64337-39.69495 c0,16.01312,0,32.02618,0,48.03931C461.95062,498.58508,444.66675,514.17426,424.81866,516.65149z M394.07898,509.99042 c-28.10968-15.28363-51.25739-51.95203-66.70599-72.8205c-0.00671-0.00909-0.01355-0.01849-0.02026-0.02759 c0.06085-11.54993,0.10541-23.09924,0.13599-34.64795c0.27704,0.34106,0.55634,0.69135,0.83246,1.02832 c15.98541,19.5083,38.77258,50.86969,65.77222,63.1181C394.09412,481.09064,394.08667,495.54053,394.07898,509.99042z M326.05621,435.3772c-17.11597-23.45245-36.04382-55.50165-59.91309-77.64954c0.32355-8.57507,0.65692-17.14948,0.98193-25.72418 c23.11121,19.21979,41.99768,47.6145,59.07007,68.89294C326.1637,412.3894,326.11816,423.883,326.05621,435.3772z M264.79999,356.49701c-10.27515-9.29962-21.46088-16.73267-33.80536-20.84869c-5.81354-1.93842-11.51025-2.56854-17.07495-2.14221 c0.36469-7.29852,0.74445-14.59613,1.12164-21.8941c5.71838-0.63708,11.58923-0.26123,17.60187,1.36749 c12.00006,3.25061,22.9765,9.68927,33.14337,17.92786C265.45984,339.43726,265.12476,347.96674,264.79999,356.49701z M212.56958,333.61963c-16.23633,1.75232-31.31165,12.53552-44.75647,26.74463c0.31805-7.28601,0.64655-14.57166,0.97296-21.85748 c13.45551-13.8208,28.53644-24.43408,44.90186-26.72699C213.31183,319.05963,212.93317,326.33917,212.56958,333.61963z M166.44379,361.83374c-15.23047,16.49084-28.31122,37.19116-38.54327,53.75909c0.10138-7.57922,0.20117-15.15875,0.2995-22.73853 c10.52637-16.40088,23.77026-36.68384,39.20886-52.92084C167.08502,347.23352,166.75916,354.53345,166.44379,361.83374z M126.50769,417.85004c-2.8833,4.67688-5.52795,8.97888-7.91217,12.69629c-9.06726,14.13751-18.19318,30.42139-28.0434,46.83154 c0.06873-8.22021,0.13635-16.44067,0.20563-24.66119c10.01447-16.16907,19.37653-32.25806,28.75873-46.42804 c2.24573-3.39172,4.67969-7.19055,7.28693-11.25726C126.70624,402.63782,126.60785,410.24408,126.50769,417.85004z M89.16699,479.67883c-9.65808,15.98511-20.03558,31.99683-31.74286,46.1781c0.03442-8.52228,0.06519-17.04462,0.10089-25.56702 c11.66486-13.99225,22.07648-29.65942,31.84277-45.33478C89.30011,463.19641,89.23419,471.43781,89.16699,479.67883z M56.05078,527.50452c-8.59424,10.21216-17.90515,19.41632-28.17255,26.89154c0.01031-8.47223,0.02087-16.94446,0.03186-25.41669 c10.26532-7.6333,19.59619-16.87164,28.23731-27.0506C56.11322,510.45404,56.08374,518.97931,56.05078,527.50452z M26.51428,555.36829c-7.80457,5.52008-16.15796,10.03973-25.1618,13.25226c0.00012-8.24817,0.00018-16.49628,0.00037-24.74445 c9.00677-3.5083,17.36816-8.23767,25.19067-13.8999C26.53345,538.44025,26.52374,546.9043,26.51428,555.36829z M1.35083,700.82648 c8.91364-0.94617,17.23871-3.59863,25.05029-7.55774c-0.00507,8.65033-0.00812,17.30078-0.01215,25.95111 c-7.82416,3.62933-16.14673,5.9165-25.03851,6.44733C1.35046,717.38696,1.35077,709.10669,1.35083,700.82648z M27.75488,692.57416 c10.09113-5.34851,19.31745-12.87201,27.84601-21.68164c-0.02051,9.09381-0.04504,18.1875-0.06134,27.28143 c-8.53864,8.41589-17.7536,15.51733-27.79791,20.40985C27.74597,709.91394,27.74939,701.24402,27.75488,692.57416z M56.95526,669.48157c11.53583-12.20319,21.78577-26.71466,31.16748-41.28992c-0.05157,9.70856-0.10406,19.41699-0.14545,29.12598 c-9.38245,14.02441-19.62,27.93048-31.08539,39.51166C56.90875,687.71326,56.93396,678.59741,56.95526,669.48157z M89.48041,626.07385c10.17365-15.94788,19.33246-31.83948,28.02045-44.7298c2.16229-3.20813,4.53693-6.8576,7.10211-10.78967 c-0.10669,10.45734-0.20691,20.91504-0.29449,31.3736c-2.3634,3.47736-4.57159,6.7337-6.61047,9.65698 c-8.76544,12.56744-18.05145,28.13989-28.36682,43.70087C89.3736,645.54816,89.42749,635.81104,89.48041,626.07385z M125.96344,568.47083c10.20258-15.61127,23.27838-35.14459,38.35669-49.96906c0.0036,11.05652,0.00244,22.11298,0.01373,33.16949 c-15.1178,14.12524-28.3075,33.0434-38.67017,48.26404C125.75281,589.44641,125.85486,578.95844,125.96344,568.47083z M165.66901,517.19415c13.5141-12.92725,28.58966-21.91211,44.61462-20.88605c0.00305,11.73059,0.00287,23.46118,0.01099,35.19183 c-15.95831-1.70343-31.04083,6.59814-44.61151,18.92279C165.67163,539.3465,165.67273,528.27032,165.66901,517.19415z M211.63568,496.41827c5.55322,0.55042,11.21643,2.30328,16.96655,5.53552c12.71802,7.14893,23.94775,17.39655,34.07233,29.39697 c0.00336,12.54401,0.00122,25.08795,0.01331,37.63202c-10.04968-12.37756-21.20764-23.10358-33.88861-30.90485 c-5.80542-3.57147-11.53186-5.62048-17.15283-6.41882C211.63849,519.91211,211.63861,508.16522,211.63568,496.41827z M264.02521,532.97119c24.83813,30.11084,42.98724,70.62384,60.20306,101.19562c-0.13385,13.3407-0.25922,26.68091-0.37622,40.02057 c-17.26648-31.68365-35.18146-72.51831-59.8136-103.52393C264.02643,558.0993,264.02856,545.53528,264.02521,532.97119z M325.55609,636.50757c0.16925,0.29614,0.33875,0.59521,0.50781,0.88928c14.88885,25.89349,37.46698,76.26099,67.72034,101.25507 c-0.02185,13.9436-0.0423,27.88715-0.06158,41.83075c-7.9505-7.9751-14.80939-17.16895-20.40698-24.79614 c-17.80267-24.25751-32.40167-50.93359-47.05493-77.13354c-0.35742-0.6391-0.71582-1.29761-1.07361-1.94519 C325.30194,663.24158,325.42474,649.87482,325.55609,636.50757z M395.12219,739.73706 c9.20007,7.31616,19.0976,12.26025,29.69641,13.44647c19.11957,2.13983,36.66492-9.79926,51.84015-25.9527 c0,15.99188,0,31.9837,0,47.97559c-15.20575,15.42029-32.71051,26.54059-51.64337,23.68066 c-11.12122-1.67993-21.17493-8.57098-29.95087-17.08435C395.08258,767.78088,395.10175,753.75897,395.12219,739.73706z M478.00836,725.77539c16.78711-18.30884,30.58942-41.50629,40.29199-55.86859 c16.8576-24.95355,34.88623-59.62433,57.80908-86.04889c0,17.74969,0,35.49939,0,53.24908 c-22.85181,25.28687-41.00629,59.01868-57.61243,82.79364c-9.80609,14.03943-23.70532,36.46759-40.48865,53.91846 C478.00836,757.8045,478.00836,741.78998,478.00836,725.77539z M577.45905,582.31689 c11.32404-12.78363,23.83911-23.50568,37.98633-30.0484c32.25439-14.91681,60.65344,14.32452,81.91315,45.86554 c0,19.58704,0,39.17395,0,58.76099c-21.0719-32.44446-49.30548-62.91248-81.71655-49.64716 c-14.1557,5.7937-26.75488,16.00287-38.18292,28.37885C577.45905,617.85681,577.45905,600.08679,577.45905,582.31689z M698.70813,600.15503c11.42804,17.24554,20.71375,34.90918,27.31854,46.20142 c18.71686,32.00024,36.09772,64.91217,56.44434,95.92682c17.23706,26.27472,35.56586,52.16388,65.98126,62.93976 c0,22.16901,0,44.33807,0,66.50708c-30.39166-12.17822-48.62311-38.87292-65.78491-65.84082 c-20.34021-31.9624-37.7381-65.75238-56.44427-98.67474c-6.56549-11.55511-15.91309-30.05823-27.51495-48.22467 C698.70813,639.37823,698.70813,619.76666,698.70813,600.15503z M848.45227,464.3064 c-58.1217-6.30432-93.03638-85.97729-122.4256-128.70056c-7.24139-10.52679-16.50653-24.75238-27.31854-38.03271 c0-19.6452,0-39.29047,0-58.93567c10.75519,12.60852,20.08026,26.28339,27.51495,36.73199 c29.1452,40.96027,64.9433,119.47382,122.22919,122.36102C848.45227,419.92242,848.45227,442.11444,848.45227,464.3064z M697.35852,295.93182c-22.29089-26.88556-50.92841-49.04584-81.91315-27.1665 c-14.40387,10.17102-26.84338,23.72644-37.98633,38.94843c0-17.75836,0-35.5166,0-53.27496 c11.16925-15.80371,23.66046-29.99371,38.18292-40.88959c30.60815-22.9646,59.19385-2.39581,81.71655,23.52087 C697.35852,256.69061,697.35852,276.31128,697.35852,295.93182z M576.10944,309.57324 c-22.80316,31.72119-40.16058,70.29395-57.80908,100.76709c-9.92743,17.14142-23.36591,44.46411-40.29199,67.16333 c0-16.03503,0-32.07013,0-48.10516c16.92169-23.47559,30.25073-51.49554,40.48865-69.68518 c17.70477-31.45587,34.92224-70.67529,57.61243-103.35297C576.10944,274.09796,576.10944,291.83563,576.10944,309.57324z M518.26813,358.75159c-10.17859,18.0755-23.43604,45.8974-40.25977,69.25049c0-16.08984,0-32.17957,0-48.26941 c16.27679-23.4248,29.05115-50.92114,39.26355-69.52649c18.27911-33.30157,35.61462-75.31097,58.83752-110.40881 c0,18.40967,0,36.8194,0,55.22906C553.33966,287.80383,536.07135,327.13605,518.26813,358.75159z M476.65875,429.85309 c-14.56561,19.78101-31.75378,36.01074-51.87207,39.76709c-10.21631,1.90753-20.04279,0.23993-29.37732-3.74176 c-0.00104-14.73767-0.00989-29.47522-0.02087-44.21277c9.49103,3.35358,19.42401,4.41003,29.66656,1.91705 c20.28638-4.93756,37.27917-21.7594,51.6037-41.92957C476.65875,397.71979,476.65875,413.78644,476.65875,429.85309z M394.09271,465.30157c-27.07263-12.23462-49.91821-43.65552-65.97095-63.20819c-0.20929-0.25488-0.42114-0.52057-0.63092-0.77783 c0.03082-12.07123,0.03943-24.14154,0.03003-36.21106c0.90594,1.01404,1.80499,2.00946,2.69574,2.97943 c16.32147,17.77277,38.46887,43.52728,63.854,53.10205C394.08215,435.89111,394.09174,450.59631,394.09271,465.30157z M326.19733,399.72083c-17.03998-21.15735-35.93146-49.51154-59.03632-68.68054c0.34918-9.23676,0.6806-18.47437,0.97534-27.71387 c22.35577,16.31573,41.49524,41.54639,58.09283,60.32428C326.23822,375.67322,326.22894,387.69653,326.19733,399.72083z M265.82251,329.9516c-10.22961-8.26953-21.27612-14.71442-33.35419-17.90973c-5.93622-1.5705-11.7337-1.92438-17.38269-1.29462 c0.39703-7.69067,0.78363-15.38202,1.1405-23.0752c4.87671-0.80652,9.88849-0.95508,15.03339-0.32068 c12.68158,1.56366,24.50269,7.17859,35.54572,15.01587C266.50775,311.5636,266.17371,320.75806,265.82251,329.9516z M213.73242,310.91101c-16.36261,2.29187-31.44293,12.87366-44.90454,26.66345c0.32776-7.32642,0.64752-14.6532,0.94421-21.98096 c13.35187-13.62964,28.42236-24.48041,45.09662-27.67145C214.513,295.58649,214.12787,303.24908,213.73242,310.91101z M167.4502,339.00299c-15.43005,16.18481-28.68121,36.41022-39.23682,52.82703c0.09686-7.47925,0.1911-14.9588,0.28333-22.43866 c10.70013-15.59918,24.06238-35.84229,39.88879-52.36749C168.09131,324.35095,167.77472,331.67712,167.4502,339.00299z M126.81665,394.00378c-2.68756,4.18512-5.19348,8.09204-7.5025,11.57245c-9.3053,14.02612-18.60254,29.95874-28.54663,45.98151 c0.06787-8.05261,0.13556-16.10541,0.203-24.15833c11.81519-18.43927,22.84052-36.93903,34.04944-52.97888 c0.67999-0.97308,1.37286-1.97278,2.07715-2.9939C127.0058,378.95264,126.91254,386.47839,126.81665,394.00378z M89.37732,453.79041 c-9.7666,15.64453-20.18066,31.29083-31.84698,45.2572c0.03528-8.41888,0.07251-16.83813,0.10864-25.25714 c11.59247-13.66284,22.05237-28.88434,31.9364-44.21991C89.50952,437.64404,89.4436,445.71729,89.37732,453.79041z M56.15247,500.68518c-8.64301,10.16064-17.97675,19.37469-28.24072,26.97693c0.01099-8.42279,0.0202-16.8457,0.03174-25.26855 c10.23645-7.69232,19.59735-16.88617,28.31287-26.98425C56.2218,483.83447,56.18628,492.26001,56.15247,500.68518z M26.54504,528.6579c-7.82397,5.63983-16.18665,10.33887-25.1922,13.80951c0.00018-8.2395,0.00006-16.47894,0.00031-24.71851 c8.99036-3.71362,17.36346-8.58044,25.22095-14.33746C26.56354,511.8269,26.55511,520.24237,26.54504,528.6579z M1.35046,726.99084 c8.88971-0.50385,17.21283-2.77295,25.03784-6.39471c-0.00397,8.64764-0.00934,17.29529-0.01215,25.94293 c-7.86902,3.31262-16.19269,5.21741-25.026,5.29358C1.35016,743.55206,1.3504,735.27142,1.35046,726.99084z M27.74096,719.95789 c10.04236-4.88245,19.25824-11.98254,27.79718-20.40332c-0.01605,9.09387-0.01587,18.18829-0.02716,27.28229 c-8.60504,8.03119-17.82776,14.69537-27.78321,19.11823C27.73077,737.28937,27.73669,728.6236,27.74096,719.95789z M56.89044,698.20709c11.4657-11.5882,21.70398-25.50598,31.08215-39.53082c-0.04132,9.81873-0.07251,19.63794-0.10175,29.45728 c-9.43665,13.43951-19.68488,26.59302-31.00867,37.42877C56.8739,716.44403,56.87378,707.32526,56.89044,698.20709z M89.32642,656.64343c10.23755-15.45068,19.45496-30.89612,28.14221-43.35815c2.09998-3.01251,4.38074-6.38239,6.82751-9.98706 c-0.08698,10.49182-0.15936,20.98468-0.22266,31.47815c-0.60425,0.82764-1.20026,1.64166-1.7829,2.43195 c-10.06165,13.64709-20.88959,31.47614-33.06854,48.99304C89.25189,676.34845,89.284,666.49567,89.32642,656.64343z M125.65125,601.30371c10.37347-15.25397,23.56708-34.1709,38.68414-48.2912c0.01154,11.11694,0.02484,22.23395,0.03845,33.35083 c-15.38477,13.71729-28.63239,32.37195-38.9491,46.55878C125.48901,622.38184,125.56262,611.84229,125.65125,601.30371z M165.68469,551.76624c13.57495-12.32483,28.65698-20.62128,44.6109-18.91107c0.00824,11.76996,0.0174,23.53992,0.02692,35.30981 c-16.11047-2.33777-31.14954,5.37537-44.59906,17.01526C165.70978,574.04224,165.69635,562.90424,165.68469,551.76624z M211.6474,533.01984c5.5473,0.79041,11.19647,2.79474,16.92261,6.28357c12.7738,7.78284,24.01007,18.54987,34.11932,31.00446 c0.01312,13.45728,0.02899,26.91455,0.04492,40.37177c-10.20825-14.79852-22.14337-28.86188-36.66364-37.00476 c-4.88043-2.73694-9.68347-4.44788-14.39716-5.29443C211.66425,556.59363,211.65546,544.8067,211.6474,533.01984z M264.03992,571.99139c24.64832,31.0376,42.56165,71.97333,59.80096,103.55182c-0.1167,13.39142-0.2182,26.78186-0.30768,40.17169 c-14.04144-25.97632-27.81927-52.12146-43.24207-77.3114c-4.92877-8.05011-10.27478-16.98663-16.2063-25.74792 C264.06891,599.10083,264.05304,585.5462,264.03992,571.99139z M325.17609,677.97107 c0.28528,0.51526,0.57056,1.03088,0.85559,1.54065c14.66449,26.22693,29.26678,52.92645,47.05493,77.22943 c5.65149,7.72125,12.58716,17.05225,20.6344,25.12341c-0.02124,15.42804-0.03943,30.85602-0.05548,46.28406 c-29.646-27.10742-51.20605-77.61707-66.03174-104.86212c-0.92297-1.69611-1.83942-3.39636-2.75903-5.09454 C324.96234,704.78571,325.06171,691.37878,325.17609,677.97107z M395.06299,783.18787 c8.7204,8.45764,18.69653,15.29944,29.72339,17.0293c19.02332,2.98431,36.61139-8.17914,51.87238-23.66144 c0,15.94763,0,31.8952,0,47.84283c-15.18805,14.66748-32.66364,24.95776-51.61163,21.14032 c-10.81134-2.17816-20.80945-8.02881-30.03571-16.17474C395.02637,813.97205,395.04321,798.58002,395.06299,783.18787z M478.00836,775.16736c16.68359-17.35358,30.5033-39.60815,40.25977-53.56824c16.70966-23.909,34.91016-57.74884,57.84131-83.10663 c0,17.51849,0,35.03693,0,52.55542c-23.54639,24.99481-42.56805,59.84198-58.83752,82.1402 c-9.79462,13.42407-23.2146,33.98145-39.26355,49.89014C478.00836,807.10791,478.00836,791.1377,478.00836,775.16736z M577.45905,637.01422c11.36432-12.29913,23.88647-22.46283,37.9541-28.29852c32.52942-13.4942,60.84735,17.09625,81.94537,49.58954 c0,19.74005,0,39.4801,0,59.22015c-19.66931-31.93085-46.27869-63.61505-78.86133-54.8233 c-15.08545,4.0705-28.67993,14.10602-41.03815,26.92902C577.45905,672.09216,577.45905,654.55316,577.45905,637.01422z M698.70813,660.40161c11.49139,17.99792,20.75879,36.30023,27.28632,47.78094 c18.7215,32.92767,36.12207,66.72607,56.44434,98.71381c17.2196,27.10419,35.5025,53.92236,66.01349,66.24908 c0,22.1615,0,44.32306,0,66.48462c-30.06848-13.44165-47.72919-40.39398-64.89294-67.62604 c-22.57751-35.82153-40.93872-74.20807-61.79248-111.01904c-5.98645-10.56726-13.71118-25.8299-23.05872-41.25116 C698.70813,699.95642,698.70813,680.17902,698.70813,660.40161z M848.45227,396.40851 c-57.43298-3.04095-93.19104-81.63342-122.45782-122.73114c-7.39874-10.38965-16.64203-23.90503-27.28632-36.38068 c0-21.01752,0-42.03491,0-63.05243c8.74274,9.77643,16.51477,20.29004,23.05872,29.14508 c30.51874,41.29724,67.70959,126.02106,126.68542,126.42401C848.45227,352.01172,848.45227,374.21014,848.45227,396.40851z M697.35852,235.72858c-22.57257-25.96881-51.23627-46.58527-81.94537-23.3717 c-14.42426,10.90356-26.84277,25.02887-37.9541,40.74402c0-18.43335,0-36.86676,0-55.30011 c11.8515-17.60101,25.23041-33.37207,41.03815-45.27332c29.56616-22.25964,57.11444-3.62329,78.86133,20.22168 C697.35852,193.74225,697.35852,214.73547,697.35852,235.72858z M618.20447,151.19641 c-15.68201,11.94299-28.96698,27.64978-40.74542,45.15009c0-20.04486,0-40.08966,0-60.13452 c11.13885-17.87702,23.66016-34.36756,38.40247-48.11439c30.33374-28.28534,58.63525-11.07635,81.49701,13.75049 c0,23.11682,0,46.23359,0,69.35041C675.53949,147.27246,647.88782,128.59039,618.20447,151.19641z M576.10944,198.34839 c-23.32184,35.26135-40.71503,77.44171-59.13013,110.99048c-10.12482,18.44556-22.81311,45.71222-38.97095,68.9906 c0-16.08893,0-32.1778,0-48.26672c15.88806-24.28162,28.15125-52.46576,38.06006-71.71625 c19.22748-37.35437,36.57861-81.66101,60.04102-119.9342C576.10944,158.39099,576.10944,178.36969,576.10944,198.34839z M476.65875,380.25256c-14.38562,20.27771-31.47595,37.1944-51.89575,42.01697c-10.13953,2.39465-19.97375,1.33142-29.37512-1.98346 c-0.01135-14.74194-0.03278-29.48383-0.05585-44.22571c9.56635,3.02124,19.5321,3.72223,29.74561,0.79901 c20.57703-5.8894,37.4834-23.68781,51.58112-44.75732C476.65875,348.15222,476.65875,364.20239,476.65875,380.25256z M394.06995,419.80194c-25.49127-9.59497-47.72729-35.4704-64.12238-53.29608c-0.80316-0.87329-1.61261-1.76556-2.42841-2.67493 c-0.01202-13.26703-0.05298-26.53271-0.12299-39.79724c1.4245,1.45172,2.83319,2.87073,4.21851,4.23193 c16.46661,16.18018,38.10974,39.12079,62.39642,47.36041C394.03558,390.35126,394.05804,405.0766,394.06995,419.80194z M326.22748,362.38269c-16.56012-18.66162-35.7049-43.84973-58.05798-60.12421c0.33685-10.67609,0.61841-21.35498,0.79883-32.03949 c21.61035,13.63477,40.66101,35.56885,57.13605,52.49371C326.17462,335.93475,326.21588,349.15808,326.22748,362.38269z M266.83875,301.30029c-11.12817-7.87836-23.04529-13.49786-35.82812-14.98212c-5.04218-0.58545-9.95563-0.41803-14.7403,0.37622 c0.42505-9.23895,0.79834-18.48108,1.07727-27.72894c5.66925-1.31311,11.5155-1.80347,17.53772-1.28259 c11.50122,0.99475,22.41931,5.39453,32.76196,11.72559C267.46259,280.0437,267.17877,290.67358,266.83875,301.30029z M214.91302,286.94098c-16.66827,3.19855-31.73871,14.02435-45.09875,27.63495c0.34265-8.53131,0.64447-17.06427,0.8869-25.59961 c13.46368-13.99054,28.59241-25.39905,45.28693-29.67554C215.7088,268.51892,215.33691,277.73151,214.91302,286.94098z M168.42743,316.00232c-15.81525,16.47992-29.18372,36.67645-39.91742,52.32458c0.10077-8.19525,0.19781-16.39093,0.29095-24.5871 c11.01013-16.03796,24.56989-36.39056,40.50647-53.3006C169.06635,298.96234,168.76672,307.48315,168.42743,316.00232z M127.11017,370.36292c-0.80188,1.16309-1.58978,2.30011-2.36078,3.40222c-11.09991,15.86688-22.04193,34.18384-33.76898,52.45618 c0.07074-8.44879,0.13879-16.89813,0.20801-25.34735c11.39478-17.46069,22.09778-34.95459,32.94476-50.39722 c1.05988-1.50891,2.14844-3.07831,3.263-4.69501C127.30463,353.97589,127.20929,362.16962,127.11017,370.36292z M89.58502,428.38812 c-9.88324,15.31018-20.34595,30.5163-31.94073,44.1557c0.0368-8.56238,0.07324-17.12488,0.11047-25.68738 c11.59216-13.6142,22.08636-28.68292,32.03271-43.84143C89.72021,411.47284,89.65393,419.93073,89.58502,428.38812z M56.26147,474.16217c-8.71814,10.08118-18.08099,19.25348-28.31635,26.91187c0.0116-8.45557,0.01971-16.91101,0.03186-25.36652 c10.24713-7.84692,19.63257-17.11914,28.39008-27.23834C56.33148,457.03357,56.29669,465.5979,56.26147,474.16217z M26.57562,502.08221c-7.85968,5.73285-16.23364,10.56726-25.22247,14.23712c0.00018-8.23254,0.00012-16.46509,0.00037-24.69763 c8.99268-3.94641,17.37506-8.99261,25.25128-14.88184C26.59369,485.18738,26.58624,493.63477,26.57562,502.08221z M1.35016,753.15765c8.83063-0.0437,17.15454-1.92975,25.02539-5.23419c-0.00269,8.65118-0.01074,17.30231-0.01221,25.95355 c-7.88068,2.97357-16.20166,4.49609-25.01349,4.12146C1.34985,769.71826,1.3501,761.43793,1.35016,753.15765z M27.72705,747.34784 c9.95325-4.41125,19.17603-11.0799,27.78253-19.11731c-0.01105,9.07111-0.02136,18.14227-0.02716,27.2135 c-8.61761,7.66632-17.84076,13.93933-27.76856,17.91821C27.71545,764.69073,27.72412,756.01929,27.72705,747.34784z M56.86078,726.95209c11.32391-10.84296,21.57318-24.00903,31.00537-37.44971c-0.02802,9.60822-0.04474,19.21716-0.05945,28.82617 c-9.43042,12.92688-19.67963,25.57941-30.97412,35.8913C56.8385,745.13049,56.84943,736.04126,56.86078,726.95209z M89.21722,687.56927c12.0816-17.38617,22.82324-35.05707,32.78119-48.57788c0.67432-0.91553,1.36377-1.8587,2.06732-2.82483 c-0.06116,10.32782-0.10858,20.65668-0.1424,30.98645c-1.0697,1.42426-2.10883,2.8056-3.11194,4.12811 c-9.59277,12.64722-19.99811,29.04877-31.65472,45.18665C89.17163,706.83466,89.18866,697.20166,89.21722,687.56927z M125.41687,634.30731c10.32312-14.22754,23.57477-32.87805,38.9585-46.5885c0.01349,11.02051,0.01886,22.04077,0.02869,33.0611 c-15.26508,12.89484-28.66467,30.63489-39.13135,44.57605C125.30676,655.00543,125.35486,644.65582,125.41687,634.30731z M165.72504,586.53027c13.45264-11.63678,28.49286-19.33466,44.59851-16.99487c0.00928,11.5647,0.01282,23.12933,0.01947,34.69403 c-15.81482-2.94122-30.92627,4.22632-44.58923,15.42627C165.7439,608.61395,165.73859,597.5722,165.72504,586.53027z M211.6745,569.74561c4.61957,0.83044,9.32471,2.49304,14.10388,5.13556c14.65631,8.10382,26.68805,22.29718,36.95746,37.19702 c0.01501,12.69952,0.02118,25.39886,0.0321,38.09827c-9.52405-14.29877-20.32941-28.01038-33.8949-37.71631 c-5.79083-4.14325-11.52814-6.69128-17.17975-7.94629C211.68689,592.92444,211.68353,581.33502,211.6745,569.74561z M264.08636,614.05688c5.8205,8.6037,11.07227,17.36206,15.91248,25.25165c15.53961,25.32977,29.39771,51.638,43.52551,77.77191 c-0.08856,13.41327-0.16016,26.82562-0.21106,40.23688c-14.94458-28.40619-29.50684-57.10004-46.28925-84.4624 c-4.12714-6.729-8.37561-13.73895-12.90601-20.64966C264.10724,639.48914,264.10126,626.77313,264.08636,614.05688z M324.86603,719.55853c0.82532,1.52393,1.6474,3.04993,2.4754,4.5722c14.93182,27.45129,36.54523,78.19934,66.32245,105.39496 c-0.0144,14.0069-0.02179,28.01367-0.03021,42.02051c-7.29211-8.11987-13.58246-17.15894-18.88995-24.79614 c-17.33368-24.94214-31.52759-51.99945-45.78534-78.76093c-1.43921-2.70135-2.87036-5.40826-4.29889-8.11719 C324.70911,746.43512,324.7793,732.99725,324.86603,719.55853z M395.00989,830.73651 c9.14221,8.06268,19.04193,13.88104,29.74475,16.12073c19.06262,3.98907,36.6441-6.35406,51.90411-21.10022 c0,16.0127,0,32.02539,0,48.03809c-15.25183,14.02771-32.77783,23.68707-51.58112,19.18201 c-11.42999-2.73853-21.44659-10.62256-30.09601-19.95233C394.98944,858.92871,394.99634,844.83264,395.00989,830.73651z M478.00836,824.43512c15.92004-15.79034,29.2395-36.13513,38.97095-49.46033c16.716-22.88916,35.58063-57.32202,59.13013-82.23846 c0,17.91486,0,35.82965,0,53.74451c-23.74872,23.76025-42.7215,57.02338-60.04102,79.94672 c-9.56781,12.66357-22.61047,31.51758-38.06006,46.11053C478.00836,856.50378,478.00836,840.46942,478.00836,824.43512z M577.45905,691.32574c12.21283-12.63379,25.67786-22.64386,40.74542-27.1496c32.36609-9.67853,59.34857,22.62946,79.15405,54.78729 c0,19.5191,0,39.03827,0,58.55737c-20.37433-33.95837-48.19006-67.59436-81.49701-57.12238 c-14.16412,4.45331-26.84631,13.45044-38.40247,24.74792C577.45905,727.20612,577.45905,709.26599,577.45905,691.32574z M698.70813,721.17218c9.29926,15.341,16.95502,30.4281,22.76587,40.6734c20.88025,36.81476,39.24371,75.20837,61.79242,111.0658 c17.23755,27.4115,34.96716,54.52368,65.18585,68.16003c0,22.15283,0,44.30573,0,66.45856 c-29.61432-14.61365-47.07385-41.81622-64.02478-69.37268c-22.34857-36.3313-40.67462-75.11694-61.04938-112.54706 c-6.07611-11.16229-14.38947-28.40613-24.66998-45.82141C698.70813,760.24994,698.70813,740.71106,698.70813,721.17218z M848.45227,328.49182c-59.19836-0.67993-96.28339-85.5434-126.97827-127.05341c-6.48578-8.771-14.15503-19.11676-22.76587-28.74628 c0-23.12054,0-46.2411,0-69.36164c9.21051,10.21448,17.51135,21.56348,24.66998,31.50263 c20.64276,28.66064,38.78198,59.28137,61.04938,86.76184c17.20673,21.23492,35.46912,40.59814,64.02478,40.27094 C848.45227,284.07452,848.45227,306.2832,848.45227,328.49182z M618.12506,16.25549 c83.00531-77.96997,148.07092,181.82404,230.32721,177.91302c0,22.12476,0,44.24957,0,66.37433 c-28.8009,0.15717-47.12177-19.46619-64.37823-40.87262c-22.23071-27.57703-40.37067-58.24615-61.04938-86.94818 c-7.08954-9.84028-15.2666-20.9878-24.31653-31.03425c0-23.34167,0-46.68341,0-70.02509 c-0.53986-0.82336-0.80975-1.2323-1.34961-2.04486c0,23.52966,0,47.05939,0,70.58905 c-22.96582-24.96643-51.38184-42.22094-81.85034-13.48944c-14.58496,13.75348-26.99713,30.15173-38.04913,47.90345 c0-19.92829,0-39.85658,0-59.78486C588.56555,53.57592,601.31024,32.05029,618.12506,16.25549z M565.56213,98.25451 c3.40411-6.73621,6.89099-13.75122,10.5473-20.82227c0,19.79938,0,39.59882,0,59.3982 c-23.58411,38.49963-41.01196,83.0329-60.39435,120.69299c-9.80914,19.05914-21.96747,46.96265-37.70673,71.06683 c0-18.0426,0-36.08514,0-54.12775c15.75671-25.5166,28.77905-52.9621,41.59027-79.92798 C534.85968,162.41235,549.5202,129.99921,565.56213,98.25451z M424.90839,329.58527 c19.72314-6.50732,33.44983-25.50214,44.61554-41.97406c2.44342-3.60461,4.8186-7.2597,7.13483-10.95673 c0,17.99335,0,35.98663,0,53.97998c-14.16638,21.21613-31.18713,39.14984-51.9339,44.92389 c-10.09344,2.80908-19.93964,2.09143-29.39532-0.89288c-0.02393-14.98566-0.04211-29.97144-0.08008-44.95697 C404.81335,332.52429,414.75519,332.93512,424.90839,329.58527z M332.44818,283.85535 c16.37006,15.75037,37.72388,37.87964,61.47491,45.44678c0.04028,14.97693,0.06006,29.9541,0.08539,44.93115 c-24.43677-8.28583-46.19415-31.46796-62.73596-47.73932c-1.27704-1.25616-2.57208-2.55621-3.88342-3.88995 c-0.08002-14.68939-0.18512-29.37769-0.34882-44.06342C328.87903,280.37726,330.68274,282.15674,332.44818,283.85535z M325.74402,277.24243c0.16577,14.67859,0.27264,29.3598,0.35321,44.04211c-16.42151-16.83734-35.48462-38.76099-57.10345-52.37073 c0.21313-13.22375,0.2724-26.45599,0.09216-39.70142c-0.34076-0.32538-0.57379-0.54663-0.83716-0.79492 C290.02258,239.94495,309.30579,260.73755,325.74402,277.24243z M232.31775,219.85803 c12.44226-0.91028,24.27789,2.47272,35.46063,8.3147c0.18005,13.31995,0.11536,26.62616-0.10522,39.92371 c-10.45251-6.38361-21.49561-10.78058-33.12073-11.69342c-5.89008-0.46252-11.61169,0.04401-17.16504,1.33588 c0.34015-11.63733,0.52753-23.28381,0.46405-34.94537C222.55054,221.23767,227.37146,220.21991,232.31775,219.85803z M216.49774,223.25342c0.05847,11.61841-0.12927,23.22217-0.46979,34.81677c-16.68713,4.29077-31.81879,15.70233-45.29437,29.70215 c0.2594-9.37183,0.4472-18.74652,0.50647-28.1264c-0.55615,0.45538-0.83429,0.68549-1.39075,1.15027 c-0.05957,9.4834-0.24847,18.96167-0.5097,28.43707c-15.92352,16.8916-29.48834,37.22424-40.52484,53.32025 c0.10358-9.15955,0.20312-18.31964,0.29413-27.48065C150.14447,283.43329,179.41864,236.42133,216.49774,223.25342z M123.30035,323.68518c1.4212-2.06342,2.88806-4.23712,4.39746-6.49573c-0.08923,9.13733-0.18658,18.27374-0.28815,27.40967 c-1.24005,1.80157-2.44812,3.54547-3.62128,5.21533c-10.71307,15.24896-21.30811,32.53949-32.5899,49.81427 c0.07324-8.95624,0.14728-17.91229,0.21747-26.86914C102.42102,355.86267,112.80121,338.92889,123.30035,323.68518z M90.0083,374.91418c-0.06812,8.95209-0.13989,17.9035-0.211,26.85504c-9.94312,15.14258-20.44122,30.20642-32.03705,43.80701 c0.03833-8.80872,0.07526-17.61707,0.11365-26.4259C69.48706,405.34351,80.01605,390.1748,90.0083,374.91418z M56.48077,420.7912 c-0.03656,8.79889-0.0719,17.59723-0.10846,26.39594c-8.75922,10.1073-18.14642,19.36218-28.39368,27.17706 c0.01233-8.54742,0.01947-17.09485,0.03223-25.64233C38.28082,440.57013,47.6922,431.0788,56.48077,420.7912z M26.6358,449.79626 c-0.0116,8.53192-0.01819,17.06378-0.02942,25.5957c-7.87775,5.86493-16.2616,10.87634-25.25287,14.77631 c0.00024-8.20264,0.00006-16.40533,0.00031-24.60797C10.35528,461.25867,18.74615,455.92096,26.6358,449.79626z M1.34949,804.25879 c0-8.31042,0.00031-16.62085,0.00031-24.93127c8.80853,0.41241,17.13037-1.08551,25.01288-4.04932 c-0.0014,8.64532-0.01202,17.29047-0.01215,25.93579C18.4621,803.86255,10.14557,805.03571,1.34949,804.25879z M27.69995,800.75354 c0.00012-8.66486,0.01172-17.32947,0.01318-25.99426c9.92505-3.96625,19.14911-10.23969,27.76789-17.91339 c-0.00543,8.88348-0.02655,17.76642-0.02655,26.65009c0.53986-0.68011,0.80975-1.02289,1.34961-1.71356 c0-8.71832,0.02161-17.43591,0.02704-26.15399c11.29626-10.32178,21.54791-22.99384,30.97388-35.92334 c-0.01337,9.12769-0.03412,18.25494-0.03412,27.38336c0.53986-0.85492,0.80975-1.28339,1.34961-2.14203 c0-9.0354,0.02112-18.06958,0.03448-27.10419c11.53442-15.97894,21.83093-32.19153,31.30328-44.69427 c1.11108-1.46655,2.26587-3.00537,3.46021-4.59937c-0.03235,10.28467-0.05469,20.57001-0.05566,30.85699 c-1.46759,1.88519-2.87518,3.69678-4.21454,5.4054C96.03381,734.93518,67.34589,786.50836,27.69995,800.75354z M125.21191,697.67413 c0.00055-10.31018,0.02319-20.61871,0.05579-30.92651c10.46936-13.97437,23.87183-31.72083,39.13733-44.61389 c0.00958,11.05902,0.0224,22.11823,0.02271,33.17706C149.21411,667.36633,135.7218,684.20148,125.21191,697.67413z M165.77765,654.25439c-0.00012-11.08038-0.01331-22.16113-0.02289-33.24176c13.66754-11.20172,28.7804-18.36249,44.58887-15.41144 c0.00659,11.68481,0.01581,23.36963,0.01581,35.05432C194.74463,637.13037,179.57739,643.65179,165.77765,654.25439z M226.3241,647.91071c-4.93567-3.43536-9.8576-5.68188-14.73889-6.94751c0.0426-0.00397,0.07794-0.00751,0.12415-0.01172 c0.00006-11.68951-0.00909-23.37921-0.01544-35.06885c5.53748,1.23376,11.15637,3.71332,16.82593,7.71735 c13.73883,9.70282,24.64679,23.56543,34.24902,37.9917c0.01044,12.41284,0.02429,24.82574,0.0249,37.23834 C252.67047,673.15021,240.95264,658.09265,226.3241,647.91071z M264.14368,690.93738 c-0.00043-12.43762-0.01434-24.87555-0.02466-37.31335c4.4007,6.71643,8.53607,13.51813,12.55188,20.04779 c16.93164,27.5307,31.58691,56.43195,46.63647,85.03235c-0.04974,13.49066-0.08447,26.98047-0.08575,40.46857 c-14.30927-27.95624-28.35498-56.09021-44.15088-83.23438C274.40259,707.91644,269.49323,699.36493,264.14368,690.93738z M330.20312,812.73944c-1.8869-3.63953-3.76135-7.2868-5.63257-10.93628c0.00067-13.51294,0.03461-27.02765,0.08307-40.54315 c1.31335,2.48993,2.62921,4.97815,3.95154,7.46167c14.27246,26.80493,28.47339,53.90308,45.78528,78.914 c5.39703,7.79724,11.8028,17.05237,19.24255,25.33215c-0.00848,14.60797-0.02081,29.21594-0.02094,43.82385 c-6.99207-8.11517-13.04578-17.05823-18.31274-24.85706C358.28851,866.7467,344.17688,839.69263,330.20312,812.73944z M519.59863,873.40674c-20.42981,26.31708-54.91302,78.06683-94.69775,66.1814 c-11.52307-3.44244-21.41345-11.66107-29.93945-21.25214c0-14.63068,0.01172-29.26154,0.01959-43.89227 c8.56659,9.23438,18.46283,17.03027,29.74335,19.83612c18.94281,4.71179,36.59576-5.00543,51.93439-19.12006 c0,15.93719,0,31.87445,0,47.81165c0.53986-0.64972,0.80975-0.97748,1.34961-1.63855c0-15.81049,0-31.62091,0-47.4314 c15.2912-14.4502,28.20996-33.05157,37.70673-45.60614c17.47998-23.10822,36.5213-56.53925,60.39435-80.39972 c0,17.65363,0,35.30731,0,52.96094C553.63739,822.57635,535.17841,853.3374,519.59863,873.40674z M618.12506,776.28284 c-14.86981,2.86047-28.36353,11.68176-40.66602,23.2879c0-17.66882,0-35.33765,0-53.00647 c11.45587-11.18848,24.01978-20.12518,38.04913-24.6532c33.49884-10.81189,61.44257,23.04602,81.85034,57.07379 c0,19.51788,0,39.03571,0,58.55359C677.5827,803.51215,650.84869,769.98785,618.12506,776.28284z M784.49463,1003.01874 c-22.01813-36.8764-40.17303-76.04633-60.22809-113.98529c-6.30957-11.9361-14.88452-30.48468-25.55841-49.15344 c0-19.54175,0-39.08356,0-58.62531c10.11475,17.14056,18.30585,34.073,24.31653,45.10236 c20.40344,37.43945,38.7345,76.23456,61.04938,112.61041c17.04077,27.77856,34.58643,55.17743,64.37823,70.03009 c0,22.20203,0,44.40393,0,66.60596C818.92194,1059.29346,801.4472,1031.41125,784.49463,1003.01874z"/></g></svg>